<?xml version="1.0" encoding="UTF-8" standalone="no"?>
<!-- Created with Inkscape (http://www.inkscape.org/) -->

<svg
   xmlns:dc="http://purl.org/dc/elements/1.1/"
   xmlns:cc="http://creativecommons.org/ns#"
   xmlns:rdf="http://www.w3.org/1999/02/22-rdf-syntax-ns#"
   xmlns:svg="http://www.w3.org/2000/svg"
   xmlns="http://www.w3.org/2000/svg"
   xmlns:sodipodi="http://sodipodi.sourceforge.net/DTD/sodipodi-0.dtd"
   xmlns:inkscape="http://www.inkscape.org/namespaces/inkscape"
   version="1.1"
   width="53.88343"
   height="53.938148"
   id="svg3953"
   sodipodi:docname="OSM_white_bg_with_small_border.nonbinary.svg"
   inkscape:version="0.92.3 (2405546, 2018-03-11)">
  <title
     id="title823">OpenStreetMap Logo, Simple version</title>
  <sodipodi:namedview
     pagecolor="#ffffff"
     bordercolor="#666666"
     borderopacity="1"
     objecttolerance="10"
     gridtolerance="10"
     guidetolerance="10"
     inkscape:pageopacity="0"
     inkscape:pageshadow="2"
     inkscape:window-width="2493"
     inkscape:window-height="1385"
     id="namedview4575"
     showgrid="false"
     inkscape:zoom="8"
     inkscape:cx="17.730538"
     inkscape:cy="4.8458188"
     inkscape:window-x="67"
     inkscape:window-y="27"
     inkscape:window-maximized="1"
     inkscape:current-layer="svg3953" />
  <defs
     id="defs3955">
    <clipPath
       clipPathUnits="userSpaceOnUse"
       id="clipPath1557">
      <path
         inkscape:connector-curvature="0"
         id="path1559"
         d="M 537.44531,-0.15884421 C 466.88,1.1003059 397.85228,20.96267 350.78521,57.443325 304.22147,93.53404 286.51871,141.11384 302.93445,186.09801 c 5.81466,15.93411 18.73931,35.25287 32.47115,48.49064 l 7.07238,6.80327 -28.17723,17.4247 -28.14916,17.40734 -8.92466,-2.77684 c -7.83816,-2.44167 -10.2901,-2.77643 -20.01032,-2.7942 -21.02741,-0.0338 -15.03679,-3.18164 -131.25986,68.88308 -115.080555,71.35637 -108.778455,66.7429 -108.835932,79.66078 -0.05604,11.56216 2.232538,13.73423 38.252545,35.9601 30.274457,18.68074 36.20083,21.57648 47.542057,23.34282 h 0.0287 c 8.22985,1.28179 21.76178,0.34744 30.50662,-2.11734 6.82741,-1.9245 20.56666,-10.07901 109.70595,-65.13437 115.75031,-71.49117 110.77377,-67.85284 110.7163,-80.84083 -0.0259,-6.01105 -0.5982,-7.50992 -4.54653,-12.357 l -4.49039,-5.53631 28.17723,-17.40734 28.14916,-17.42471 11.00147,4.37354 c 43.17834,17.12811 99.58537,25.82392 150.45629,23.204 35.70273,-1.83876 61.97995,-6.35885 92.95117,-16.00156 26.01512,-8.09959 42.39805,-15.41977 62.83746,-28.02878 39.67426,-24.47515 63.29547,-53.63099 71.22889,-87.93919 2.27594,-9.86149 2.26557,-32.06244 -0.0287,-41.4097 C 778.77073,87.663782 740.6846,50.059558 682.12022,25.717881 642.09868,9.0832674 596.79791,0.62812685 551.56199,-0.15884421 c -4.71207,-0.0817503 -9.41233,-0.0835275 -14.11668,0 z M 64.943522,22.125337 c -0.575345,0.355792 38.366188,85.372553 39.683858,86.637553 0.4055,0.38929 32.12287,6.28143 70.47113,13.10323 38.3484,6.82179 70.09121,12.45137 70.55534,12.4958 1.07956,0.11303 -38.73607,-86.329672 -40.21711,-87.314408 C 204.1162,46.169496 65.752512,21.625061 64.943522,22.125337 Z m 478.030588,3.418985 c 14.70262,-0.08904 29.30119,0.42288 38.67352,1.59669 27.05733,3.388639 55.88754,10.629396 76.53317,19.212289 86.5452,35.97893 116.7389,104.032589 71.84632,161.942109 -28.15759,36.32201 -84.33268,62.81632 -148.66013,70.09796 -16.86506,1.90897 -50.26511,2.27965 -66.62624,0.74624 -49.26588,-4.61685 -93.7919,-19.68806 -125.98364,-42.65927 -62.80014,-44.81277 -67.82492,-109.37694 -12.29246,-157.950395 10.02142,-8.765587 33.67031,-23.396199 48.01917,-29.694882 23.21886,-10.192308 50.01579,-17.357891 79.19934,-21.208152 9.77533,-1.2897 24.58835,-1.993641 39.29095,-2.082634 z m -206.33364,0.624767 c -1.13905,0.263556 -26.70865,4.81209 -56.80349,10.118129 l -54.69863,9.64953 2.58198,5.623115 c 1.43233,3.090872 8.94007,19.336967 16.67059,36.098978 12.58489,27.286829 16.30574,33.629439 16.30574,27.785799 0,-1.00748 1.93192,-6.05458 4.29395,-11.21151 12.67166,-27.664393 32.69931,-50.26557 63.25843,-71.347551 5.74655,-3.964446 9.53091,-6.980401 8.39143,-6.71649 z m 209.42079,17.355279 a 175.34992,109.40767 0 0 0 -7.04431,0.225613 c -0.83256,1.166959 -1.66161,2.351138 -2.35745,3.714031 6.04116,-1.111937 13.76533,-3.037174 15.18313,-3.037174 23.70445,0 41.48003,12.653303 41.48003,27.265147 0,14.401142 -17.85551,26.779196 -41.67648,26.779196 -9.62212,0 -21.21274,-2.182369 -30.47855,-7.931361 -9.26577,-5.749099 -15.85671,-14.985168 -15.85671,-28.410594 0,-3.870415 0.74864,-9.737687 3.3678,-16.001564 A 175.34992,109.40767 0 0 0 463.438,56.488757 c 6.47046,4.292166 10.46822,9.698518 10.46822,15.550329 0,7.96527 -5.37055,14.71007 -13.89216,19.281716 -8.52153,4.571645 -20.04212,7.028891 -32.44309,7.028891 -11.62343,0 -20.62108,-2.045775 -29.38403,-4.199975 a 175.34992,109.40767 0 0 0 -27.47561,58.782322 175.34992,109.40767 0 0 0 23.91136,54.94681 c 7.49515,-6.07851 18.92704,-10.13548 32.44309,-10.13548 9.62212,0 21.24085,2.18229 30.50663,7.93136 9.26579,5.74908 15.85671,14.98516 15.85671,28.41059 0,4.13068 -0.68685,10.47279 -3.78877,17.21643 a 175.34992,109.40767 0 0 0 58.319,10.25697 c 2.86158,-1.80078 6.77139,-3.12861 11.14179,-3.87022 h -7.15656 v -20.0627 h 3.98522 c 0.3792,-0.0702 0.47677,-0.22561 2.161,-0.22561 l -1.0945,0.0693 c 1.47691,-0.22331 3.65608,-0.60096 5.80945,-0.76366 l -0.50523,0.0524 c 5.97555,-0.88824 12.33964,-1.85977 16.72672,-3.40164 4.38706,-1.54187 6.70753,-3.10943 6.70753,-6.47351 0,-2.58339 -1.73833,-4.24109 -4.71492,-5.57106 -2.97661,-1.32994 -7.31986,-2.09998 -11.42244,-2.09998 -3.45795,0 -12.01463,0.57429 -13.7799,0.98925 l -0.0848,0.0178 -0.89808,0.19087 v 8.83383 h -21.5539 -4.54653 v -20.67013 l 3.33973,-0.5727 c 1.20371,-0.20793 1.44598,-0.31136 5.38847,-1.14545 h 0.056 0.0287 c 12.4486,-2.50842 20.04984,-3.57518 29.91727,-3.57518 28.05001,0 44.79168,11.37843 44.79168,23.84614 0,8.39707 -6.90213,14.21644 -14.93056,17.7371 -6.86766,3.01165 -13.89653,4.18257 -19.44903,5.20658 v 7.61897 h -7.77398 c 4.4432,0.75477 8.47829,2.10711 11.39436,3.99171 a 175.34992,109.40767 0 0 0 51.97633,-8.01814 v -7.4107 l 49.31014,-48.508 h 26.12849 4.57459 v 14.07513 A 175.34992,109.40767 0 0 0 721.41113,152.93267 175.34992,109.40767 0 0 0 692.841,93.247869 c -7.31815,3.052788 -16.73987,5.102455 -28.62626,5.102455 -15.25199,0 -25.83027,-2.54566 -42.01325,-6.317326 l -4.32202,-1.006604 9.5421,-15.08174 4.46233,1.353714 c -0.34386,-0.103965 0.15921,0.03466 0.58943,0.138886 0.2151,0.05243 0.46455,0.107964 0.75769,0.19087 0.0302,0.0087 0.13938,0.06398 0.16841,0.06931 6.91895,1.792526 17.98059,4.737989 29.86114,4.737989 6.45292,0 10.70277,-0.858378 13.80795,-2.065279 A 175.34992,109.40767 0 0 0 645.10253,62.771899 c -0.61012,0.29048 -1.27484,0.583359 -1.8523,0.867797 l -2.38551,1.1628 -14.00443,-4.772698 V 55.881886 A 175.34992,109.40767 0 0 0 546.06126,43.524927 Z m 5.97783,16.834617 c -1.66254,0 -5.46769,0.220371 -9.2895,1.405777 -3.53396,1.096129 -7.03411,3.269905 -9.71047,6.785915 1.75664,10.674341 11.73102,14.00571 18.41062,14.00571 8.11614,0 14.76216,-3.571439 14.76216,-10.864402 0,-3.068044 -1.6134,-6.042582 -4.18167,-8.10492 -2.56827,-2.062329 -5.81833,-3.22808 -9.99114,-3.22808 z m -109.9024,4.599148 a 175.34992,109.40767 0 0 0 -28.06497,16.157769 c 4.69918,0.895735 9.5037,1.561973 14.0886,1.561973 4.76324,0 9.7692,-0.907473 13.33087,-2.620648 3.56161,-1.713175 5.9217,-4.084494 5.9217,-7.896653 0,-3.277733 -1.71582,-5.447067 -4.7991,-7.046245 -0.12501,-0.06487 -0.34702,-0.09357 -0.47706,-0.156214 z M 430.40552,106.767 c 24.23464,0 44.00587,11.76999 44.00587,26.32796 0,6.11305 -2.93353,11.26191 -9.12111,16.34867 -6.18758,5.08676 -15.43871,10.30249 -28.73853,17.63296 l -9.90693,5.43221 h 22.031 v -11.55862 h 25.53912 v 26.90068 h -90.3692 v -13.84951 l 1.65583,-0.85038 c 9.79229,-4.99095 37.41521,-19.78162 53.21118,-29.33042 7.68119,-4.64332 8.78433,-6.98353 8.78433,-11.09002 0,-5.59107 -5.64893,-9.90986 -17.68092,-9.90986 -2.40581,0 -7.08907,0.37152 -10.4963,1.40577 -3.4072,1.03425 -5.41654,2.17888 -5.41654,4.84213 0,0.38271 0.2325,1.67867 0.30866,1.90908 l 1.0945,3.40163 h -27.75626 v -14.10983 l 1.06649,-0.79831 c 16.08172,-11.86791 35.24515,-12.70407 41.78875,-12.70407 z m 237.03672,0.0178 c 23.03196,10e-6 42.63068,10.23026 42.63068,23.8288 0,4.95071 -3.68586,11.22062 -12.26439,16.53958 9.5939,5.17993 14.4254,11.84312 14.4254,17.44206 0,11.5956 -15.82885,24.90482 -44.79169,24.90482 -28.78395,0 -44.79168,-13.26419 -44.79168,-24.78334 0,-6.61279 5.76246,-13.01512 14.48151,-17.65031 -9.73387,-6.16701 -12.32052,-13.06742 -12.32052,-16.45281 0,-13.47805 19.39575,-23.8288 42.63069,-23.8288 z m -162.60842,1.64836 h 90.73404 v 11.333 l -39.03837,68.0674 h -28.71047 l 37.85965,-63.71123 h -34.94089 v 10.25697 h -25.90396 v -23.11722 z m -401.04838,13.4677 c -0.8281,0.51209 -41.931898,88.83181 -41.451965,89.06729 0.137945,0.0675 31.617567,5.69598 69.965965,12.51315 38.34826,6.81727 70.99578,12.43402 72.54794,12.47845 2.56275,0.08 4.70289,-3.99236 23.32199,-44.32538 11.27729,-24.42903 20.2545,-44.55662 19.95418,-44.72455 -1.47543,-0.8263 -143.61678,-25.45504 -144.33811,-25.00896 z m 563.6568,0.55537 c -4.59742,0 -8.67352,0.92589 -11.47857,2.37767 -2.80507,1.45186 -4.43427,3.34877 -4.43427,5.9008 0,4.88824 7.61187,9.09416 15.91284,9.09416 8.17088,0 15.9409,-3.9438 15.9409,-9.09416 0,-2.68122 -1.68083,-4.54752 -4.4904,-5.97022 -2.80958,-1.42268 -6.9148,-2.30825 -11.4505,-2.30825 z m 0,33.28742 c -12.94395,0 -18.07384,5.11665 -18.07384,9.21566 0,4.43677 7.3547,9.09416 18.07384,9.09416 10.76423,0 18.07384,-4.50569 18.07384,-9.09416 0,-4.28201 -5.71977,-9.21566 -18.07384,-9.21566 z m -411.62888,18.41395 -13.63957,29.45191 c -7.48855,16.20096 -13.92086,29.97314 -14.31314,30.61471 -0.50149,0.81839 0.0661,1.01718 1.90842,0.67684 1.44368,-0.26676 12.86909,-2.26754 25.3988,-4.46031 12.52971,-2.19268 22.97263,-4.08848 23.20972,-4.21733 0.23767,-0.12876 -2.37304,-5.03682 -5.80945,-10.89912 -6.46473,-11.02874 -11.91137,-23.68503 -14.98668,-34.77997 z m 171.44888,39.50061 c -7.84994,0 -14.17753,3.42177 -14.59378,10.23962 a 175.34992,109.40767 0 0 0 18.57901,11.54126 c 1.48245,-0.21184 3.08747,-0.47575 4.74298,-0.98925 3.54321,-1.09898 7.03214,-3.26926 9.71047,-6.80327 -1.76687,-10.65701 -11.76357,-13.98836 -18.43868,-13.98836 z m 240.09581,5.84873 -23.96749,24.14119 h 0.0848 a 175.34992,109.40767 0 0 0 23.8833,-12.07927 z m -600.842889,5.0851 c -1.441626,-0.0187 -1.681161,0.23734 -1.543575,0.65951 2.750133,8.43352 39.192024,84.87978 40.862594,85.71772 1.17037,0.58656 2.49055,1.07603 2.91875,1.07603 0.42878,0 20.66467,-12.31369 44.96008,-27.35192 24.29555,-15.03824 46.42893,-28.31105 49.19789,-29.50398 4.34425,-1.87155 4.89057,-2.4781 4.04135,-4.44295 -0.95283,-2.2029 -3.2676,-2.69647 -71.76211,-14.80405 -49.095924,-8.67831 -64.350119,-11.2936 -68.674979,-11.35039 z m 662.136779,67.78972 c -1.23878,0.0755 -3.88692,1.04692 -7.80207,2.88097 -36.54032,17.11701 -82.94871,29.69269 -126.26428,34.22459 l -5.0517,0.5376 1.4033,3.176 c 0.77393,1.7475 1.65485,3.40614 1.93649,3.69671 0.40521,0.41764 144.02613,-24.4863 145.12394,-25.16518 0.24399,-0.15079 -6.81672,-15.87203 -8.58788,-19.12552 -0.0963,-0.17629 -0.34486,-0.25076 -0.75769,-0.22561 z m -298.33061,31.44773 c -1.57746,1.05084 -41.34553,88.29343 -40.49774,88.84169 0.45248,0.29235 32.31236,6.17295 70.8079,13.05117 38.49556,6.87823 70.73023,12.53819 71.64986,12.58262 0.91992,0.0444 2.30834,-1.34559 3.08715,-3.1066 0.7781,-1.76092 10.04863,-21.84519 20.59969,-44.62047 16.81765,-36.28807 18.92414,-41.47691 16.95124,-42.05182 -5.58103,-1.62621 -141.8121,-25.21997 -142.5981,-24.69659 z m -21.24519,1.11074 c -0.30434,-0.18839 -3.23397,0.12706 -6.48301,0.69398 l -5.89364,1.04134 -0.33681,6.12639 c -0.18608,3.37184 -1.05054,8.04778 -1.90841,10.39579 -2.07607,5.68085 -9.71885,15.88435 -15.21122,20.32304 -2.43631,1.96876 -26.77269,17.47439 -54.08119,34.4502 l -49.64694,30.85798 46.08268,-8.12224 c 25.34925,-4.46606 46.5672,-8.38092 47.14915,-8.71236 1.32384,-0.75442 41.08661,-86.58584 40.32935,-87.05412 z m 326.05881,0.15639 c -0.52851,-0.327 -138.72385,23.52773 -140.15646,24.19329 -0.62808,0.29146 -40.18904,85.78077 -40.18904,86.84583 0,0.41409 1.37859,0.5767 3.08715,0.36433 4.23677,-0.52694 136.89845,-23.93525 137.60254,-24.28002 1.03085,-0.50561 40.28087,-86.73698 39.65581,-87.12352 z"
         style="fill:#ffffff;fill-opacity:1;stroke:none;stroke-width:38.98360062;stroke-linecap:square;stroke-linejoin:round;stroke-miterlimit:4;stroke-dasharray:none;stroke-opacity:1;paint-order:stroke fill markers" />
    </clipPath>
  </defs>
  <metadata
     id="metadata3958">
    <rdf:RDF>
      <cc:Work
         rdf:about="">
        <dc:format>image/svg+xml</dc:format>
        <dc:type
           rdf:resource="http://purl.org/dc/dcmitype/StillImage" />
        <dc:title>OpenStreetMap Logo, Simple version</dc:title>
        <cc:license
           rdf:resource="http://creativecommons.org/licenses/by-sa/4.0/" />
        <dc:date>2019</dc:date>
      </cc:Work>
      <cc:License
         rdf:about="http://creativecommons.org/licenses/by-sa/4.0/">
        <cc:permits
           rdf:resource="http://creativecommons.org/ns#Reproduction" />
        <cc:permits
           rdf:resource="http://creativecommons.org/ns#Distribution" />
        <cc:requires
           rdf:resource="http://creativecommons.org/ns#Notice" />
        <cc:requires
           rdf:resource="http://creativecommons.org/ns#Attribution" />
        <cc:permits
           rdf:resource="http://creativecommons.org/ns#DerivativeWorks" />
        <cc:requires
           rdf:resource="http://creativecommons.org/ns#ShareAlike" />
      </cc:License>
    </rdf:RDF>
  </metadata>
  <path
     transform="translate(20.444806,-64.719281)"
     d="m 15.761719,64.511719 c -4.970619,0.143426 -9.8336021,2.407792 -13.1484378,6.5625 -3.28049135,4.111681 -4.5276664,9.531115 -3.3710937,14.65625 0.41135399,1.822853 1.31364828,4.005906 2.2871094,5.523437 l 0.4023437,0.623047 -1.84179685,1.841797 -1.85156255,1.851562 -0.4863281,-0.24414 c -0.5543188,-0.279232 -0.8021677,-0.335868 -1.4863281,-0.337891 -0.3573313,-9.28e-4 -0.6355306,-0.02625 -0.9707031,0.08008 -0.3351726,0.106327 -0.6943,0.334796 -1.2480469,0.804688 -1.1074939,0.939784 -3.0204921,2.87488 -7.064453,6.929683 -4.004155,4.0149 -5.893526,5.88712 -6.800781,6.96094 -0.453628,0.53691 -0.669979,0.88252 -0.767579,1.20703 -0.0976,0.32452 -0.06739,0.59242 -0.06836,0.94532 -0.002,0.6592 0.05154,1.12023 0.425781,1.68945 0.374242,0.56922 1.04461,1.25439 2.298828,2.50586 1.054456,1.05215 1.685355,1.66154 2.166016,2.04297 0.480661,0.38143 0.827624,0.53475 1.240234,0.63867 a 0.21026884,0.21026884 0 0 0 0.002,0 c 0.649135,0.16349 1.596903,0.053 2.261718,-0.25 0.291116,-0.1327 0.64976,-0.4291 1.726563,-1.46289 1.0768029,-1.03379 2.8668655,-2.8121 5.9687499,-5.91016 4.02750915,-4.02253 5.9518001,-5.92742 6.8867187,-7.03125 0.4674594,-0.55191 0.6946535,-0.90934 0.8007813,-1.24414 0.1061278,-0.3348 0.081055,-0.61362 0.080078,-0.9707 -0.00182,-0.68463 -0.060905,-0.93063 -0.3398438,-1.48438 L 2.6191406,99.951172 4.4726562,98.099609 6.3125,96.257812 6.9355469,96.660156 c 3.0477328,1.95503 7.0101481,2.941679 10.6015621,2.642578 2.504557,-0.208587 4.37045,-0.727483 6.544922,-1.822265 1.82425,-0.918448 2.99433,-1.763432 4.427735,-3.19336 2.790614,-2.783872 4.459552,-6.113288 5.017578,-10.015625 0.164638,-1.153568 0.163161,-3.620035 -0.0039,-4.720703 -0.762561,-5.030704 -3.446466,-9.318103 -7.570313,-12.089843 -2.818807,-1.894598 -6.010792,-2.859576 -9.197266,-2.949219 -0.331759,-0.0093 -0.662649,-0.0095 -0.99414,0 z m -30.283203,54.281251 a 0.21026884,0.21026884 0 0 0 0.04883,0.008 z M -17.125,67.019531 c -0.0097,5.99e-4 -0.04246,0.0077 -0.04297,0.0078 -5.11e-4,1.34e-4 -0.09548,0.05447 -0.0957,0.05469 -1.56e-4,1.57e-4 -0.05852,0.114789 -0.05859,0.115235 -7.2e-5,4.46e-4 -0.004,0.03081 -0.0039,0.03906 2.29e-4,0.0165 9.92e-4,0.02407 0.002,0.03125 0.0019,0.01436 0.0053,0.02497 0.0078,0.03711 0.005,0.02428 0.01038,0.05239 0.01953,0.08984 0.01831,0.07492 0.04663,0.180917 0.08203,0.314453 0.07081,0.267073 0.173791,0.644878 0.298828,1.097657 0.250075,0.905557 0.587608,2.110677 0.929688,3.318359 0.34208,1.207682 0.688534,2.417618 0.955078,3.335938 0.133272,0.459159 0.24691,0.844555 0.330078,1.121093 0.04158,0.138269 0.07601,0.250056 0.101563,0.330078 0.01278,0.04001 0.02226,0.07203 0.03125,0.09766 0.0045,0.01281 0.0092,0.02392 0.01367,0.03516 0.0045,0.01123 0.0036,0.01504 0.02539,0.04883 1.1e-4,1.71e-4 0.02131,0.03106 0.02149,0.03125 1.76e-4,1.9e-4 0.01255,0.0113 0.01758,0.01563 0.01006,0.0087 0.01733,0.01357 0.02344,0.01758 0.01221,0.008 0.02032,0.01208 0.02734,0.01563 0.01406,0.0071 0.02492,0.01264 0.03711,0.01758 0.02437,0.0099 0.05395,0.01872 0.08984,0.03125 0.07179,0.02505 0.17154,0.05914 0.298828,0.09961 0.254576,0.08095 0.61742,0.192384 1.0625,0.326172 0.890159,0.267575 2.108319,0.623768 3.4433595,1.007812 1.334435,0.383868 2.5552806,0.735224 3.4453125,0.990234 0.445016,0.127506 0.8069683,0.230575 1.0605469,0.302735 0.1267893,0.03608 0.2257716,0.06456 0.2949219,0.08398 0.034575,0.0097 0.06263,0.01812 0.082031,0.02344 0.018738,0.0051 0.048781,0.01095 0.052734,0.01172 0.00365,-0.0012 0.1951073,-0.07202 0.1953125,-0.07227 2.069e-4,-2.47e-4 0.044801,-0.0893 0.044922,-0.08984 1.21e-4,-5.4e-4 0.00352,-0.03005 0.00391,-0.03906 3.889e-4,-0.009 2.429e-4,-0.01589 0,-0.02148 -9.714e-4,-0.02237 -0.00169,-0.03374 -0.00391,-0.04687 -0.00443,-0.02628 -0.010986,-0.05455 -0.019531,-0.0918 -0.017089,-0.07449 -0.043487,-0.179037 -0.078125,-0.3125 -0.069277,-0.266925 -0.1713254,-0.647026 -0.296875,-1.103515 -0.2510992,-0.912979 -0.5951222,-2.13092 -0.9433594,-3.353516 -0.3482371,-1.222596 -0.7012296,-2.448581 -0.9746093,-3.376953 -0.1366899,-0.464186 -0.253835,-0.854531 -0.3398438,-1.132813 -0.043004,-0.13914 -0.078526,-0.249746 -0.1054688,-0.330078 -0.013472,-0.04017 -0.025038,-0.07309 -0.035156,-0.09961 -0.00506,-0.01326 -0.00967,-0.02402 -0.015625,-0.03711 -0.00298,-0.0065 -0.00452,-0.01399 -0.00977,-0.02344 -0.00262,-0.0047 -0.00702,-0.01054 -0.011719,-0.01758 -0.00469,-0.007 -0.021082,-0.02691 -0.021484,-0.02734 -3.589e-4,-3.86e-4 -0.025209,-0.02354 -0.033203,-0.0293 -0.00799,-0.0058 -0.014384,-0.0087 -0.019531,-0.01172 -0.010296,-0.006 -0.016725,-0.01052 -0.023437,-0.01367 -0.013425,-0.0063 -0.024055,-0.01056 -0.037109,-0.01563 -0.026109,-0.01014 -0.058294,-0.0218 -0.097656,-0.03516 -0.078724,-0.02671 -0.1872399,-0.0608 -0.3242188,-0.103515 -0.2739578,-0.08542 -0.6584167,-0.201757 -1.1171875,-0.337891 -0.9175415,-0.272268 -2.1323325,-0.624594 -3.3457035,-0.972656 -1.21337,-0.348062 -2.426726,-0.692446 -3.339843,-0.945313 -0.456559,-0.126433 -0.836685,-0.229958 -1.107422,-0.300781 -0.135369,-0.03541 -0.243078,-0.06208 -0.320313,-0.08008 -0.03862,-0.009 -0.06906,-0.01669 -0.0957,-0.02148 -0.01332,-0.0024 -0.02558,-0.0044 -0.04297,-0.0059 -0.0087,-7.54e-4 -0.01766,-0.0012 -0.03711,0 z m 18.9003906,0.455078 c -0.025524,0.003 -0.04324,0.0087 -0.056641,0.01367 0.018043,-0.0068 -0.032198,0.01152 -0.091797,0.0293 -0.059599,0.01778 -0.1448747,0.04159 -0.25,0.07227 -0.2102506,0.06136 -0.50513247,0.14688 -0.86328122,0.25 -0.71629751,0.206239 -1.68536208,0.482723 -2.73242188,0.78125 l -3.8066406,1.085937 a 0.21026884,0.21026884 0 0 0 -0.1445313,0.259766 l 0.1796875,0.632812 a 0.21026884,0.21026884 0 0 0 0.00195,0.002 c 0.099532,0.347323 0.620233,2.17621 1.1582031,4.0625 0.4382305,1.536524 0.7209281,2.480054 0.9003906,2.97461 0.044866,0.123639 0.083223,0.220083 0.1191406,0.294922 0.035918,0.07484 0.035211,0.128534 0.1582031,0.201172 0.030748,0.01816 0.078952,0.03589 0.1367188,0.03125 0.057766,-0.0046 0.1122562,-0.03636 0.1425781,-0.06641 0.060644,-0.0601 0.063717,-0.102283 0.072266,-0.138671 0.017097,-0.07278 0.019531,-0.139414 0.019531,-0.228516 0,0.01321 0.00521,-0.04919 0.019531,-0.123047 0.014318,-0.07385 0.03587,-0.172698 0.0625,-0.285156 0.05326,-0.224916 0.1275992,-0.509543 0.2089844,-0.796875 0.874211,-3.08629 2.24814471,-5.594408 4.3554688,-7.945313 0.2023363,-0.225726 0.3710617,-0.424417 0.4824218,-0.568359 0.05568,-0.07197 0.09603,-0.127548 0.1269532,-0.181641 0.015462,-0.02705 0.03778,-0.03246 0.042969,-0.128906 6.486e-4,-0.01206 -0.00185,-0.04417 -0.00195,-0.04492 -1.064e-4,-7.48e-4 -0.017315,-0.05801 -0.017578,-0.05859 -2.635e-4,-5.81e-4 -0.0445,-0.06404 -0.044922,-0.06445 -4.221e-4,-4.12e-4 -0.067777,-0.04468 -0.068359,-0.04492 -5.823e-4,-2.4e-4 -0.063709,-0.01556 -0.064453,-0.01563 -7.442e-4,-6.7e-5 -0.03216,-0.0015 -0.044922,0 z m 14.3789064,0.351563 c 1.013945,-0.0099 2.026162,0.04975 2.648437,0.175781 1.854371,0.375552 3.842983,1.183022 5.25,2.128906 5.939856,3.993137 8.008302,11.533011 4.927735,17.958985 -1.929679,4.025245 -5.784145,6.966338 -10.19336,7.773437 -1.130072,0.20685 -3.476617,0.249447 -4.568359,0.08398 C 10.838652,95.43504 7.7854126,93.763812 5.578125,91.216797 1.2694953,86.245002 0.92580801,79.088977 4.7363281,73.699219 c 0.6710738,-0.949195 2.3288333,-2.608013 3.2910157,-3.291016 1.5915355,-1.129746 3.4289972,-1.925842 5.4335942,-2.353515 0.653174,-0.139354 1.679629,-0.218594 2.693359,-0.228516 z m 0.207031,1.601562 c -0.166401,0.0052 -0.333942,0.01536 -0.5,0.02734 a 0.21026884,0.21026884 0 0 0 -0.175781,0.125 c -0.05834,0.132225 -0.121494,0.273698 -0.173828,0.439453 a 0.21026884,0.21026884 0 0 0 0.261719,0.263672 c 0.218528,-0.06504 0.459847,-0.151217 0.658203,-0.220703 0.09918,-0.03474 0.187936,-0.0652 0.253906,-0.08594 0.06597,-0.02074 0.136262,-0.02539 0.08398,-0.02539 1.528674,0 2.675781,1.318482 2.675781,2.857422 0,1.513204 -1.149458,2.802734 -2.689453,2.802734 -0.618224,0 -1.370927,-0.226348 -1.972656,-0.830078 -0.600545,-0.602555 -1.041015,-1.580513 -1.041015,-3.048828 0,-0.418802 0.04982,-1.064531 0.226562,-1.748047 a 0.21026884,0.21026884 0 0 0 -0.248047,-0.257813 c -1.114954,0.244407 -2.196303,0.644174 -3.203125,1.185547 a 0.21026884,0.21026884 0 0 0 -0.05469,0.328125 c 0.419705,0.450215 0.671875,1.008088 0.671875,1.607422 0,0.837952 -0.345779,1.53566 -0.894532,2.011719 -0.5503548,0.477454 -1.3010317,0.738281 -2.1191402,0.738281 -0.769016,0 -1.3604049,-0.215973 -1.9667969,-0.457031 a 0.21026884,0.21026884 0 0 0 -0.2558594,0.08398 c -1.2611783,1.996728 -1.944961,4.35914 -1.9453125,6.726563 0.00413,2.197257 0.5953955,4.391217 1.6933594,6.289062 a 0.21026884,0.21026884 0 0 0 0.3496094,0.02148 c 0.4864575,-0.637963 1.2172544,-1.056641 2.0898437,-1.056641 0.6182259,0 1.3730339,0.226492 1.9746095,0.830078 0.600545,0.602551 1.041015,1.580513 1.041015,3.048828 0,0.450446 -0.04724,1.147454 -0.255859,1.88086 a 0.21026884,0.21026884 0 0 0 0.111328,0.246094 c 1.295039,0.628601 2.699023,1.02746 4.128907,1.173828 a 0.21026884,0.21026884 0 0 0 0.171874,-0.0625 c 0.168257,-0.171222 0.40644,-0.303926 0.679688,-0.378907 a 0.21026884,0.21026884 0 0 0 -0.05469,-0.414062 h -0.287109 v -1.835938 h 0.06641 a 0.21026884,0.21026884 0 0 0 0.06055,-0.0098 c 0.04929,-0.01475 0.04167,-0.01545 0.03516,-0.01367 -0.0035,9.53e-4 0.01935,-0.0011 0.0293,-0.002 v 0.002 c 0.0017,-4.24e-4 0.0041,-0.0015 0.0059,-0.002 0.0088,-5.9e-4 0.0024,0 0.01953,0 v -0.0039 c 0.102627,-0.02551 0.22562,-0.05885 0.341797,-0.07422 0.0038,-9.03e-4 0.008,-0.001 0.01172,-0.002 v -0.002 c 0.413509,-0.09936 0.862038,-0.204319 1.207031,-0.400391 0.16542,-0.09401 0.312749,-0.200014 0.417969,-0.351563 0.105219,-0.151549 0.15625,-0.341359 0.15625,-0.560546 0,-0.349054 -0.17314,-0.62139 -0.416016,-0.796876 -0.254619,-0.183964 -0.589914,-0.277343 -0.917969,-0.277343 -0.139146,0 -0.347255,0.01842 -0.546875,0.04102 -0.09981,0.0113 -0.197356,0.02365 -0.279297,0.03711 -0.07883,0.01295 -0.134125,0.02115 -0.199218,0.04492 h -0.002 c -0.002,7.24e-4 -0.0039,0.0012 -0.0059,0.002 l -0.0625,0.02148 A 0.21026884,0.21026884 0 0 0 15.375,89.544922 v 0.783203 h -1.289062 -0.105469 v -1.955078 l 0.07813,-0.02148 c 0.08844,-0.0247 0.135292,-0.04636 0.363281,-0.125 0.0011,-3.78e-4 8.47e-4,3.82e-4 0.002,0 a 0.21026884,0.21026884 0 0 0 0.02148,-0.0078 0.21026884,0.21026884 0 0 0 0.002,0 c 0.859059,-0.279921 1.355378,-0.390625 2.017578,-0.390625 1.86014,0 2.90625,1.185958 2.90625,2.472656 0,0.873742 -0.43329,1.458358 -0.949219,1.824219 -0.443701,0.314643 -0.90205,0.440058 -1.292969,0.556641 a 0.21026884,0.21026884 0 0 0 -0.15039,0.201171 v 0.646485 h -0.330078 a 0.21026884,0.21026884 0 0 0 -0.05664,0.414062 c 0.278711,0.07656 0.526573,0.212236 0.697265,0.390625 a 0.21026884,0.21026884 0 0 0 0.171876,0.06445 c 1.263549,-0.113911 2.509184,-0.424694 3.679687,-0.917969 a 0.21026884,0.21026884 0 0 0 0.128906,-0.19336 v -0.773437 l 3.335938,-5.308594 h 1.703125 0.107422 v 1.373047 a 0.21026884,0.21026884 0 0 0 0.388672,0.113281 c 1.274395,-1.996633 1.969023,-4.365714 1.976562,-6.740234 -0.0038,-2.409526 -0.716718,-4.814826 -2.023438,-6.832031 a 0.21026884,0.21026884 0 0 0 -0.292968,-0.05859 c -0.476106,0.321167 -1.086876,0.537109 -1.875,0.537109 -1.023601,0 -1.722467,-0.272463 -2.84961,-0.697265 l -0.101562,-0.03906 0.501953,-1.285156 0.107422,0.05273 0.07031,-0.146484 c -0.01582,0.05549 -0.04302,0.154283 -0.04297,0.154297 1.09e-4,3.1e-5 -0.0065,-9.13e-4 -0.0098,-0.002 0.0088,0.0036 0.02291,0.0093 0.03906,0.01563 0.0099,0.0039 0.01466,0.0051 0.02148,0.0078 0.0039,0.0015 0.0082,0.0044 0.01172,0.0059 0.001,6.05e-4 7.45e-4,0.0013 0.002,0.002 8.7e-4,4.68e-4 0.0039,0.002 0.0039,0.002 0.0046,0.0024 0.01159,0.0058 0.01172,0.0059 1.67e-4,7.9e-5 0.02917,0.01168 0.0293,0.01172 0.481136,0.201854 1.265827,0.542969 2.138672,0.542969 0.479228,0 0.821017,-0.107712 1.072265,-0.265625 a 0.21026884,0.21026884 0 0 0 0.04687,-0.316407 c -0.6694,-0.760868 -1.431987,-1.440163 -2.263672,-2.015625 a 0.21026884,0.21026884 0 0 0 -0.248047,0.0078 c -0.03809,0.02933 -0.08418,0.06243 -0.130859,0.09961 v -0.002 l -0.05664,0.04492 -0.742187,-0.410156 V 71.029297 A 0.21026884,0.21026884 0 0 0 22.087891,70.84375 c -1.758216,-0.923255 -3.738429,-1.414265 -5.720703,-1.416016 a 0.21026884,0.21026884 0 0 0 -0.0059,0 z m 0.421875,1.894532 c -0.145745,0 -0.433606,0.02784 -0.740234,0.18164 -0.295783,0.148356 -0.569367,0.431948 -0.771485,0.861328 a 0.21026884,0.21026884 0 0 0 -0.01953,0.111328 c 0.129919,1.276636 0.912337,1.765626 1.490235,1.765626 0.332283,0 0.652895,-0.12447 0.880859,-0.373047 0.227964,-0.248578 0.357422,-0.610686 0.357422,-1.060547 0,-0.390853 -0.123547,-0.76522 -0.335938,-1.041016 -0.207681,-0.26968 -0.507608,-0.445312 -0.861328,-0.445312 z m -7.6562499,0.517578 a 0.21026884,0.21026884 0 0 0 -0.1171875,0.04297 c -0.7262939,0.541206 -1.3934357,1.162666 -1.9863281,1.84961 a 0.21026884,0.21026884 0 0 0 0.095703,0.33789 c 0.3375358,0.104043 0.6909556,0.185547 1.0429688,0.185547 0.3746701,0 0.7618152,-0.110521 1.0566406,-0.339843 0.2865487,-0.222889 0.4941406,-0.572014 0.4941406,-1.054688 0,-0.414243 -0.1532781,-0.737676 -0.4101562,-0.953125 -0.022346,-0.01875 -0.027362,-0.01798 -0.039063,-0.02344 -0.017382,-0.01354 -0.014053,-0.01044 -0.017578,-0.01172 a 0.21026884,0.21026884 0 0 0 -0.1191407,-0.0332 z M 22.431641,73.25 c 0.0014,7.27e-4 0.01197,0.008 0.01172,0.0078 -6.3e-5,-3.9e-5 0.01176,0.0078 0.01172,0.0078 0,0 -0.05961,0.08164 -0.09375,0.128906 z m 0.03906,0.02734 c 0,0 0.0059,0.0039 0.0059,0.0039 0,0 0.03125,0.03906 0.03125,0.03906 0,0 -0.138309,0.08991 -0.162109,0.105469 l 0.0078,-0.01563 c 0.0312,-0.0353 0.117187,-0.132812 0.117187,-0.132812 z m -0.134765,0.171875 c 0.0059,0.02407 0.04687,0.189453 0.04687,0.189453 0,0 -0.0625,0.0059 -0.0625,0.0059 0,0 -0.0078,0 -0.0078,0 0,0 0.01388,-0.144383 0.01758,-0.183593 z M 8.3183594,76.966797 c 1.5764794,0 2.8515626,1.231348 2.8515626,2.751953 0,0.646355 -0.182966,1.169393 -0.591797,1.712891 -0.411597,0.547175 -1.0479103,1.130861 -1.9726562,1.955078 l -0.6875,0.609375 a 0.21026884,0.21026884 0 0 0 0.1386718,0.36914 H 9.5898438 A 0.21026884,0.21026884 0 0 0 9.8007812,84.154297 V 83.064453 H 11.15625 v 2.605469 H 5.2890625 v -1.248047 l 0.037109,-0.0332 c 0.6890456,-0.567911 2.6074986,-2.228115 3.7167969,-3.3125 0.2763065,-0.2701 0.4486299,-0.484609 0.5507812,-0.708984 0.1021513,-0.224376 0.125,-0.446744 0.125,-0.689454 0,-0.358391 -0.1169482,-0.698488 -0.3652344,-0.943359 -0.2482862,-0.244871 -0.6168221,-0.382813 -1.0761718,-0.382813 -0.2024302,0 -0.5346152,0.03849 -0.8222657,0.179688 -0.1314239,0.06451 -0.256852,0.142151 -0.3515625,0.265625 -0.09471,0.123474 -0.1445312,0.286194 -0.1445312,0.46875 0,0.09574 0.00789,0.162614 0.027344,0.257813 l -0.00195,-0.002 0.025391,0.13086 H 5.546875 v -1.300782 l 0.025391,-0.03125 c 1.0694869,-1.276291 2.319668,-1.353515 2.7460938,-1.353515 z m 16.4960936,0.002 c 1.502187,10e-7 2.755859,1.065276 2.755859,2.470703 0,0.49261 -0.231083,1.151479 -0.791015,1.712891 a 0.21026884,0.21026884 0 0 0 0.0098,0.30664 c 0.626723,0.547189 0.931641,1.249393 0.931641,1.804688 0,1.186622 -0.994795,2.591797 -2.90625,2.591797 -1.898712,0 -2.90625,-1.402238 -2.90625,-2.578125 0,-0.668657 0.364657,-1.337075 0.933594,-1.826172 a 0.21026884,0.21026884 0 0 0 0.01367,-0.306641 c -0.635656,-0.651244 -0.796875,-1.390321 -0.796875,-1.705078 0,-1.392055 1.239843,-2.470703 2.755859,-2.470703 z m -11.105469,0.185547 h 5.892578 v 1.027344 l -2.654296,7.486328 h -1.548828 l 2.53125,-6.886719 a 0.21026884,0.21026884 0 0 0 -0.197266,-0.283203 h -2.431641 a 0.21026884,0.21026884 0 0 0 -0.210937,0.210937 v 0.94336 h -1.38086 v -2.390625 z m -28.125,1.09375 c -0.0091,2.9e-4 -0.04052,0.0057 -0.04101,0.0059 -4.96e-4,1.11e-4 -0.10332,0.05644 -0.103516,0.05664 -2.25e-4,2.25e-4 -0.02828,0.03463 -0.0332,0.04297 -0.0049,0.0083 -0.0076,0.01313 -0.0098,0.01758 -0.0043,0.0089 -0.0056,0.01405 -0.0078,0.01953 -0.0044,0.01096 -0.0096,0.02131 -0.01367,0.0332 -0.0082,0.02379 -0.01695,0.05484 -0.0293,0.09375 -0.0247,0.07782 -0.05958,0.187001 -0.101562,0.326172 -0.08397,0.278342 -0.19993,0.672134 -0.337891,1.142578 -0.275922,0.940888 -0.636939,2.189573 -0.996094,3.4375 -0.359155,1.247927 -0.715929,2.494635 -0.980468,3.431641 -0.13227,0.468503 -0.240988,0.859298 -0.316407,1.134765 -0.03771,0.137734 -0.06824,0.247922 -0.08789,0.324219 -0.0098,0.03815 -0.01615,0.06629 -0.02148,0.08984 -0.0027,0.01178 -0.0057,0.02242 -0.0078,0.03516 -0.0011,0.0064 -0.003,0.01248 -0.0039,0.02734 -4.74e-4,0.0074 0.0019,0.0367 0.002,0.03711 4.2e-5,4.05e-4 0.07799,0.142475 0.07813,0.142578 3.7e-5,3e-5 0.04091,0.02729 0.04102,0.02734 1.04e-4,4.9e-5 0.01107,0.0029 0.01367,0.0039 0.0052,0.0021 0.0076,0.0031 0.0098,0.0039 0.0044,0.0015 0.0066,0.0029 0.0098,0.0039 0.0064,0.002 0.01236,0.0031 0.02148,0.0059 0.01824,0.0056 0.04484,0.01359 0.07813,0.02344 0.06657,0.0197 0.162751,0.04772 0.287109,0.08398 0.248715,0.07252 0.607502,0.177063 1.048828,0.304688 0.882654,0.255249 2.097166,0.604661 3.431641,0.988281 1.334876,0.383741 2.5703655,0.735447 3.486328,0.990234 0.4579812,0.127394 0.8362112,0.230434 1.1074219,0.302735 0.1356053,0.03615 0.2443825,0.06419 0.3242187,0.08398 0.039918,0.0099 0.073172,0.01764 0.099609,0.02344 0.026438,0.0058 0.03073,0.01139 0.080078,0.01367 0.067879,0.0034 0.1585951,-0.02933 0.2148438,-0.07813 0.056249,-0.04879 0.090826,-0.103251 0.1269531,-0.171875 0.072254,-0.137246 0.1477125,-0.339175 0.2597656,-0.683593 0.2241062,-0.688838 0.5864246,-1.937288 1.234375,-4.207032 0.3925516,-1.37509 0.7441666,-2.629775 0.9960938,-3.542968 0.1259636,-0.456597 0.2266314,-0.828417 0.2949218,-1.087891 0.034145,-0.129737 0.060824,-0.230768 0.078125,-0.302734 0.00865,-0.03598 0.014835,-0.06414 0.019531,-0.08789 0.00235,-0.01187 0.00407,-0.02221 0.00586,-0.03711 8.971e-4,-0.0074 0.00212,-0.01554 0.00195,-0.0332 -8.39e-5,-0.0088 -0.00382,-0.04059 -0.00391,-0.04102 -4.24e-5,-2.11e-4 -0.01361,-0.04283 -0.013672,-0.04297 -6.2e-5,-1.42e-4 -0.052653,-0.07219 -0.052734,-0.07227 -4.011e-4,-3.64e-4 -0.02212,-0.01692 -0.029297,-0.02148 -0.00718,-0.0046 -0.012929,-0.0093 -0.017578,-0.01172 -0.0093,-0.0049 -0.015138,-0.007 -0.021484,-0.0098 -0.012693,-0.0055 -0.024006,-0.0089 -0.037109,-0.01367 -0.026206,-0.0096 -0.059203,-0.02202 -0.099609,-0.03516 -0.080813,-0.02628 -0.1930194,-0.06099 -0.3339844,-0.103516 -0.28193,-0.08505 -0.6767002,-0.199744 -1.1484375,-0.335937 C -6.8575372,80.31355 -8.1070522,79.95862 -9.3535156,79.609375 -10.599979,79.26013 -11.844311,78.91659 -12.78125,78.662109 c -0.46847,-0.12724 -0.859599,-0.233101 -1.136719,-0.304687 -0.13856,-0.03579 -0.247801,-0.06178 -0.326172,-0.08008 -0.03918,-0.0091 -0.06956,-0.0166 -0.0957,-0.02148 -0.01307,-0.0024 -0.02484,-0.0042 -0.04101,-0.0059 -0.0081,-8.4e-4 -0.01693,-0.0025 -0.03516,-0.002 z m 39.230469,0.0625 c -0.365596,0 -0.695247,0.116926 -0.933594,0.316406 -0.233606,0.195524 -0.384765,0.483638 -0.384765,0.826172 0,0.685085 0.625827,1.234375 1.318359,1.234375 0.678036,0 1.320313,-0.523999 1.320313,-1.234375 0,-0.356075 -0.157168,-0.642817 -0.390625,-0.833984 -0.24011,-0.196611 -0.569781,-0.308594 -0.929688,-0.308594 z m 0,3.746094 c -0.990405,0 -1.46875,0.678277 -1.46875,1.248047 0,0.642987 0.624291,1.234375 1.46875,1.234374 0.84399,0 1.46875,-0.579917 1.46875,-1.234374 0,-0.59767 -0.518476,-1.248047 -1.46875,-1.248047 z m -28.6464842,2.072265 a 0.21026884,0.21026884 0 0 0 -0.2011719,0.152344 l -0.9492188,3.314453 a 0.21026884,0.21026884 0 0 0 -0.00195,0 c -0.2605299,0.911452 -0.5012614,1.75481 -0.6816406,2.378906 -0.09019,0.312048 -0.1649427,0.570445 -0.21875,0.753907 -0.026904,0.09173 -0.048818,0.16473 -0.064453,0.216796 -0.015635,0.05207 -0.032371,0.09854 -0.025391,0.08008 -0.014382,0.03795 -0.028918,0.07882 -0.025391,0.142578 0.00353,0.06376 0.05277,0.160983 0.1230469,0.201172 0.1405529,0.08038 0.2124326,0.03187 0.2929687,0.0078 0.085231,-0.02547 0.8917122,-0.253236 1.7636719,-0.5 0.4365403,-0.123536 0.8371045,-0.239881 1.1308594,-0.326172 0.1468774,-0.04314 0.2678219,-0.07908 0.3535156,-0.105469 0.042847,-0.0132 0.07561,-0.02262 0.1015625,-0.03125 0.012976,-0.0043 0.024184,-0.0096 0.035156,-0.01367 0.00549,-0.0021 0.011349,-0.0042 0.019531,-0.0078 0.00409,-0.0018 0.00803,-0.0037 0.015625,-0.0078 0.0038,-0.002 0.01541,-0.0077 0.015625,-0.0078 2.153e-4,-1.37e-4 0.025262,-0.01942 0.025391,-0.01953 1.292e-4,-1.13e-4 0.042864,-0.05256 0.042969,-0.05273 1.051e-4,-1.79e-4 0.017497,-0.04077 0.017578,-0.04102 1.622e-4,-4.88e-4 0.010668,-0.03715 0.011719,-0.04883 0.0021,-0.02336 9.679e-4,-0.03485 0,-0.04492 -0.00194,-0.02015 -0.00494,-0.03168 -0.00781,-0.04492 -0.00574,-0.02649 -0.01353,-0.0554 -0.023437,-0.08984 -0.019814,-0.06889 -0.048834,-0.160799 -0.085938,-0.273437 C -2.2421762,89.536443 -2.3485819,89.231892 -2.46875,88.900391 -2.9139815,87.67212 -3.2904187,86.257536 -3.5019531,85.023438 L -3.625,84.304688 a 0.21026884,0.21026884 0 0 0 -0.2070312,-0.175782 z m 11.9316406,4.445313 c -0.3225505,0 -0.6304067,0.11988 -0.8535156,0.355469 -0.223109,0.235588 -0.3570976,0.577555 -0.3730469,1 a 0.21026884,0.21026884 0 0 0 0.050781,0.144531 c 0.4048916,0.472627 0.8461685,0.913849 1.3164063,1.320312 a 0.21026884,0.21026884 0 0 0 0.1835937,0.04687 c 0.1080549,-0.02497 0.2388678,-0.05965 0.3769531,-0.128906 0.296297,-0.148612 0.5693536,-0.431991 0.7714844,-0.863281 a 0.21026884,0.21026884 0 0 0 0.019531,-0.111328 C 9.4610819,89.062954 8.677269,88.574219 8.0996094,88.574219 Z m 16.7031246,0.658203 a 0.21026884,0.21026884 0 0 0 -0.173828,0.101562 l -1.667968,2.716797 a 0.21026884,0.21026884 0 0 0 0.179687,0.320313 h 0.0059 a 0.21026884,0.21026884 0 0 0 0.119141,-0.03711 c 0.602239,-0.409837 1.167456,-0.873186 1.689453,-1.382812 a 0.21026884,0.21026884 0 0 0 0.06445,-0.150391 v -1.357422 a 0.21026884,0.21026884 0 0 0 -0.216797,-0.210937 z m -41.804687,0.572266 c -0.07052,-0.0015 -0.144449,-0.0047 -0.232422,0.06836 -0.04399,0.03652 -0.07657,0.09544 -0.08594,0.144531 -0.0094,0.04909 -0.0055,0.08579 0,0.113281 0.05347,0.265138 0.246874,0.967593 0.513671,1.910157 0.266797,0.942563 0.604989,2.110755 0.941407,3.251953 0.336417,1.141198 0.670218,2.255813 0.927734,3.091797 0.128758,0.417991 0.238696,0.765209 0.320312,1.013672 0.04081,0.124231 0.07506,0.22435 0.101563,0.296874 0.01325,0.03626 0.02413,0.06619 0.03516,0.0918 0.0055,0.01281 0.0099,0.0228 0.01758,0.03711 0.0038,0.0072 0.0083,0.0165 0.01563,0.02734 0.0037,0.0054 0.009,0.01171 0.01563,0.01953 0.0066,0.0078 0.02884,0.02893 0.0293,0.0293 0.04854,0.03934 0.09904,0.07323 0.146485,0.101559 0.02372,0.0142 0.0464,0.0277 0.07226,0.0391 0.02586,0.0114 0.04496,0.0273 0.117188,0.0273 1.16e-4,0 0.05453,-0.008 0.05469,-0.008 1.59e-4,-5e-5 0.02714,-0.01 0.02734,-0.01 4.01e-4,-1.7e-4 0.02138,-0.0101 0.02734,-0.0137 0.01193,-0.007 0.01819,-0.0117 0.02344,-0.0156 0.0105,-0.008 0.01727,-0.0126 0.02539,-0.0195 0.01625,-0.01387 0.03523,-0.03118 0.05859,-0.05273 0.04673,-0.0431 0.111492,-0.10489 0.193359,-0.183594 0.163734,-0.157409 0.395788,-0.382796 0.679688,-0.662109 0.567799,-0.558627 1.341756,-1.329247 2.1875,-2.175782 0.8446961,-0.845481 1.6520647,-1.641503 2.2714839,-2.242187 0.3097096,-0.300342 0.5731139,-0.552382 0.7695312,-0.736328 0.1964174,-0.183946 0.349541,-0.31423 0.3554688,-0.31836 0.1565142,-0.109036 0.2642498,-0.183381 0.3378906,-0.314453 0.073641,-0.131071 0.059238,-0.28547 0.025391,-0.412109 -0.021562,-0.08061 -0.100261,-0.216098 -0.2304687,-0.296875 -0.1302078,-0.08078 -0.3131443,-0.154312 -0.640625,-0.263672 -0.6549615,-0.218721 -1.8840853,-0.572591 -4.2675784,-1.253906 -1.708532,-0.488365 -2.82954,-0.804729 -3.5625,-1.001953 -0.732959,-0.197225 -1.057754,-0.278665 -1.271484,-0.283203 z m 46.054687,7.630859 c -0.116134,0.01145 -0.185591,0.05667 -0.287109,0.117187 -0.101518,0.06052 -0.221149,0.141858 -0.361328,0.248047 -2.51416,1.904501 -5.719576,3.309039 -8.695313,3.812499 l -0.351562,0.0605 a 0.21026884,0.21026884 0 0 0 -0.167969,0.26172 l 0.09766,0.35742 c 0.02782,0.10159 0.05823,0.20014 0.08398,0.2793 0.01288,0.0396 0.02428,0.0742 0.03516,0.10351 0.01088,0.0293 0.01366,0.0436 0.03906,0.0859 1.11e-4,1.8e-4 0.1324,0.0976 0.132813,0.0977 4.13e-4,9e-5 0.0373,0.006 0.04687,0.006 0.01914,3e-4 0.0255,-0.001 0.0332,-0.002 0.0154,-0.002 0.02652,-0.003 0.03906,-0.006 0.02508,-0.005 0.055,-0.0122 0.09375,-0.0215 0.0775,-0.0186 0.187399,-0.0477 0.326172,-0.084 0.277544,-0.0726 0.671101,-0.17787 1.142578,-0.30664 0.942953,-0.25754 2.196869,-0.60672 3.453125,-0.95898 1.256255,-0.35226 2.513929,-0.7075 3.46289,-0.98047 0.474481,-0.13649 0.872315,-0.25169 1.154297,-0.33594 0.140991,-0.0421 0.252225,-0.0761 0.332031,-0.10156 0.0399,-0.0127 0.07238,-0.0242 0.09766,-0.0332 0.01264,-0.005 0.02291,-0.009 0.03516,-0.0137 0.0061,-0.003 0.01183,-0.005 0.02148,-0.01 0.0048,-0.002 0.01132,-0.007 0.01953,-0.0117 0.0082,-0.0052 0.03681,-0.029 0.03711,-0.0293 6.6e-5,-6.6e-5 0.04487,-0.06629 0.04492,-0.06641 5.1e-5,-1.2e-4 0.01364,-0.04084 0.01367,-0.04102 7.1e-5,-3.45e-4 0.0037,-0.03039 0.0039,-0.03906 3.19e-4,-0.01734 -0.0012,-0.0242 -0.002,-0.03125 -0.0016,-0.0141 -0.004,-0.02336 -0.0059,-0.0332 -0.0038,-0.01968 -0.0073,-0.04149 -0.01367,-0.06836 -0.01277,-0.05374 -0.03167,-0.127021 -0.05469,-0.214844 -0.04604,-0.175645 -0.109478,-0.410459 -0.177734,-0.65625 -0.136514,-0.49158 -0.288122,-1.016743 -0.355469,-1.216796 -0.01803,-0.0534 -0.0695,-0.11683 -0.126953,-0.144532 -0.05745,-0.0277 -0.107871,-0.02724 -0.146485,-0.02344 z M 8.2988281,100.97266 c -0.010092,8.4e-4 -0.044422,0.008 -0.044922,0.008 -5.002e-4,1.5e-4 -0.095489,0.0603 -0.095703,0.0606 -4.288e-4,4.6e-4 -0.0168,0.0204 -0.021484,0.0273 -0.00468,0.007 -0.00709,0.0128 -0.00977,0.0176 -0.00535,0.01 -0.00864,0.0148 -0.011719,0.0215 -0.00616,0.0134 -0.012382,0.0255 -0.017578,0.0391 -0.010392,0.0271 -0.021486,0.0608 -0.035156,0.10157 -0.027341,0.0816 -0.062159,0.19313 -0.1054688,0.33398 -0.086619,0.2817 -0.204657,0.67695 -0.3417968,1.14649 -0.2742798,0.93907 -0.6292586,2.17897 -0.9785156,3.41796 -0.3492571,1.239 -0.6921428,2.47617 -0.9453126,3.40821 -0.1265848,0.46602 -0.2300412,0.85627 -0.3007812,1.13281 -0.03537,0.13827 -0.062182,0.24713 -0.080078,0.32617 -0.00895,0.0395 -0.01678,0.0703 -0.021484,0.0977 -0.00235,0.0137 -0.00449,0.0272 -0.00586,0.0449 -6.85e-4,0.009 -0.00138,0.0178 0,0.0371 6.896e-4,0.01 0.00767,0.0405 0.00781,0.041 1.446e-4,5.3e-4 0.050551,0.0915 0.050781,0.0918 2.46e-4,2.6e-4 0.030783,0.0278 0.039063,0.0332 0.00828,0.005 0.012852,0.007 0.017578,0.01 0.00945,0.005 0.015767,0.007 0.021484,0.01 0.011435,0.005 0.021862,0.009 0.033203,0.0137 0.022683,0.008 0.050321,0.0175 0.085937,0.0293 0.071233,0.0235 0.1710897,0.0561 0.2988281,0.0957 0.2554768,0.0792 0.6194294,0.18898 1.0664063,0.32226 0.8939537,0.26657 2.1189836,0.62455 3.4589841,1.01172 1.339771,0.38711 2.570448,0.7413 3.47461,0.99805 0.45208,0.12838 0.822088,0.23197 1.083984,0.30469 0.130948,0.0363 0.234632,0.0642 0.308594,0.084 0.03698,0.01 0.06717,0.0178 0.08984,0.0234 0.01134,0.003 0.02011,0.006 0.0293,0.008 0.0092,0.002 0.0097,0.003 0.04297,0.006 0.104943,0.008 0.167506,-0.0407 0.208984,-0.0781 0.04148,-0.0374 0.07109,-0.076 0.09766,-0.11915 0.05314,-0.0863 0.09518,-0.19046 0.126953,-0.30664 0.04937,-0.18067 0.697393,-2.45461 1.43164,-5.01757 0.585286,-2.04221 0.916367,-3.20897 1.083985,-3.88086 0.08381,-0.33595 0.127544,-0.54643 0.142578,-0.69727 0.0075,-0.0754 0.0099,-0.13592 -0.0059,-0.20508 -0.01571,-0.0691 -0.0735,-0.16011 -0.152344,-0.19726 -0.05453,-0.0257 -0.106205,-0.0421 -0.199219,-0.0723 -0.09301,-0.0302 -0.216221,-0.068 -0.365234,-0.11328 -0.298027,-0.0905 -0.701197,-0.21065 -1.173828,-0.34766 -0.945263,-0.27402 -2.169549,-0.62114 -3.382813,-0.96093 -1.213263,-0.33979 -2.414701,-0.67027 -3.3183592,-0.91407 -0.4518291,-0.12189 -0.8285102,-0.22319 -1.0957032,-0.29101 -0.1335965,-0.0339 -0.2401025,-0.0591 -0.3164062,-0.0762 -0.038152,-0.009 -0.069049,-0.015 -0.095703,-0.0195 -0.013327,-0.002 -0.025101,-0.005 -0.042969,-0.006 -0.00893,-6.4e-4 -0.016925,-0.002 -0.037109,0 z m -1.5234375,0.12109 c -0.039966,0.002 -0.080953,0.008 -0.1269531,0.0156 -0.092001,0.016 -0.2031325,0.0406 -0.3222656,0.0742 a 0.21026884,0.21026884 0 0 0 -0.00195,0 l -0.4101563,0.11719 a 0.21026884,0.21026884 0 0 0 -0.1523437,0.19531 l -0.023438,0.68946 c -0.012419,0.36389 -0.073785,0.89553 -0.1269531,1.13086 -0.1319557,0.58389 -0.6745959,1.75625 -1.0195312,2.20703 -0.020669,0.027 -0.1676591,0.19059 -0.3789063,0.41406 -0.2112472,0.22347 -0.4972176,0.52015 -0.8378906,0.87109 -0.681346,0.7019 -1.5796063,1.61566 -2.52929688,2.57032 l -3.45507812,3.47265 a 0.21026884,0.21026884 0 0 0 0.2070312,0.35156 l 3.20507818,-0.91406 c 0.88276752,-0.2515 1.69499912,-0.488 2.29101562,-0.66601 0.2980083,-0.089 0.5411132,-0.16371 0.7148438,-0.21875 0.086865,-0.0275 0.155884,-0.0506 0.2070312,-0.0684 0.025574,-0.009 0.047578,-0.0159 0.066406,-0.0234 0.00941,-0.004 0.018277,-0.008 0.029297,-0.0137 0.00551,-0.003 0.011051,-0.005 0.019531,-0.01 0.00848,-0.005 0.03843,-0.0287 0.039063,-0.0293 3.599e-4,-3.4e-4 0.023466,-0.025 0.029297,-0.0332 0.00583,-0.008 0.010723,-0.0144 0.013672,-0.0195 0.0059,-0.0103 0.00869,-0.0188 0.011719,-0.0254 0.00606,-0.0132 0.010706,-0.0242 0.015625,-0.0371 0.00984,-0.0257 0.020047,-0.0565 0.033203,-0.0957 0.026311,-0.0784 0.06107,-0.18722 0.1035156,-0.32422 0.084891,-0.274 0.2000192,-0.65951 0.3359375,-1.11914 0.2718368,-0.91926 0.6261194,-2.13707 0.9746094,-3.35352 0.34849,-1.21644 0.6915908,-2.43044 0.9453125,-3.3457 0.1268609,-0.45763 0.231472,-0.84025 0.3027344,-1.11133 0.035631,-0.13554 0.063841,-0.24328 0.082031,-0.32031 0.00909,-0.0385 0.014653,-0.0695 0.019531,-0.0957 0.00244,-0.0131 0.00422,-0.0243 0.00586,-0.041 8.194e-4,-0.008 0.00279,-0.0163 0.00195,-0.0352 -4.204e-4,-0.009 -0.00574,-0.0425 -0.00586,-0.043 -1.201e-4,-5e-4 -0.056435,-0.0994 -0.056641,-0.0996 -6.619e-4,-6.7e-4 -0.035812,-0.029 -0.050781,-0.0371 -0.014969,-0.008 -0.028045,-0.014 -0.039063,-0.0176 -0.022036,-0.007 -0.037147,-0.0101 -0.050781,-0.0117 -0.027268,-0.003 -0.046423,-0.001 -0.066406,0 z m 22.7421874,0.0215 c -0.01564,4.6e-4 -0.02442,0.003 -0.03125,0.004 -0.01367,0.002 -0.02322,0.003 -0.03516,0.006 -0.02388,0.005 -0.05241,0.0124 -0.08984,0.0215 -0.07487,0.0183 -0.18049,0.0449 -0.314453,0.0801 -0.267925,0.0704 -0.647042,0.17295 -1.101563,0.29688 -0.90904,0.24785 -2.119065,0.58188 -3.330078,0.91992 -1.211012,0.33804 -2.422956,0.67958 -3.339843,0.94141 -0.458444,0.13091 -0.843446,0.24142 -1.117188,0.32226 -0.136871,0.0404 -0.246229,0.0732 -0.324219,0.0977 -0.03899,0.0122 -0.06918,0.0228 -0.09375,0.0312 -0.01229,0.004 -0.02401,0.007 -0.03516,0.0117 -0.0056,0.002 -0.0097,0.004 -0.01758,0.008 -0.0039,0.002 -0.0095,0.004 -0.01563,0.008 -0.0062,0.003 -0.02695,0.0173 -0.02734,0.0176 -1.7e-4,1.3e-4 -0.05443,0.0601 -0.05469,0.0606 -2.53e-4,4.2e-4 -0.0075,0.0148 -0.0098,0.0195 -0.0044,0.009 -0.0058,0.0143 -0.0078,0.0195 -0.004,0.0104 -0.008,0.0201 -0.01172,0.0312 -0.0075,0.0222 -0.01776,0.0509 -0.0293,0.0879 -0.02308,0.074 -0.05389,0.18079 -0.09375,0.31445 -0.07973,0.26732 -0.19202,0.64515 -0.324219,1.09961 -0.264397,0.90892 -0.612044,2.11967 -0.958984,3.33203 -0.346941,1.21236 -0.692245,2.42591 -0.951172,3.34571 -0.129464,0.45989 -0.236902,0.8476 -0.3125,1.12304 -0.0378,0.13773 -0.06732,0.2476 -0.08789,0.32617 -0.01029,0.0393 -0.01956,0.0695 -0.02539,0.0938 -0.0029,0.0122 -0.0037,0.0229 -0.0059,0.0332 -0.0011,0.005 -0.0028,0.0107 -0.0039,0.0176 -0.0011,0.007 -0.0039,0.0362 -0.0039,0.0371 0,0.0838 0.05498,0.1639 0.103516,0.19921 0.04854,0.0353 0.09152,0.0472 0.130859,0.0547 0.07868,0.015 0.15209,0.0103 0.232422,-0.006 0.08039,-0.0162 0.228446,-0.0588 0.509765,-0.13672 0.28132,-0.0779 0.66509,-0.18644 1.119141,-0.31445 0.908102,-0.25601 2.091883,-0.59227 3.267578,-0.92773 1.175696,-0.33547 2.34331,-0.67038 3.220703,-0.92383 0.438697,-0.12673 0.806087,-0.23254 1.064453,-0.3086 0.129184,-0.038 0.231125,-0.068 0.302735,-0.0898 0.0358,-0.0109 0.06285,-0.0205 0.08398,-0.0273 0.01057,-0.003 0.02042,-0.007 0.0293,-0.01 0.0044,-0.002 0.0088,-0.003 0.01563,-0.006 0.0034,-0.001 0.007,-0.003 0.01367,-0.006 0.0067,-0.003 0.03887,-0.0252 0.03906,-0.0254 2.81e-4,-2.2e-4 0.03612,-0.0351 0.04297,-0.0449 0.0069,-0.01 0.0107,-0.0161 0.01367,-0.0215 0.0059,-0.0109 0.007,-0.0171 0.0098,-0.0234 0.0055,-0.0126 0.01117,-0.0229 0.01563,-0.0352 0.0089,-0.0245 0.01887,-0.0554 0.03125,-0.0937 0.02476,-0.0768 0.05671,-0.18418 0.09766,-0.32031 0.08189,-0.27227 0.195267,-0.65757 0.328125,-1.11719 0.265715,-0.91924 0.611772,-2.13775 0.955078,-3.35742 0.343306,-1.21967 0.684245,-2.43985 0.935547,-3.35742 0.125651,-0.45879 0.227783,-0.84221 0.298828,-1.11328 0.03552,-0.13554 0.06373,-0.2421 0.08203,-0.31836 0.0092,-0.0381 0.01654,-0.0688 0.02148,-0.0937 0.0025,-0.0125 0.004,-0.0221 0.0059,-0.0371 9.22e-4,-0.007 0.002,-0.0161 0.002,-0.0332 -2.1e-5,-0.009 -0.0038,-0.0386 -0.0039,-0.0391 -8.6e-5,-4.6e-4 -0.05842,-0.11116 -0.05859,-0.11133 -1.44e-4,-1.4e-4 -0.118706,-0.0605 -0.11914,-0.0605 -4.35e-4,-6e-5 -0.02929,-0.002 -0.03711,-0.002 z"
     id="path1530"
     style="fill:#000000;fill-opacity:1;stroke:none;stroke-width:3.4499588;stroke-linecap:square;stroke-linejoin:round;stroke-miterlimit:4;stroke-dasharray:none;stroke-opacity:1;paint-order:stroke fill markers"
     inkscape:original="M 15.767578 64.722656 C 10.856727 64.864358 6.0528815 67.099625 2.7773438 71.205078 C -0.46316635 75.266648 -1.6951544 80.621174 -0.55273438 85.683594 C -0.14807437 87.476784 0.75139135 89.650875 1.7070312 91.140625 L 2.1992188 91.90625 L 0.23828125 93.867188 L -1.7207031 95.826172 L -2.3417969 95.513672 C -2.8872779 95.238892 -3.057916 95.201219 -3.734375 95.199219 C -5.197735 95.195419 -4.7808298 94.841166 -12.869141 102.95117 C -20.877941 110.98146 -20.439359 110.46227 -20.443359 111.91602 C -20.447259 113.2172 -20.28799 113.46164 -17.78125 115.96289 C -15.67436 118.06518 -15.261926 118.39106 -14.472656 118.58984 L -14.470703 118.58984 C -13.897963 118.73409 -12.956236 118.62894 -12.347656 118.35156 C -11.872516 118.13498 -10.916361 117.21729 -4.7128906 111.02148 C 3.3425194 102.97602 2.9961875 103.38547 2.9921875 101.92383 C 2.9903875 101.24736 2.9505575 101.07868 2.6757812 100.5332 L 2.3632812 99.910156 L 4.3242188 97.951172 L 6.2832031 95.990234 L 7.0488281 96.482422 C 10.053738 98.409982 13.979272 99.38859 17.519531 99.09375 C 20.004191 98.88682 21.832901 98.378139 23.988281 97.292969 C 25.798751 96.381459 26.938888 95.557662 28.361328 94.138672 C 31.122378 91.384292 32.766249 88.103156 33.318359 84.242188 C 33.476749 83.132396 33.476074 80.633951 33.316406 79.582031 C 32.562136 74.606022 29.911608 70.374125 25.835938 67.634766 C 23.050718 65.762743 19.898103 64.81122 16.75 64.722656 C 16.422073 64.713456 16.094968 64.713256 15.767578 64.722656 z M -17.115234 67.230469 C -17.155274 67.270509 -14.445216 76.838109 -14.353516 76.980469 C -14.325296 77.024279 -12.117989 77.687368 -9.4492188 78.455078 C -6.7804388 79.222788 -4.5713625 79.856328 -4.5390625 79.861328 C -4.4639325 79.874048 -7.2348206 70.145976 -7.3378906 70.035156 C -7.4297906 69.936346 -17.058934 67.174169 -17.115234 67.230469 z M 16.152344 67.615234 C 17.175543 67.605214 18.191501 67.662824 18.84375 67.794922 C 20.72675 68.176272 22.733131 68.991131 24.169922 69.957031 C 30.192861 74.006021 32.294131 81.664631 29.169922 88.181641 C 27.210351 92.269241 23.300959 95.250852 18.824219 96.070312 C 17.650529 96.285145 15.32612 96.326864 14.1875 96.154297 C 10.75894 95.634727 7.6602409 93.938646 5.4199219 91.353516 C 1.0494719 86.310386 0.69978317 79.044475 4.5644531 73.578125 C 5.2618731 72.591665 6.90767 70.945168 7.90625 70.236328 C 9.52212 69.089308 11.386999 68.282909 13.417969 67.849609 C 14.098264 67.704469 15.129146 67.625249 16.152344 67.615234 z M 1.7929688 67.685547 C 1.7136988 67.715207 -0.06576635 68.227089 -2.1601562 68.824219 L -5.9667969 69.910156 L -5.7871094 70.542969 C -5.6874294 70.890809 -5.1649431 72.719109 -4.6269531 74.605469 C -3.7511331 77.676269 -3.4921875 78.390052 -3.4921875 77.732422 C -3.4921875 77.619042 -3.3577404 77.051053 -3.1933594 76.470703 C -2.3115004 73.357413 -0.91771566 70.813926 1.2089844 68.441406 C 1.6089044 67.995256 1.8722686 67.655847 1.7929688 67.685547 z M 16.367188 69.638672 A 12.203125 12.3125 0 0 0 15.876953 69.664062 C 15.819013 69.795389 15.761317 69.928654 15.712891 70.082031 C 16.133314 69.956896 16.670862 69.740234 16.769531 69.740234 C 18.419194 69.740234 19.65625 71.164209 19.65625 72.808594 C 19.65625 74.429267 18.413632 75.822266 16.755859 75.822266 C 16.086227 75.822266 15.279601 75.576667 14.634766 74.929688 C 13.989933 74.282697 13.53125 73.24329 13.53125 71.732422 C 13.53125 71.296854 13.58335 70.636564 13.765625 69.931641 A 12.203125 12.3125 0 0 0 10.617188 71.097656 C 11.067486 71.580687 11.345703 72.189106 11.345703 72.847656 C 11.345703 73.74405 10.97195 74.503095 10.378906 75.017578 C 9.7858676 75.532061 8.9841147 75.808594 8.1210938 75.808594 C 7.3121848 75.808594 6.6860119 75.578367 6.0761719 75.335938 A 12.203125 12.3125 0 0 0 4.1640625 81.951172 A 12.203125 12.3125 0 0 0 5.828125 88.134766 C 6.349735 87.450703 7.1453145 86.994141 8.0859375 86.994141 C 8.7555695 86.994141 9.5641518 87.239731 10.208984 87.886719 C 10.853818 88.533707 11.3125 89.573116 11.3125 91.083984 C 11.3125 91.548842 11.2647 92.262569 11.048828 93.021484 A 12.203125 12.3125 0 0 0 15.107422 94.175781 C 15.306568 93.973125 15.578663 93.823694 15.882812 93.740234 L 15.384766 93.740234 L 15.384766 91.482422 L 15.662109 91.482422 C 15.688499 91.474522 15.695289 91.457031 15.8125 91.457031 L 15.736328 91.464844 C 15.839111 91.439714 15.990766 91.397216 16.140625 91.378906 L 16.105469 91.384766 C 16.521325 91.284806 16.964221 91.175472 17.269531 91.001953 C 17.57484 90.828434 17.736328 90.652024 17.736328 90.273438 C 17.736328 89.982709 17.615353 89.796156 17.408203 89.646484 C 17.201052 89.496815 16.898792 89.410156 16.613281 89.410156 C 16.372632 89.410156 15.777147 89.474786 15.654297 89.521484 L 15.648438 89.523438 L 15.585938 89.544922 L 15.585938 90.539062 L 14.085938 90.539062 L 13.769531 90.539062 L 13.769531 88.212891 L 14.001953 88.148438 C 14.085723 88.125038 14.102583 88.113398 14.376953 88.019531 L 14.380859 88.019531 L 14.382812 88.019531 C 15.249147 87.737239 15.77814 87.617188 16.464844 87.617188 C 18.416928 87.617188 19.582031 88.897692 19.582031 90.300781 C 19.582031 91.245769 19.101691 91.900668 18.542969 92.296875 C 18.065028 92.635799 17.575868 92.767572 17.189453 92.882812 L 17.189453 93.740234 L 16.648438 93.740234 C 16.957653 93.825174 17.238468 93.977364 17.441406 94.189453 A 12.203125 12.3125 0 0 0 21.058594 93.287109 L 21.058594 92.453125 L 24.490234 86.994141 L 26.308594 86.994141 L 26.626953 86.994141 L 26.626953 88.578125 A 12.203125 12.3125 0 0 0 28.570312 81.951172 A 12.203125 12.3125 0 0 0 26.582031 75.234375 C 26.072739 75.577929 25.417053 75.808594 24.589844 75.808594 C 23.528412 75.808594 22.792238 75.522111 21.666016 75.097656 L 21.365234 74.984375 L 22.029297 73.287109 L 22.339844 73.439453 C 22.315914 73.427753 22.350919 73.443348 22.380859 73.455078 C 22.395829 73.460978 22.413194 73.467233 22.433594 73.476562 C 22.435694 73.477544 22.443293 73.483775 22.445312 73.484375 C 22.926824 73.686102 23.696634 74.017578 24.523438 74.017578 C 24.972516 74.017578 25.268276 73.920978 25.484375 73.785156 A 12.203125 12.3125 0 0 0 23.259766 71.804688 C 23.217306 71.837378 23.171046 71.870334 23.130859 71.902344 L 22.964844 72.033203 L 21.990234 71.496094 L 21.990234 71.029297 A 12.203125 12.3125 0 0 0 16.367188 69.638672 z M 16.783203 71.533203 C 16.667502 71.533203 16.40269 71.558003 16.136719 71.691406 C 15.89078 71.814762 15.647194 72.059394 15.460938 72.455078 C 15.583187 73.656345 16.277334 74.03125 16.742188 74.03125 C 17.307015 74.03125 17.769531 73.629328 17.769531 72.808594 C 17.769531 72.463323 17.65725 72.128575 17.478516 71.896484 C 17.299783 71.664394 17.073601 71.533203 16.783203 71.533203 z M 9.1347656 72.050781 A 12.203125 12.3125 0 0 0 7.1816406 73.869141 C 7.5086706 73.969945 7.8430324 74.044922 8.1621094 74.044922 C 8.4935974 74.044922 8.8419768 73.942797 9.0898438 73.75 C 9.3377068 73.557203 9.5019531 73.29034 9.5019531 72.861328 C 9.5019531 72.492459 9.3825437 72.248327 9.1679688 72.068359 C 9.1592688 72.061059 9.1438156 72.057831 9.1347656 72.050781 z M 8.3183594 76.755859 C 10.00492 76.755859 11.380859 78.080428 11.380859 79.71875 C 11.380859 80.4067 11.176706 80.986141 10.746094 81.558594 C 10.315482 82.131047 9.6716677 82.718014 8.7460938 83.542969 L 8.0566406 84.154297 L 9.5898438 84.154297 L 9.5898438 82.853516 L 11.367188 82.853516 L 11.367188 85.880859 L 5.078125 85.880859 L 5.078125 84.322266 L 5.1933594 84.226562 C 5.8748344 83.664891 7.7971954 82.000382 8.8964844 80.925781 C 9.4310414 80.403232 9.5078125 80.139869 9.5078125 79.677734 C 9.5078125 79.048527 9.1146857 78.5625 8.2773438 78.5625 C 8.1099156 78.5625 7.783994 78.60431 7.546875 78.720703 C 7.309758 78.837095 7.1699219 78.965909 7.1699219 79.265625 C 7.1699219 79.308695 7.1861062 79.454539 7.1914062 79.480469 L 7.2675781 79.863281 L 5.3359375 79.863281 L 5.3359375 78.275391 L 5.4101562 78.185547 C 6.5293313 76.849959 7.8629704 76.755859 8.3183594 76.755859 z M 24.814453 76.757812 C 26.417316 76.757813 27.78125 77.909103 27.78125 79.439453 C 27.78125 79.996595 27.52474 80.702197 26.927734 81.300781 C 27.595402 81.883719 27.931641 82.63358 27.931641 83.263672 C 27.931641 84.568616 26.830064 86.066406 24.814453 86.066406 C 22.811292 86.066406 21.697266 84.573684 21.697266 83.277344 C 21.697266 82.533155 22.098293 81.81265 22.705078 81.291016 C 22.027669 80.596995 21.847656 79.820437 21.847656 79.439453 C 21.847656 77.922663 23.197464 76.757812 24.814453 76.757812 z M 13.498047 76.943359 L 19.8125 76.943359 L 19.8125 78.21875 L 17.095703 85.878906 L 15.097656 85.878906 L 17.732422 78.708984 L 15.300781 78.708984 L 15.300781 79.863281 L 13.498047 79.863281 L 13.498047 77.261719 L 13.498047 76.943359 z M -14.412109 78.458984 C -14.469739 78.516614 -17.330275 88.455922 -17.296875 88.482422 C -17.287275 88.490022 -15.096514 89.123435 -12.427734 89.890625 C -9.7589642 90.657825 -7.4869262 91.289922 -7.3789062 91.294922 C -7.2005574 91.303922 -7.0516184 90.845631 -5.7558594 86.306641 C -4.9710394 83.557451 -4.3462875 81.292336 -4.3671875 81.273438 C -4.4698675 81.180447 -14.361909 78.408784 -14.412109 78.458984 z M 24.814453 78.521484 C 24.494505 78.521484 24.210837 78.625683 24.015625 78.789062 C 23.820412 78.952451 23.707031 79.165926 23.707031 79.453125 C 23.707031 80.003237 24.236764 80.476562 24.814453 80.476562 C 25.383089 80.476562 25.923828 80.032736 25.923828 79.453125 C 25.923828 79.151387 25.806854 78.941357 25.611328 78.78125 C 25.415801 78.621145 25.130106 78.521484 24.814453 78.521484 z M 24.814453 82.267578 C 23.913645 82.267578 23.556641 82.843395 23.556641 83.304688 C 23.556641 83.803993 24.068476 84.328125 24.814453 84.328125 C 25.563568 84.328125 26.072266 83.821064 26.072266 83.304688 C 26.072266 82.8228 25.67421 82.267578 24.814453 82.267578 z M -3.8320312 84.339844 L -4.78125 87.654297 C -5.3024 89.477517 -5.7500437 91.027409 -5.7773438 91.099609 C -5.8122438 91.191709 -5.7727338 91.214083 -5.6445312 91.175781 C -5.5440613 91.145761 -4.7489331 90.920598 -3.8769531 90.673828 C -3.0049731 90.427068 -2.2782187 90.213719 -2.2617188 90.199219 C -2.2451788 90.184729 -2.4268656 89.632386 -2.6660156 88.972656 C -3.1159156 87.731506 -3.4949644 86.307194 -3.7089844 85.058594 L -3.8320312 84.339844 z M 8.0996094 88.785156 C 7.5533084 88.785156 7.1129524 89.170234 7.0839844 89.9375 A 12.203125 12.3125 0 0 0 8.3769531 91.236328 C 8.4801211 91.212488 8.5918193 91.182788 8.7070312 91.125 C 8.9536144 91.001323 9.1964195 90.757085 9.3828125 90.359375 C 9.2598505 89.160058 8.5641504 88.785156 8.0996094 88.785156 z M 24.808594 89.443359 L 23.140625 92.160156 L 23.146484 92.160156 A 12.203125 12.3125 0 0 0 24.808594 90.800781 L 24.808594 89.443359 z M -17.005859 90.015625 C -17.106186 90.013525 -17.122856 90.042334 -17.113281 90.089844 C -16.921891 91.038934 -14.385791 99.642028 -14.269531 99.736328 C -14.188081 99.802338 -14.096206 99.857422 -14.066406 99.857422 C -14.036566 99.857422 -12.62829 98.471667 -10.9375 96.779297 C -9.2467 95.086927 -7.7063719 93.593234 -7.5136719 93.458984 C -7.2113419 93.248364 -7.1733219 93.180104 -7.2324219 92.958984 C -7.2987319 92.711074 -7.4598245 92.655529 -12.226562 91.292969 C -15.643294 90.316334 -16.704879 90.022016 -17.005859 90.015625 z M 29.074219 97.644531 C 28.988009 97.653031 28.803717 97.76235 28.53125 97.96875 C 25.9883 99.89506 22.758601 101.3103 19.744141 101.82031 L 19.392578 101.88086 L 19.490234 102.23828 C 19.544094 102.43494 19.6054 102.6216 19.625 102.6543 C 19.6532 102.7013 29.648209 99.898666 29.724609 99.822266 C 29.741589 99.805296 29.250213 98.036062 29.126953 97.669922 C 29.120253 97.650082 29.102949 97.641701 29.074219 97.644531 z M 8.3125 101.18359 C 8.20272 101.30185 5.4351406 111.11994 5.4941406 111.18164 C 5.5256306 111.21454 7.742855 111.87633 10.421875 112.65039 C 13.100896 113.42445 15.344203 114.06141 15.408203 114.06641 C 15.472223 114.07141 15.568847 113.91498 15.623047 113.7168 C 15.677197 113.51863 16.322361 111.25839 17.056641 108.69531 C 18.227031 104.61153 18.373628 104.02759 18.236328 103.96289 C 17.847928 103.77988 8.3672 101.12469 8.3125 101.18359 z M 6.8339844 101.30859 C 6.8128044 101.28739 6.6089225 101.32292 6.3828125 101.38672 L 5.9726562 101.50391 L 5.9492188 102.19336 C 5.9362687 102.57282 5.8761058 103.09904 5.8164062 103.36328 C 5.6719263 104.00259 5.1400425 105.15087 4.7578125 105.65039 C 4.5882625 105.87195 2.8946206 107.61692 0.99414062 109.52734 L -2.4609375 113 L 0.74609375 112.08594 C 2.5102237 111.58334 3.9868436 111.14277 4.0273438 111.10547 C 4.1194738 111.02057 6.8866844 101.36129 6.8339844 101.30859 z M 29.525391 101.32617 C 29.488611 101.28937 19.871184 103.97393 19.771484 104.04883 C 19.727774 104.08163 16.974609 113.70241 16.974609 113.82227 C 16.974609 113.86887 17.070549 113.88718 17.189453 113.86328 C 17.484302 113.80398 26.716625 111.16966 26.765625 111.13086 C 26.837365 111.07396 29.568891 101.36967 29.525391 101.32617 z "
     inkscape:radius="0.21024781"
     sodipodi:type="inkscape:offset" />
  <g
     id="g938"
     transform="matrix(0.06959299,0,0,0.11253781,-1.1900419,0.02125098)"
     clip-path="url(#clipPath1557)">
    <path
       id="path918"
       d="M 0,0 H 800 V 480 H 0 Z"
       fill="#OOO"
       inkscape:connector-curvature="0" />
    <path
       id="path920"
       d="M 0,0 H 800 V 360 H 0 Z"
       inkscape:connector-curvature="0"
       style="fill:#9c59d1" />
    <path
       id="path922"
       d="M 0,0 H 800 V 240 H 0 Z"
       inkscape:connector-curvature="0"
       style="fill:#ffffff" />
    <path
       id="path924"
       d="M 0,0 H 800 V 120 H 0 Z"
       inkscape:connector-curvature="0"
       style="fill:#fff430" />
    <path
       style="fill:#fff430"
       inkscape:connector-curvature="0"
       d="M 0,0 H 800 V 120 H 0 Z"
       id="path1543" />
  </g>
</svg>
