<?xml version="1.0" encoding="UTF-8" standalone="no"?>
<!-- Created with Inkscape (http://www.inkscape.org/) -->

<svg
   xmlns:dc="http://purl.org/dc/elements/1.1/"
   xmlns:cc="http://creativecommons.org/ns#"
   xmlns:rdf="http://www.w3.org/1999/02/22-rdf-syntax-ns#"
   xmlns:svg="http://www.w3.org/2000/svg"
   xmlns="http://www.w3.org/2000/svg"
   xmlns:sodipodi="http://sodipodi.sourceforge.net/DTD/sodipodi-0.dtd"
   xmlns:inkscape="http://www.inkscape.org/namespaces/inkscape"
   xmlns:xlink="http://www.w3.org/1999/xlink"
   version="1.1"
   width="52mm"
   height="52mm"
   id="svg3953"
   sodipodi:docname="logo_base.svg"
   inkscape:version="0.92.3 (2405546, 2018-03-11)">
  <sodipodi:namedview
     pagecolor="#ffffff"
     bordercolor="#666666"
     borderopacity="1"
     objecttolerance="10"
     gridtolerance="10"
     guidetolerance="10"
     inkscape:pageopacity="0"
     inkscape:pageshadow="2"
     inkscape:window-width="2493"
     inkscape:window-height="1385"
     id="namedview7"
     showgrid="false"
     fit-margin-top="0"
     fit-margin-left="0"
     fit-margin-right="0"
     fit-margin-bottom="0"
     inkscape:zoom="2.773526"
     inkscape:cx="68.766708"
     inkscape:cy="60.628436"
     inkscape:window-x="67"
     inkscape:window-y="27"
     inkscape:window-maximized="1"
     inkscape:current-layer="svg3953"
     units="mm"
     inkscape:snap-bbox="false"
     inkscape:snap-global="true" />
  <defs
     id="defs3955">
    <clipPath
       clipPathUnits="userSpaceOnUse"
       id="clipPath941">
      <path
         inkscape:connector-curvature="0"
         style="display:inline;fill:#ffffff;fill-opacity:1;stroke-width:10.78956413"
         id="path943"
         d="m 118.35172,478.81084 c -10.43944,-1.74956 -15.894,-4.63328 -43.761222,-23.13656 -33.155919,-22.01472 -35.28198,-24.16422 -35.229735,-35.61654 0.05291,-12.79516 -5.751898,-8.21909 100.178167,-78.89758 106.98172,-71.38014 101.47279,-68.26917 120.82823,-68.23563 8.94734,0.0176 11.19892,0.3547 18.41383,2.77317 l 8.22013,2.75539 25.92647,-17.25241 25.92659,-17.25232 -6.49563,-6.73824 C 319.71857,224.0981 307.80528,204.96587 302.45296,189.18313 287.3425,144.62631 303.63146,97.490038 346.49274,61.742181 420.43335,0.07333223 553.266,-13.606202 651.50407,30.331348 c 53.9077,24.11044 88.94605,61.353845 98.92454,105.150132 2.1094,9.25846 2.12143,31.24844 0.0264,41.01625 -7.30259,33.98227 -29.04003,62.86391 -65.55963,87.10655 -18.8142,12.48922 -33.89807,19.72492 -57.84463,27.74757 -28.50858,9.5511 -52.69494,14.03291 -85.55882,15.8542 -46.82598,2.59503 -98.742,-6.02277 -138.48707,-22.98816 l -10.12611,-4.32241 -25.92646,17.25232 -25.9266,17.25241 4.14089,5.46986 c 3.63443,4.80104 4.14406,6.29931 4.16734,12.25325 0.0529,12.86461 4.63887,9.25934 -101.90769,80.07135 -82.05149,54.53234 -94.68207,62.60207 -100.96661,64.5083 -8.04951,2.44153 -20.52838,3.37748 -28.10385,2.10787 z m 440.3957,-198.21661 c 59.21253,-7.21247 110.92182,-33.44609 136.84048,-69.42305 41.32301,-57.35937 13.53105,-124.770226 -66.13262,-160.407357 -19.004,-8.501356 -45.54154,-15.667879 -70.44743,-19.024326 -17.25424,-2.325352 -53.76326,-2.087536 -71.75939,0.467359 -26.86305,3.813685 -51.52649,10.925638 -72.89914,21.021119 -13.20792,6.238846 -34.98636,20.725037 -44.21093,29.407351 -51.11686,48.112004 -46.49214,112.056744 11.31452,156.443784 29.63206,22.75299 70.61409,37.68858 115.96266,42.26157 15.06019,1.5187 45.80779,1.14446 61.33185,-0.74636 z m -52.43557,-17.13227 c -20.42944,-2.15249 -37.74942,-5.60435 -51.78891,-10.3215 l -7.94317,-2.66879 v -24.51302 -24.51293 h -14.00193 c -12.17611,0 -28.85499,1.59078 -40.90002,3.90108 -1.59779,0.30629 -2.25925,1.53823 -2.54178,4.73265 l -0.38225,4.31845 -6.07648,-7.68546 c -13.32432,-16.85274 -18.07059,-30.11975 -18.07033,-50.51138 1.3e-4,-15.76558 1.6831,-23.02434 8.27225,-35.67841 3.49754,-6.71703 12.11699,-18.6133 15.88699,-21.926706 1.6384,-1.440099 1.81696,-1.124037 1.85346,3.280756 l 0.0397,4.87426 41.62181,-0.22268 41.62181,-0.22267 0.36902,-6.97703 0.36903,-6.976938 H 460.60987 446.57858 V 77.146279 61.941007 l 4.97126,-1.687685 c 8.19765,-2.782942 23.42119,-6.615022 32.04567,-8.066563 4.45489,-0.749887 9.0267,-1.543517 10.15943,-1.763818 1.78085,-0.346778 1.91721,0.0889 1.00788,3.215887 -1.75373,6.034476 -1.29093,22.595177 0.79492,28.485748 4.13084,11.66162 14.4027,20.292974 28.35754,23.828704 8.33203,2.11113 24.04324,2.51098 33.23025,0.84583 8.75978,-1.5877 18.47718,-6.26807 23.42212,-11.281221 7.31358,-7.414375 9.89199,-13.889629 10.59975,-26.619923 l 0.62298,-11.191091 10.27345,3.556593 c 11.83341,4.09674 26.22089,11.010748 36.73731,17.654462 7.07444,4.469307 7.30763,4.757292 7.30763,9.02522 v 4.40858 h -13.97984 -13.97984 v 7.18835 7.18844 h 25.80002 25.80015 l 2.77853,3.80558 2.77841,3.80568 -14.28101,-0.0176 c -9.83723,-0.0176 -18.72995,0.57209 -28.57855,1.88395 l -14.29755,1.90394 v 6.99586 c 0,3.84775 0.22353,6.99587 0.496,6.99587 0.27247,0 6.05453,-0.76133 12.84883,-1.69139 6.79442,-0.93031 12.86231,-1.69138 13.48436,-1.69138 0.63488,0 1.13088,11.10097 1.13088,25.34221 v 25.34221 l -13.66213,0.24028 -13.66213,0.24028 -0.36902,6.96154 -0.36903,6.96162 29.84461,0.22708 29.84475,0.22708 -2.20027,3.31728 -2.20026,3.31737 -15.83766,0.0616 c -14.64038,0.0616 -16.38128,0.24292 -23.03153,2.41627 -17.36006,5.67291 -26.69547,18.54077 -26.9809,37.1905 l -0.13888,9.09634 -8.49591,2.972 c -7.41781,2.59494 -33.3616,8.85746 -36.69367,8.85746 -0.72747,0 -1.19834,-11.78862 -1.19834,-30.02213 v -30.02214 h -13.8399 c -8.90528,0 -18.30788,0.60907 -26.37101,1.70881 -18.63472,2.54108 -16.97926,1.6303 -16.97926,9.34216 0,4.94239 0.43516,6.70858 1.65294,6.70858 0.90868,0 6.77115,-0.75252 13.02672,-1.67307 6.25544,-0.9202 11.80259,-1.68135 12.32676,-1.69138 0.52378,-0.009 0.95365,10.82767 0.95365,24.08395 v 24.10234 l -11.12036,-0.1153 c -6.11616,-0.0616 -12.55003,-0.26581 -14.29754,-0.44976 z M 448.1429,193.1769 c 13.07275,-3.84801 22.98313,-12.66112 27.00577,-24.01565 2.4148,-6.81614 2.44866,-22.19515 0.0661,-29.6795 -3.75228,-11.78316 -14.20919,-20.7458 -28.44721,-24.38205 -10.11645,-2.58368 -27.17679,-2.56713 -37.37524,0.0352 -14.24635,3.63659 -24.27723,12.55109 -28.28452,25.1366 -2.3529,7.38947 -2.3611,21.05888 -0.0132,28.4193 3.90505,12.26284 15.56704,21.9238 30.35371,25.14549 10.34011,2.25292 27.8741,1.93739 36.69949,-0.66011 z m -29.40429,-14.2056 c -5.20762,-2.91585 -7.65893,-8.70353 -8.56972,-20.23321 -0.81476,-10.30804 0.94836,-20.96682 4.2258,-25.56357 2.99863,-4.205 8.59247,-6.33425 15.42486,-5.87138 10.93399,0.74108 15.13585,6.42165 16.37003,22.1323 1.28696,16.37772 -2.77351,28.398 -10.37027,30.70126 -5.72637,1.73618 -12.75517,1.25659 -17.0807,-1.1654 z m 140.05854,14.85444 c 22.12709,-4.54782 33.65298,-19.77624 32.31734,-42.69891 -1.13617,-19.50964 -11.59664,-31.54172 -31.72889,-36.49792 -8.35557,-2.057 -26.51425,-1.81601 -35.46821,0.47088 -14.16646,3.61803 -24.25104,12.20449 -28.50977,24.27459 -2.96887,8.41439 -1.92237,27.49804 1.89671,34.58526 5.95903,11.05863 17.16271,18.39115 31.5461,20.64609 8.56138,1.34223 21.22648,1.01235 29.94672,-0.77981 z m -24.67628,-13.94789 c -7.35788,-2.66078 -10.72091,-12.9719 -9.63499,-29.54122 0.82667,-12.61385 2.16455,-16.42217 7.04573,-20.05753 6.96757,-5.1891 20.04323,-3.71599 24.67548,2.77986 5.08065,7.12454 5.94647,29.57616 1.5228,39.48831 -2.50647,5.61658 -7.74636,8.61401 -14.9774,8.56789 -2.91702,-0.0176 -6.80131,-0.57561 -8.63162,-1.23731 z m -125.7278,50.61092 c -10.72368,-7.45767 -14.68336,-11.16864 -12.4216,-11.64146 4.25186,-0.88895 20.56119,-3.00439 20.98563,-2.72195 0.26189,0.17427 0.31347,4.77903 0.11904,10.23323 l -0.35976,9.91663 -8.32079,-5.78645 z m 230.80659,-1.13512 c 1.01978,-5.88001 4.53425,-11.32347 8.38031,-12.97973 4.20742,-1.81188 9.42708,-2.52841 11.84889,-1.62652 1.78097,0.66363 1.28828,1.4585 -3.57981,5.78478 -3.10458,2.75865 -8.30214,6.91858 -11.55036,9.24429 l -5.90559,4.2285 0.80683,-4.65132 z m 36.26433,-82.24382 0.11904,-32.34784 3.79594,7.61126 c 7.50549,15.04896 10.15467,31.2069 7.50099,45.75013 -2.08294,11.41535 -2.03162,11.33429 -7.18091,11.33429 h -4.36256 l 0.11904,-32.34784 z M 536.0357,93.213659 c -3.79672,-1.020796 -7.85097,-4.721032 -9.63737,-8.79568 -1.73667,-3.961109 -2.20979,-27.97086 -0.64811,-32.871704 0.94042,-2.951051 1.32769,-3.171352 5.57492,-3.171352 9.11995,0 26.99095,1.986144 27.61552,3.069079 0.34257,0.59498 1.00391,4.809924 1.46777,9.366278 0.96951,9.516871 -1.07137,22.807556 -4.16814,27.150738 -3.55785,4.989125 -12.51974,7.318966 -20.20498,5.252641 z M 396.85264,90.871141 c 0.65869,-0.814137 5.51342,-4.524492 10.7877,-8.245585 l 9.58989,-6.765526 0.0529,8.245496 0.0529,8.245588 H 406.4888 c -9.93987,0 -10.74709,-0.124101 -9.64941,-1.479973 z M 447.60431,426.5249 c -35.43462,-6.81288 -64.76722,-12.62406 -65.18373,-12.91389 -0.78038,-0.54305 35.84094,-86.96723 37.29297,-88.00809 0.7235,-0.51841 126.10833,22.84734 131.24558,24.4581 1.81603,0.56945 -0.10581,5.72264 -15.58622,41.66597 -9.7121,22.55892 -18.24439,42.44332 -18.96062,44.18751 -0.71688,1.74428 -1.99498,3.13228 -2.84175,3.0844 -0.84651,-0.044 -30.53161,-5.66112 -65.96623,-12.474 z m 86.66721,10.32696 c 0,-1.05494 36.43403,-85.73581 37.01217,-86.02467 1.3187,-0.65923 128.52022,-24.29017 129.0067,-23.96645 0.57536,0.38286 -35.55776,85.79786 -36.50664,86.2984 -0.64811,0.3415 -122.75285,23.52787 -126.65274,24.0498 -1.57266,0.21035 -2.85949,0.0528 -2.85949,-0.35734 z M 322.9201,399.04226 c 25.13709,-16.81454 47.53864,-32.16741 49.78123,-34.11747 5.05564,-4.39652 12.08286,-14.50696 13.99386,-20.13384 0.78963,-2.3257 1.57622,-6.96109 1.74751,-10.30091 l 0.31215,-6.07249 5.43776,-1.02124 c 2.99069,-0.56154 5.66685,-0.86871 5.947,-0.68212 0.69704,0.46384 -35.88062,85.47001 -37.0992,86.2169 -0.53568,0.3283 -20.06545,4.21662 -43.39908,8.64025 l -42.42467,8.04297 45.7041,-30.57187 z M 569.32984,338.5536 c -0.25924,-0.28781 -1.05417,-1.94029 -1.76656,-3.67119 l -1.29489,-3.14706 4.65329,-0.52368 c 39.87138,-4.48885 82.57354,-16.94595 116.2084,-33.90034 4.80513,-2.42217 7.52825,-3.33206 7.88166,-2.63358 1.63033,3.22258 8.12305,18.79575 7.89847,18.94511 -1.01053,0.67244 -133.2079,25.34503 -133.5809,24.93092 z M 121.02881,312.87007 c -1.53774,-0.82998 -35.087415,-76.54485 -37.618875,-84.89826 -0.506583,-1.67246 4.365211,-0.87399 64.621335,10.58713 63.04828,11.99256 65.19894,12.46942 66.07601,14.6514 0.78169,1.94618 0.27114,2.54988 -3.72769,4.40365 -2.54878,1.1816 -22.93167,14.33542 -45.29539,29.23079 -22.36359,14.89537 -40.98415,27.08244 -41.37883,27.08244 -0.39416,0 -1.59924,-0.47616 -2.67656,-1.05715 z m 24.34918,-86.66172 C 110.07882,219.45593 81.094203,213.8765 80.967756,213.8096 c -0.441772,-0.23323 37.412144,-87.70276 38.174394,-88.20999 0.66398,-0.44184 131.49928,23.95087 132.8574,24.76932 0.27643,0.16635 -7.99132,20.09995 -18.3719,44.29691 -17.13864,39.94986 -19.11273,43.98649 -21.47171,43.9071 -1.42875,-0.044 -31.47891,-5.61209 -66.77795,-12.36459 z m 87.96502,10.6468 c 0.36109,-0.63546 6.2975,-14.28411 13.1906,-30.33115 l 12.53297,-29.17649 1.63376,6.3427 c 2.83078,10.98954 7.85045,23.51599 13.80114,34.43996 3.16317,5.8066 5.57215,10.66168 5.35338,10.78921 -0.21824,0.12762 -9.83392,2.00876 -21.36735,4.18062 -11.53342,2.17194 -22.05712,4.16513 -23.38601,4.42935 -1.69566,0.33709 -2.2201,0.13642 -1.75849,-0.6742 z M 184.77559,125.56247 c -35.29904,-6.75699 -64.48536,-12.60092 -64.85862,-12.98651 -1.21289,-1.25298 -37.051314,-85.462436 -36.521716,-85.814847 0.744663,-0.495524 128.093926,23.823511 129.309466,24.693186 1.36327,0.975381 38.0207,86.592991 37.02697,86.481031 -0.42722,-0.044 -29.65692,-5.61587 -64.9561,-12.37286 z M 248.56153,91.674191 C 241.44569,75.071416 234.54492,58.982563 233.22648,55.921054 l -2.39707,-5.566236 50.3673,-9.555686 c 27.70189,-5.255632 51.22506,-9.76921 52.27354,-10.030262 1.04888,-0.261405 -2.42155,2.738142 -7.71117,6.664925 -28.12924,20.881703 -46.57071,43.257811 -58.23482,70.659395 -2.1742,5.10794 -3.9532,10.10358 -3.9532,11.10149 0,5.78812 -3.42532,-0.49288 -15.00953,-27.520489 z" />
    </clipPath>
  </defs>
  <metadata
     id="metadata3958">
    <rdf:RDF>
      <cc:Work
         rdf:about="">
        <dc:format>image/svg+xml</dc:format>
        <dc:type
           rdf:resource="http://purl.org/dc/dcmitype/StillImage" />
        <dc:title></dc:title>
        <dc:date>2019</dc:date>
        <cc:license
           rdf:resource="http://creativecommons.org/licenses/by-sa/4.0/" />
      </cc:Work>
      <cc:License
         rdf:about="http://creativecommons.org/licenses/by-sa/4.0/">
        <cc:permits
           rdf:resource="http://creativecommons.org/ns#Reproduction" />
        <cc:permits
           rdf:resource="http://creativecommons.org/ns#Distribution" />
        <cc:requires
           rdf:resource="http://creativecommons.org/ns#Notice" />
        <cc:requires
           rdf:resource="http://creativecommons.org/ns#Attribution" />
        <cc:permits
           rdf:resource="http://creativecommons.org/ns#DerivativeWorks" />
        <cc:requires
           rdf:resource="http://creativecommons.org/ns#ShareAlike" />
      </cc:License>
    </rdf:RDF>
  </metadata>
  <path
     sodipodi:type="inkscape:offset"
     inkscape:radius="0.18595235"
     inkscape:original="M 37.197266 0.005859375 C 31.950427 -0.14174648 26.718516 2.1091312 23.224609 6.4882812 C 19.984099 10.549851 18.752111 15.904377 19.894531 20.966797 C 20.299191 22.759987 21.198657 24.934078 22.154297 26.423828 L 22.646484 27.189453 L 20.685547 29.150391 L 18.726562 31.109375 L 18.105469 30.796875 C 17.559989 30.522095 17.389351 30.484422 16.712891 30.482422 C 15.249531 30.478612 15.666435 30.124365 7.578125 38.234375 C -0.430675 46.264665 0.00790625 45.745469 0.00390625 47.199219 C -4.375e-05 48.500399 0.15927562 48.744844 2.6660156 51.246094 C 4.7729056 53.348384 5.1853394 53.674267 5.9746094 53.873047 L 5.9765625 53.873047 C 6.5493025 54.017297 7.4910294 53.912166 8.0996094 53.634766 C 8.5747494 53.418186 9.530905 52.500498 15.734375 46.304688 C 23.789785 38.259228 23.443453 38.668671 23.439453 37.207031 C 23.437693 36.530561 23.397827 36.361886 23.123047 35.816406 L 22.810547 35.193359 L 24.771484 33.234375 L 26.730469 31.273438 L 27.496094 31.765625 C 30.501004 33.693185 34.426537 34.671793 37.966797 34.376953 C 40.451457 34.170023 42.280167 33.661342 44.435547 32.576172 C 46.246017 31.664662 47.386154 30.840865 48.808594 29.421875 C 51.569644 26.667495 53.213515 23.386361 53.765625 19.525391 C 53.924015 18.415601 53.923152 15.917154 53.763672 14.865234 C 53.009252 9.8892244 50.358873 5.6573287 46.283203 2.9179688 C 43.497984 1.0459463 40.345369 0.094422891 37.197266 0.005859375 z M 3.3320312 2.5136719 C 3.2919913 2.5537119 6.00205 12.121312 6.09375 12.263672 C 6.12197 12.307482 8.3292769 12.970571 10.998047 13.738281 C 13.666827 14.505991 15.875903 15.139531 15.908203 15.144531 C 15.983333 15.157251 13.212445 5.4291794 13.109375 5.3183594 C 13.017475 5.2195494 3.3883312 2.4573719 3.3320312 2.5136719 z M 22.240234 2.96875 C 22.160964 2.99841 20.381499 3.5102919 18.287109 4.1074219 L 14.478516 5.1933594 L 14.660156 5.8261719 C 14.759836 6.1740119 15.282322 8.0023119 15.820312 9.8886719 C 16.696133 12.959472 16.955078 13.673255 16.955078 13.015625 C 16.955078 12.902245 17.089526 12.334256 17.253906 11.753906 C 18.135766 8.6406162 19.52955 6.0990825 21.65625 3.7265625 C 22.05617 3.2804125 22.319534 2.93905 22.240234 2.96875 z M 39.291016 3.078125 C 41.174016 3.459475 43.180397 4.2743344 44.617188 5.2402344 C 50.640128 9.2892244 52.741397 16.947834 49.617188 23.464844 C 47.657617 27.552444 43.748224 30.534056 39.271484 31.353516 C 38.097794 31.568346 35.773386 31.61005 34.634766 31.4375 C 31.206206 30.91793 28.107508 29.221849 25.867188 26.636719 C 21.496738 21.593589 21.147049 14.327678 25.011719 8.8613281 C 25.709139 7.8748681 27.354936 6.2283713 28.353516 5.5195312 C 29.969386 4.3725112 31.834264 3.5661125 33.865234 3.1328125 C 35.225824 2.8425325 37.986516 2.813925 39.291016 3.078125 z M 37.197266 4.96875 C 36.876156 4.96875 36.848444 4.9947881 36.777344 5.3300781 C 36.659274 5.8868981 36.694872 8.6144031 36.826172 9.0644531 C 36.961232 9.5274031 37.267637 9.94652 37.554688 10.0625 C 38.135727 10.29727 38.813041 10.033647 39.082031 9.4667969 C 39.316161 8.9733369 39.469784 7.4621394 39.396484 6.3808594 C 39.361414 5.8631794 39.311056 5.3859594 39.285156 5.3183594 C 39.237936 5.1953194 37.886776 4.96875 37.197266 4.96875 z M 34.357422 5.2011719 C 34.271782 5.2262019 33.926654 5.3171437 33.589844 5.4023438 C 32.937794 5.5672638 31.785796 6.0021694 31.166016 6.3183594 L 30.791016 6.5097656 L 30.791016 8.2382812 L 30.791016 9.9648438 L 31.851562 9.9648438 L 32.912109 9.9648438 L 32.884766 10.757812 L 32.857422 11.550781 L 29.708984 11.576172 L 26.5625 11.601562 L 26.560547 11.046875 C 26.557787 10.546415 26.543792 10.512161 26.419922 10.675781 C 26.134892 11.052241 25.48318 12.402846 25.21875 13.166016 C 24.72058 14.603736 24.59376 15.429463 24.59375 17.220703 C 24.59373 19.537543 24.951604 21.044224 25.958984 22.958984 L 26.419922 23.832031 L 26.447266 23.341797 C 26.468626 22.978857 26.519825 22.837534 26.640625 22.802734 C 27.551285 22.540244 28.811852 22.361328 29.732422 22.361328 L 30.791016 22.361328 L 30.791016 25.144531 L 30.791016 27.929688 L 31.390625 28.234375 C 32.452075 28.770325 33.762081 29.16169 35.306641 29.40625 C 35.438761 29.42715 35.926262 29.450031 36.388672 29.457031 L 37.228516 29.470703 L 37.228516 26.732422 C 37.228516 25.226282 37.19585 23.995094 37.15625 23.996094 C 37.11662 23.997234 36.697549 24.08295 36.224609 24.1875 C 35.751659 24.29209 35.308934 24.378906 35.240234 24.378906 C 35.148164 24.378906 35.115234 24.176774 35.115234 23.615234 C 35.115234 22.739034 34.989567 22.843398 36.398438 22.554688 C 37.008047 22.429737 37.719298 22.361328 38.392578 22.361328 L 39.4375 22.361328 L 39.4375 25.771484 C 39.4375 27.843124 39.474297 29.181641 39.529297 29.181641 C 39.781217 29.181641 41.741914 28.470611 42.302734 28.175781 L 42.945312 27.837891 L 42.957031 26.804688 C 42.978611 24.685757 43.683594 23.224618 44.996094 22.580078 C 45.498884 22.333148 45.629448 22.311688 46.736328 22.304688 L 47.935547 22.298828 L 48.101562 21.921875 L 48.267578 21.544922 L 46.011719 21.517578 L 43.753906 21.492188 L 43.783203 20.701172 L 43.810547 19.910156 L 44.84375 19.882812 L 45.876953 19.855469 L 45.876953 16.976562 C 45.876953 15.358512 45.839016 14.097656 45.791016 14.097656 C 45.743986 14.097656 45.285174 14.183362 44.771484 14.289062 C 44.257804 14.394733 43.819428 14.482422 43.798828 14.482422 C 43.778228 14.482422 43.761719 14.12467 43.761719 13.6875 L 43.761719 12.892578 L 44.84375 12.675781 C 45.58835 12.526731 46.260166 12.458937 47.003906 12.460938 L 48.083984 12.462891 L 47.873047 12.03125 L 47.664062 11.599609 L 45.712891 11.599609 L 43.761719 11.599609 L 43.761719 10.78125 L 43.761719 9.9648438 L 44.818359 9.9648438 L 45.876953 9.9648438 L 45.876953 9.4648438 C 45.876953 8.9799338 45.859079 8.9472431 45.324219 8.4394531 C 44.529129 7.6846131 43.441535 6.8990538 42.546875 6.4335938 L 41.769531 6.0292969 L 41.722656 7.3007812 C 41.669146 8.7471613 41.474815 9.4818188 40.921875 10.324219 C 40.548015 10.893799 39.812671 11.427032 39.150391 11.607422 C 38.455811 11.796612 37.268612 11.751579 36.638672 11.511719 C 35.583622 11.109999 34.806451 10.127694 34.494141 8.8027344 C 34.336441 8.1334644 34.301004 6.2520263 34.433594 5.5664062 C 34.502344 5.2111263 34.492062 5.1617719 34.357422 5.2011719 z M 28.572266 8.0917969 L 27.847656 8.8613281 C 27.448896 9.2841081 27.08105 9.704375 27.03125 9.796875 C 26.949204 9.9498256 27.010174 9.9648438 27.759766 9.9648438 L 28.580078 9.9648438 L 28.576172 9.0292969 L 28.572266 8.0917969 z M 39.320312 12.496094 C 40.842403 13.059204 41.63285 14.425948 41.71875 16.642578 C 41.81973 19.246988 40.948301 20.977431 39.275391 21.494141 C 38.616101 21.697761 37.658999 21.736484 37.011719 21.583984 C 35.924269 21.327784 35.07553 20.494731 34.625 19.238281 C 34.33626 18.433051 34.257962 16.264614 34.482422 15.308594 C 34.804402 13.937224 35.567622 12.961851 36.638672 12.550781 C 37.315632 12.290951 38.688592 12.262384 39.320312 12.496094 z M 48.105469 12.511719 L 48.095703 16.1875 L 48.085938 19.861328 L 48.416016 19.861328 C 48.805326 19.861328 48.801504 19.871199 48.958984 18.574219 C 49.159614 16.921859 48.958075 15.086773 48.390625 13.376953 L 48.105469 12.511719 z M 30.804688 12.550781 C 31.881148 12.963921 32.671388 13.981542 32.955078 15.320312 C 33.135208 16.170663 33.133742 17.916976 32.951172 18.691406 C 32.647295 19.980402 31.897295 20.982147 30.910156 21.419922 C 30.242916 21.715042 28.916526 21.752064 28.134766 21.496094 C 27.016826 21.130054 26.135084 20.031942 25.839844 18.638672 C 25.662334 17.802402 25.663907 16.249726 25.841797 15.410156 C 26.144767 13.980226 26.901426 12.967868 27.978516 12.554688 C 28.749566 12.259018 30.039838 12.257231 30.804688 12.550781 z M 6.0351562 13.742188 C 5.9775263 13.799817 3.1150375 23.739125 3.1484375 23.765625 C 3.1579975 23.773225 5.3507513 24.406638 8.0195312 25.173828 C 10.688301 25.941028 12.958386 26.573125 13.066406 26.578125 C 13.244756 26.587145 13.395646 26.128834 14.691406 21.589844 C 15.476226 18.840654 16.100978 16.575541 16.080078 16.556641 C 15.977398 16.463651 6.0853563 13.691987 6.0351562 13.742188 z M 29.523438 13.935547 C 29.006878 13.882957 28.584132 14.125756 28.357422 14.603516 C 28.109632 15.125786 27.975509 16.336642 28.037109 17.507812 C 28.105969 18.817782 28.291827 19.475351 28.685547 19.806641 C 29.012577 20.081821 29.543623 20.136713 29.976562 19.939453 C 30.550912 19.677763 30.859019 18.311962 30.761719 16.451172 C 30.668409 14.666172 30.350098 14.019747 29.523438 13.935547 z M 38.212891 13.935547 C 37.856121 13.875146 37.476281 13.980606 37.212891 14.275391 C 36.843851 14.688431 36.744141 15.119584 36.681641 16.552734 C 36.599541 18.435294 36.853866 19.607846 37.410156 19.910156 C 37.548536 19.985336 37.84196 20.048781 38.0625 20.050781 C 38.6092 20.056021 39.003859 19.714312 39.193359 19.076172 C 39.527809 17.949982 39.464198 15.399314 39.080078 14.589844 C 38.904968 14.220824 38.569661 13.995948 38.212891 13.935547 z M 16.613281 19.623047 L 15.666016 22.9375 C 15.144866 24.76072 14.697222 26.310613 14.669922 26.382812 C 14.635022 26.474913 14.674534 26.499237 14.802734 26.460938 C 14.903204 26.430918 15.698332 26.203801 16.570312 25.957031 C 17.442292 25.710271 18.169047 25.496922 18.185547 25.482422 C 18.202087 25.467932 18.0204 24.915589 17.78125 24.255859 C 17.33135 23.014709 16.952301 21.59235 16.738281 20.34375 L 16.613281 19.623047 z M 46.882812 23.871094 C 46.699713 23.768624 46.306381 23.850781 45.988281 24.056641 C 45.697501 24.244821 45.430616 24.86318 45.353516 25.53125 L 45.292969 26.060547 L 45.740234 25.580078 C 45.985814 25.315838 46.378561 24.842727 46.613281 24.529297 C 46.981331 24.037757 47.017463 23.946494 46.882812 23.871094 z M 28.550781 24.027344 C 28.518691 23.995254 27.286304 24.236891 26.964844 24.337891 C 26.793844 24.391611 27.093537 24.812836 27.904297 25.660156 L 28.533203 26.318359 L 28.560547 25.191406 C 28.575247 24.571716 28.570581 24.047144 28.550781 24.027344 z M 3.3339844 25.375 C 3.5253744 26.32409 6.0614744 34.925231 6.1777344 35.019531 C 6.2591844 35.085541 6.3510594 35.140625 6.3808594 35.140625 C 6.4106994 35.140625 7.8170225 33.75487 9.5078125 32.0625 C 11.198613 30.37013 12.740894 28.876438 12.933594 28.742188 C 13.235924 28.531567 13.273944 28.463307 13.214844 28.242188 C 13.148534 27.994278 12.98549 27.938732 8.21875 26.576172 C 3.66311 25.273992 3.2956844 25.18498 3.3339844 25.375 z M 49.574219 32.953125 C 49.547499 32.873765 49.341806 32.976753 48.978516 33.251953 C 46.435566 35.178263 43.205866 36.593506 40.191406 37.103516 L 39.839844 37.164062 L 39.9375 37.521484 C 39.99136 37.718144 40.052666 37.9048 40.072266 37.9375 C 40.104033 37.98352 50.093536 35.181855 50.169922 35.105469 C 50.186902 35.088499 49.697479 33.319265 49.574219 32.953125 z M 28.759766 36.466797 C 28.649986 36.585057 25.880453 46.405097 25.939453 46.466797 C 25.970943 46.499727 28.190121 47.159534 30.869141 47.933594 C 33.548161 48.707654 35.791469 49.344609 35.855469 49.349609 C 35.919489 49.355049 36.016112 49.19818 36.070312 49 C 36.124462 48.80183 36.769626 46.543549 37.503906 43.980469 C 38.674296 39.896689 38.818941 39.310794 38.681641 39.246094 C 38.293241 39.063084 28.814466 36.407897 28.759766 36.466797 z M 27.279297 36.59375 C 27.258117 36.57255 27.056188 36.606122 26.830078 36.669922 L 26.419922 36.787109 L 26.394531 37.476562 C 26.381581 37.856023 26.323372 38.382244 26.263672 38.646484 C 26.119192 39.285794 25.587308 40.434074 25.205078 40.933594 C 25.035528 41.155154 23.341886 42.900127 21.441406 44.810547 L 17.986328 48.285156 L 21.193359 47.371094 C 22.957489 46.868494 24.434109 46.425972 24.474609 46.388672 C 24.566739 46.303812 27.331997 36.64645 27.279297 36.59375 z M 49.972656 36.609375 C 49.935876 36.572595 40.31845 39.257131 40.21875 39.332031 C 40.17504 39.364851 37.419922 48.987562 37.419922 49.107422 C 37.419922 49.154022 37.517819 49.170384 37.636719 49.146484 C 37.931569 49.087184 47.163891 46.452863 47.212891 46.414062 C 47.284631 46.357193 50.016156 36.652875 49.972656 36.609375 z "
     style="display:inline;fill:#000000"
     id="path815"
     d="M 37.203125,-0.1796875 C 31.899694,-0.32888543 26.611053,1.9474368 23.080078,6.3730469 19.804207,10.478937 18.557953,15.889925 19.712891,21.007812 c 0.41058,1.819426 1.313754,4.001304 2.285156,5.515626 l 0.410156,0.640624 -1.853515,1.855469 -1.865235,1.863281 -0.5,-0.251953 C 17.636157,30.352142 17.396162,30.298895 16.712891,30.296875 16.354576,30.295942 16.080309,30.270218 15.75,30.375 c -0.330309,0.104782 -0.687514,0.329806 -1.240234,0.798828 -1.105442,0.938043 -3.018517,2.874855 -7.0625004,6.929688 -4.0041835,4.014928 -5.8952935,5.88726 -6.80078122,6.958984 -0.45274389,0.535862 -0.66562328,0.879708 -0.76171876,1.199219 -0.0960955,0.31951 -0.0654319,0.583382 -0.0664062,0.9375 -0.001998,0.658214 0.0481662,1.11035 0.41992187,1.675781 0.37175564,0.565431 1.04275535,1.25058 2.29687495,2.501953 1.0543389,1.052037 1.6851964,1.662963 2.1640626,2.042969 0.4788661,0.380006 0.8199349,0.529418 1.2304687,0.632812 a 0.18597095,0.18597095 0 0 0 0.00195,0 0.18597095,0.18597095 0 0 0 0.035156,0.0059 c 0.00236,5.53e-4 0.00544,-5.46e-4 0.00781,0 0.6392574,0.147166 1.5562585,0.04006 2.2011718,-0.253906 0.2849278,-0.129877 0.6461927,-0.425519 1.7226563,-1.458985 1.0764635,-1.033465 2.8649295,-2.812119 5.9667965,-5.910156 4.027532,-4.022557 5.953543,-5.927528 6.886719,-7.029297 0.466588,-0.550884 0.69033,-0.90637 0.794922,-1.236328 0.104592,-0.329958 0.0791,-0.604848 0.07813,-0.962891 -0.0018,-0.683695 -0.05748,-0.921828 -0.335938,-1.474609 l -0.251953,-0.501953 1.865235,-1.865235 1.853515,-1.853515 0.640625,0.410156 c 3.042785,1.951855 7.000434,2.939233 10.585938,2.640625 2.502258,-0.208396 4.364843,-0.726641 6.537109,-1.820312 1.822657,-0.917646 2.987785,-1.76079 4.419922,-3.189454 2.787198,-2.780464 4.452424,-6.104394 5.009766,-10.001953 0.163919,-1.148528 0.164053,-3.617925 -0.002,-4.71289 C 53.185513,9.8135133 50.505,5.5316722 46.386719,2.7636719 43.571794,0.87168316 40.385165,-0.09016926 37.203125,-0.1796875 Z M 3.3242188,2.328125 c -0.00869,5.348e-4 -0.038552,0.00573 -0.039063,0.00586 -5.109e-4,1.342e-4 -0.083764,0.048608 -0.083984,0.048828 -1.564e-4,1.564e-4 -0.052662,0.1011165 -0.052734,0.1015625 -7.28e-5,4.46e-4 -0.00206,0.027775 -0.00195,0.035156 2.046e-4,0.014762 0.00106,0.020691 0.00195,0.027344 0.00178,0.013305 0.00343,0.023305 0.00586,0.035156 0.00486,0.023702 0.012367,0.052536 0.021484,0.089844 0.018236,0.074615 0.044695,0.1809948 0.080078,0.3144531 0.070766,0.2669167 0.1738026,0.6449201 0.2988281,1.0976563 0.250051,0.9054723 0.5876182,2.1087625 0.9296875,3.3164062 0.3420693,1.2076437 0.6885577,2.4196536 0.9550781,3.3378904 0.1332602,0.459119 0.2469524,0.844697 0.3300781,1.121094 0.041563,0.138198 0.074135,0.248347 0.099609,0.328125 0.012737,0.03989 0.024349,0.07242 0.033203,0.09766 0.00443,0.01262 0.00745,0.02249 0.011719,0.0332 0.00427,0.01072 0.00402,0.01674 0.023437,0.04687 1.102e-4,1.72e-4 0.019355,0.0252 0.019531,0.02539 1.767e-4,1.9e-4 0.011148,0.01178 0.015625,0.01563 0.00895,0.0077 0.016,0.01202 0.021484,0.01563 0.010969,0.0072 0.018881,0.01039 0.025391,0.01367 0.013018,0.0066 0.023316,0.01082 0.035156,0.01563 0.023681,0.0096 0.052197,0.02075 0.087891,0.0332 0.071387,0.02491 0.169701,0.05722 0.296875,0.09766 0.2543481,0.08088 0.6174902,0.192405 1.0625,0.326172 0.8900197,0.267534 2.1103477,0.623791 3.4453129,1.007813 1.334429,0.383866 2.553342,0.735228 3.443359,0.990234 0.445009,0.127503 0.806996,0.230582 1.060547,0.302734 0.126776,0.03608 0.227776,0.06457 0.296875,0.08399 0.03455,0.0097 0.06077,0.01814 0.08008,0.02344 0.01931,0.0053 0.04876,0.01141 0.05078,0.01172 0.0036,-0.0012 0.17167,-0.06421 0.171875,-0.06445 2.07e-4,-2.47e-4 0.04089,-0.07954 0.04102,-0.08008 1.21e-4,-5.4e-4 0.0036,-0.02709 0.0039,-0.03516 3.48e-4,-0.0081 2.21e-4,-0.0125 0,-0.01758 -8.82e-4,-0.0203 -0.0037,-0.03226 -0.0059,-0.04492 -0.0043,-0.02533 -0.0091,-0.05283 -0.01758,-0.08984 -0.01699,-0.07404 -0.04352,-0.179149 -0.07812,-0.3125 -0.06922,-0.266703 -0.171342,-0.647086 -0.296875,-1.103516 -0.251067,-0.91286 -0.595138,-2.130972 -0.94336,-3.353516 C 14.405684,9.004019 14.052643,7.7778683 13.779297,6.8496094 13.642624,6.3854799 13.525401,5.9968351 13.439453,5.71875 13.396479,5.5797074 13.360811,5.468657 13.333984,5.3886719 c -0.01341,-0.039993 -0.0233,-0.0717 -0.0332,-0.097656 -0.005,-0.012978 -0.01002,-0.0248 -0.01563,-0.037109 -0.0028,-0.00615 -0.005,-0.012896 -0.0098,-0.021484 -0.0024,-0.00429 -0.0056,-0.00932 -0.0098,-0.015625 -0.0042,-0.00631 -0.01913,-0.024958 -0.01953,-0.025391 -3.59e-4,-3.859e-4 -0.02215,-0.020249 -0.0293,-0.025391 -0.0071,-0.00514 -0.01292,-0.009 -0.01758,-0.011719 -0.0093,-0.00545 -0.0152,-0.00877 -0.02149,-0.011719 -0.01257,-0.0059 -0.02435,-0.00872 -0.03711,-0.013672 -0.02551,-0.00991 -0.05652,-0.021863 -0.0957,-0.035156 C 12.966561,5.0671643 12.857581,5.0329139 12.720703,4.9902344 12.446948,4.9048754 12.062228,4.7884606 11.603516,4.6523438 10.68609,4.3801101 9.471129,4.0277345 8.2578125,3.6796875 7.044496,3.3316405 5.8329201,2.9872087 4.9199219,2.734375 4.4634227,2.6079582 4.083021,2.5043603 3.8125,2.4335938 3.6772395,2.3982105 3.5690068,2.3714186 3.4921875,2.3535156 c -0.03841,-0.00895 -0.067889,-0.014875 -0.09375,-0.019531 -0.01293,-0.00233 -0.025007,-0.00447 -0.041016,-0.00586 -0.008,-6.946e-4 -0.015818,-0.00107 -0.033203,0 z M 22.267578,2.78125 c -7.44e-4,-7.03e-5 -0.03149,6.152e-4 -0.04297,0.00195 -0.02296,0.00268 -0.03661,0.00714 -0.04883,0.011719 0.01481,-0.00554 -0.03602,0.011489 -0.0957,0.029297 -0.05968,0.017808 -0.142896,0.041578 -0.248047,0.072266 -0.210302,0.061375 -0.505116,0.1468755 -0.863281,0.25 -0.716329,0.2062488 -1.685346,0.482719 -2.732422,0.78125 l -3.808594,1.0859375 a 0.18597095,0.18597095 0 0 0 -0.128906,0.2304687 l 0.181641,0.6328125 c 0.09955,0.3473818 0.622184,2.1762017 1.160156,4.0625 0.438194,1.5363939 0.721535,2.4817249 0.900391,2.9746089 0.04471,0.123222 0.08384,0.217466 0.11914,0.291016 0.0353,0.07355 0.03551,0.125867 0.146485,0.191406 0.02774,0.01639 0.07148,0.03344 0.123047,0.0293 0.05156,-0.0041 0.09974,-0.03163 0.126953,-0.05859 0.05443,-0.05394 0.05834,-0.09456 0.06641,-0.128907 0.01614,-0.06869 0.01758,-0.134351 0.01758,-0.222656 0,0.0084 0.0071,-0.05454 0.02148,-0.128906 0.01442,-0.07436 0.03582,-0.170526 0.0625,-0.283203 0.05336,-0.225355 0.127507,-0.511168 0.208985,-0.798828 0.87509,-3.0893905 2.251731,-5.5996855 4.361328,-7.9531255 0.202152,-0.2255202 0.369696,-0.4246656 0.480469,-0.5683594 0.05539,-0.071847 0.0954,-0.1276336 0.125,-0.1796875 0.0148,-0.026027 0.03449,-0.033491 0.03906,-0.1191406 5.72e-4,-0.010706 -0.0018,-0.038308 -0.002,-0.039063 -1.06e-4,-7.544e-4 -0.01341,-0.050195 -0.01367,-0.050781 -2.63e-4,-5.864e-4 -0.04059,-0.058177 -0.04102,-0.058594 -4.22e-4,-4.165e-4 -0.05996,-0.038818 -0.06055,-0.039063 -5.83e-4,-2.444e-4 -0.05394,-0.015555 -0.05469,-0.015625 z m 14.333984,0.3066406 c 1.016925,-0.010256 2.026386,0.0451 2.652344,0.171875 1.857679,0.3762218 3.849308,1.1865683 5.259766,2.1347656 5.949457,3.9995907 8.021157,11.5537408 4.935547,17.9902348 -1.933133,4.032451 -5.79392,6.976628 -10.210938,7.785156 -1.135112,0.207769 -3.479007,0.250252 -4.576172,0.08398 C 31.276412,30.740832 28.218918,29.067044 26.007812,26.515625 21.692039,21.535587 21.347285,14.367359 25.164062,8.96875 25.838181,8.0152489 27.494549,6.3578639 28.460938,5.671875 30.055285,4.5401326 31.896653,3.7427766 33.904297,3.3144531 34.560712,3.174408 35.584638,3.0981468 36.601562,3.0878906 Z m 0.595704,1.6953125 c -0.165582,0 -0.303771,-0.00597 -0.425782,0.099609 -0.12201,0.1055832 -0.139417,0.2367178 -0.175781,0.4082031 -0.0363,0.1711951 -0.05311,0.4421245 -0.06445,0.7871094 -0.01134,0.3449849 -0.01507,0.7558371 -0.0098,1.1621094 0.0053,0.4062723 0.01885,0.8086729 0.03906,1.140625 0.02022,0.331952 0.04156,0.5775062 0.08789,0.7363281 0.147785,0.5065711 0.44723,0.9601345 0.835937,1.1171875 0.672409,0.271688 1.454376,-0.0316 1.765625,-0.6875 0.141826,-0.2989179 0.22956,-0.7984184 0.289062,-1.3828125 0.0595,-0.5843941 0.08061,-1.2397035 0.04297,-1.7949219 -0.01768,-0.2609839 -0.04002,-0.5115493 -0.06055,-0.7070312 -0.01026,-0.097741 -0.01985,-0.1819933 -0.0293,-0.2480469 -0.0094,-0.066054 -0.0078,-0.095752 -0.0332,-0.1621094 -0.02781,-0.072472 -0.06557,-0.094544 -0.09375,-0.1132812 -0.02817,-0.018738 -0.0558,-0.03114 -0.08398,-0.042969 C 39.224891,5.0720461 39.160786,5.0517949 39.083984,5.03125 38.93038,4.9901603 38.732601,4.9507418 38.513672,4.9140625 38.075815,4.8407038 37.562388,4.7832031 37.197266,4.7832031 Z m -2.716797,0.2285157 c -0.08322,-0.020502 -0.131466,-0.00125 -0.175781,0.011719 -0.07293,0.021315 -0.424176,0.1143272 -0.759766,0.1992187 -0.676916,0.1712091 -1.821508,0.6024765 -2.462891,0.9296876 l -0.375,0.1914062 a 0.18597095,0.18597095 0 0 0 -0.101562,0.1660156 v 1.7285156 1.7265626 a 0.18597095,0.18597095 0 0 0 0.185547,0.1855472 h 1.060546 0.869141 l -0.02148,0.601562 -0.02148,0.615235 -2.970703,0.02344 -2.958984,0.02344 -0.002,-0.367187 a 0.18597095,0.18597095 0 0 0 0,-0.002 c -6.95e-4,-0.12597 -0.0019,-0.221677 -0.0059,-0.298828 -0.0039,-0.07715 -0.0038,-0.127184 -0.03125,-0.199219 -0.01374,-0.03602 -0.04115,-0.09637 -0.121093,-0.128906 -0.07994,-0.03253 -0.157937,-0.0031 -0.19336,0.01953 -0.07085,0.0452 -0.08918,0.08221 -0.123047,0.126953 -0.165944,0.219175 -0.392986,0.645869 -0.626953,1.130859 -0.233967,0.484991 -0.464985,1.015982 -0.601562,1.410157 -0.502185,1.449307 -0.634756,2.315217 -0.634766,4.115234 -2e-5,2.33599 0.369073,3.889946 1.386719,5.824219 l 0.460937,0.873047 a 0.18597095,0.18597095 0 0 0 0.34961,-0.07617 l 0.02734,-0.488281 v -0.002 c 0.0103,-0.172542 0.03023,-0.288095 0.04883,-0.339843 0.01871,-0.05204 0.007,-0.03045 0.0098,-0.03125 0.888386,-0.25607 2.14454,-0.433594 3.041016,-0.433594 h 0.873047 v 2.597656 2.785157 a 0.18597095,0.18597095 0 0 0 0.101562,0.166015 l 0.59961,0.304688 c 1.083887,0.547279 2.411918,0.94264 3.970703,1.189453 0.09058,0.01433 0.238994,0.02389 0.4375,0.0332 0.197929,0.0093 0.437284,0.01599 0.669922,0.01953 l 0.839843,0.01367 a 0.18597095,0.18597095 0 0 0 0.189453,-0.185547 v -2.738281 c 0,-0.754414 -0.0083,-1.43908 -0.02148,-1.9375 -0.0066,-0.24921 -0.01455,-0.452719 -0.02344,-0.595703 -0.0044,-0.07149 -0.008,-0.127451 -0.01367,-0.171875 -0.0028,-0.02221 -0.0055,-0.04043 -0.01172,-0.06445 -0.0031,-0.01201 -0.0064,-0.02365 -0.01953,-0.04883 -0.0033,-0.0063 -0.0077,-0.01491 -0.01367,-0.02344 -0.006,-0.0085 -0.02508,-0.02901 -0.02539,-0.0293 -3.07e-4,-2.91e-4 -0.05047,-0.03306 -0.05078,-0.0332 -3.09e-4,-1.42e-4 -0.08172,-0.01759 -0.08203,-0.01758 a 0.18597095,0.18597095 0 0 0 -0.002,0 c -0.03372,9.7e-4 -0.03808,0.0028 -0.05664,0.0059 -0.01856,0.003 -0.04138,0.0066 -0.06836,0.01172 -0.05395,0.01015 -0.123939,0.02552 -0.208985,0.04297 -0.170091,0.0349 -0.395497,0.0823 -0.632812,0.134765 -0.235122,0.052 -0.462402,0.100401 -0.638672,0.134766 -0.08814,0.01718 -0.162921,0.02974 -0.21875,0.03906 -2.21e-4,-0.0013 2.15e-4,-6.4e-4 0,-0.002 -0.01603,-0.09804 -0.02539,-0.285365 -0.02539,-0.5625 0,-0.223495 -0.0063,-0.382961 0.002,-0.478515 0.0083,-0.09555 0.01555,-0.104645 0.04492,-0.128907 0.05874,-0.04852 0.380204,-0.126463 1.087891,-0.271484 0.594816,-0.121919 1.296347,-0.189453 1.957031,-0.189453 h 0.859375 v 3.224609 c 0,1.036921 0.0092,1.889847 0.02539,2.486328 0.0081,0.298241 0.01774,0.532247 0.0293,0.695313 0.0058,0.08153 0.01173,0.144761 0.01953,0.195313 0.0039,0.02528 0.0067,0.04626 0.01563,0.07422 0.0045,0.01398 0.0081,0.02996 0.02539,0.05664 0.0043,0.0067 0.01038,0.01319 0.01758,0.02148 0.0072,0.0083 0.02887,0.02702 0.0293,0.02734 4.26e-4,3.26e-4 0.04645,0.02718 0.04688,0.02734 4.27e-4,1.63e-4 0.06793,0.01172 0.06836,0.01172 0.07523,0 0.130771,-0.01576 0.214844,-0.03711 0.08407,-0.02135 0.184739,-0.04967 0.300781,-0.08594 0.232083,-0.07254 0.520487,-0.17127 0.818359,-0.279297 0.595744,-0.216054 1.220475,-0.464702 1.525391,-0.625 l 0.642578,-0.337891 a 0.18597095,0.18597095 0 0 0 0.09961,-0.162109 l 0.01172,-1.033203 c 0.02117,-2.078563 0.699206,-3.453407 1.935547,-4.060547 0.247592,-0.121597 0.37743,-0.177233 0.589844,-0.210938 0.212026,-0.03364 0.517983,-0.04142 1.068359,-0.04492 l 1.199219,-0.0059 a 0.18597095,0.18597095 0 0 0 0.169922,-0.111328 l 0.166015,-0.376953 0.166016,-0.376953 a 0.18597095,0.18597095 0 0 0 -0.167969,-0.259766 l -2.255859,-0.02734 -2.066406,-0.02344 0.02148,-0.59961 a 0.18597095,0.18597095 0 0 0 0,-0.002 l 0.02148,-0.615234 0.859375,-0.02344 1.033203,-0.02734 A 0.18597095,0.18597095 0 0 0 46.0625,19.855469 v -2.878907 c 0,-0.810478 -0.0098,-1.53238 -0.02539,-2.052734 -0.0078,-0.260177 -0.01669,-0.468804 -0.02734,-0.617187 -0.0053,-0.07419 -0.01057,-0.132826 -0.01758,-0.179688 -0.0035,-0.02343 -0.0057,-0.04214 -0.01367,-0.06836 -0.004,-0.01311 -0.0076,-0.02867 -0.02344,-0.05469 -0.004,-0.0065 -0.0089,-0.01316 -0.01563,-0.02148 -0.0068,-0.0083 -0.02697,-0.02704 -0.02734,-0.02734 -3.72e-4,-3.06e-4 -0.04845,-0.02914 -0.04883,-0.0293 -3.74e-4,-1.53e-4 -0.07189,-0.01367 -0.07227,-0.01367 -0.03412,0 -0.04178,0.0029 -0.0625,0.0059 -0.02072,0.0029 -0.04637,0.0067 -0.07617,0.01172 -0.0596,0.01001 -0.137347,0.02356 -0.230469,0.04101 -0.186244,0.03491 -0.429668,0.08367 -0.6875,0.136719 -0.256558,0.05278 -0.494161,0.09976 -0.669922,0.134766 -0.04316,0.0086 -0.06851,0.01463 -0.103515,0.02148 -5.11e-4,-0.0097 -0.0015,-0.01308 -0.002,-0.02344 -0.0065,-0.139696 -0.01172,-0.33649 -0.01172,-0.552734 v -0.642578 l 0.933593,-0.1875 c 0.734133,-0.146955 1.390908,-0.212907 2.123047,-0.210938 l 0.916016,0.002 -0.0098,3.539062 -0.0098,3.673828 a 0.18597095,0.18597095 0 0 0 0.185547,0.185547 h 0.330078 c 0.09654,0 0.18332,0.008 0.287109,-0.02734 0.103789,-0.03531 0.196007,-0.132787 0.242187,-0.242187 0.09236,-0.218801 0.120494,-0.533274 0.199219,-1.181641 0.204412,-1.683506 -0.0023,-3.542265 -0.578125,-5.277344 L 48.28125,12.453125 a 0.18597095,0.18597095 0 0 0 -0.01953,-0.04102 0.18597095,0.18597095 0 0 0 -0.0098,-0.03125 l -0.210937,-0.43164 -0.208985,-0.429688 A 0.18597095,0.18597095 0 0 0 47.664062,11.414062 H 45.712891 43.947266 V 10.78125 10.150391 h 0.871093 1.058594 A 0.18597095,0.18597095 0 0 0 46.0625,9.9648438 v -0.5 c 0,-0.2447398 -0.0038,-0.4177929 -0.09766,-0.5917969 C 45.871006,8.6990429 45.72125,8.5592423 45.453125,8.3046875 44.643347,7.5359028 43.548728,6.7460498 42.632812,6.2695312 L 41.855469,5.8652344 a 0.18597095,0.18597095 0 0 0 -0.271485,0.15625 l -0.04687,1.2714844 c -0.05298,1.432083 -0.234792,2.1120402 -0.771484,2.9296872 -0.341696,0.520578 -1.05776,1.039935 -1.664063,1.205078 -0.63552,0.173104 -1.83192,0.125124 -2.396484,-0.08984 -0.989222,-0.376656 -1.728083,-1.30024 -2.029297,-2.5781254 -0.141283,-0.5995997 -0.179923,-2.5409094 -0.06055,-3.1582031 0.03501,-0.1809144 0.06658,-0.2723308 0.03906,-0.4042969 -0.01376,-0.065983 -0.09061,-0.1650449 -0.173828,-0.1855468 z M 28.566406,7.90625 A 0.18597095,0.18597095 0 0 0 28.4375,7.9648438 L 27.712891,8.734375 c -0.2009,0.2130011 -0.394827,0.4238642 -0.544922,0.5957031 -0.07505,0.08592 -0.139389,0.1626957 -0.189453,0.2246094 -0.05007,0.061914 -0.08144,0.098789 -0.111328,0.1542969 -0.02565,0.047809 -0.0731,0.1074037 -0.04297,0.2246094 0.01506,0.058603 0.06039,0.1116972 0.101562,0.1386722 0.04117,0.02697 0.07802,0.03825 0.115235,0.04687 0.148872,0.0345 0.342712,0.03125 0.71875,0.03125 h 0.820312 a 0.18597095,0.18597095 0 0 0 0.185547,-0.1855472 l -0.0039,-0.9355469 -0.0039,-0.9375 A 0.18597095,0.18597095 0 0 0 28.566406,7.90625 Z m 0.828125,4.617188 c 0.497512,-6.65e-4 0.9941,0.06697 1.34375,0.201171 1.009518,0.387448 1.762022,1.345811 2.035157,2.634766 0.169391,0.799658 0.164389,2.575182 -0.0039,3.289063 -0.293134,1.243428 -1.0126,2.192255 -1.935547,2.601562 -0.589129,0.260572 -1.923016,0.305277 -2.640625,0.07031 -1.040899,-0.340815 -1.888092,-1.3815 -2.171875,-2.720703 -0.167756,-0.79032 -0.166346,-2.356083 0.002,-3.15039 0.293645,-1.385924 1.012037,-2.333472 2.021484,-2.720703 0.353265,-0.135465 0.852097,-0.204414 1.349609,-0.205078 z m 8.605469,0 c 0.491773,-0.0101 0.983427,0.0457 1.255859,0.146484 0.724954,0.268203 1.262199,0.718789 1.640625,1.373047 0.378427,0.654258 0.594566,1.519683 0.636719,2.607422 0.04963,1.279918 -0.141853,2.332347 -0.537109,3.117187 -0.395256,0.78484 -0.986162,1.30506 -1.775391,1.548828 -0.617159,0.190608 -1.5654,0.227444 -2.166015,0.08594 -1.020896,-0.24052 -1.819607,-1.015377 -2.253907,-2.226563 -0.128271,-0.357719 -0.226678,-1.09982 -0.253906,-1.851562 -0.02723,-0.751743 0.01321,-1.529787 0.117187,-1.972657 0.311519,-1.326812 1.034243,-2.240552 2.041016,-2.626953 C 37.006424,12.608947 37.508227,12.533535 38,12.523438 Z M 6.03125,13.556641 c -0.00815,2.59e-4 -0.034661,0.0038 -0.035156,0.0039 -4.953e-4,1.1e-4 -0.091601,0.05058 -0.091797,0.05078 -2.251e-4,2.25e-4 -0.024904,0.02967 -0.029297,0.03711 -0.00439,0.0074 -0.00783,0.01159 -0.00977,0.01562 -0.00387,0.0081 -0.00575,0.01436 -0.00781,0.01953 -0.00412,0.01035 -0.00766,0.01955 -0.011719,0.03125 -0.00811,0.02341 -0.016976,0.05495 -0.029297,0.09375 -0.024642,0.07761 -0.059569,0.187059 -0.1015624,0.326172 -0.083987,0.278226 -0.1998478,0.672166 -0.3378907,1.142578 -0.2760858,0.940823 -0.6386563,2.189602 -0.9980469,3.4375 -0.3593905,1.247897 -0.7157647,2.4947 -0.9804687,3.43164 -0.132352,0.46847 -0.2409669,0.859419 -0.3164063,1.134766 -0.03772,0.137673 -0.068283,0.246203 -0.087891,0.322266 -0.0098,0.03803 -0.016251,0.06675 -0.021484,0.08984 -0.00262,0.01155 -0.00582,0.02134 -0.00781,0.0332 -9.971e-4,0.0059 -0.0011,0.01208 -0.00195,0.02539 -4.249e-4,0.0067 -4.24e-5,0.0328 0,0.0332 4.25e-5,4.05e-4 0.070182,0.12685 0.070312,0.126953 3.74e-5,3e-5 0.037005,0.02144 0.037109,0.02148 1.039e-4,4.9e-5 0.00744,0.0049 0.00977,0.0059 0.00465,0.0019 0.00773,0.0012 0.00977,0.002 0.00406,0.0014 0.00668,0.0029 0.00977,0.0039 0.00617,0.002 0.012415,0.0051 0.021484,0.0078 0.018139,0.0055 0.044846,0.01164 0.078125,0.02148 0.066558,0.01969 0.1626785,0.04773 0.2871093,0.08398 0.2488618,0.07251 0.6072678,0.177066 1.0488281,0.304687 0.8831208,0.255243 2.0991406,0.606621 3.4335938,0.990235 1.3348074,0.383721 2.569005,0.733523 3.484375,0.988281 0.457685,0.127379 0.836547,0.230474 1.107422,0.302734 0.135437,0.03613 0.24273,0.06425 0.322265,0.08398 0.03977,0.0099 0.0716,0.01772 0.09766,0.02344 0.02606,0.0057 0.03369,0.0097 0.07813,0.01172 0.06244,0.0026 0.1452,-0.02525 0.197265,-0.07031 0.05252,-0.04546 0.0856,-0.09881 0.121094,-0.166015 0.07098,-0.134417 0.147607,-0.335701 0.259766,-0.679688 0.224317,-0.687973 0.586425,-1.937293 1.234375,-4.207031 0.392535,-1.375034 0.744195,-2.627927 0.996094,-3.541016 0.125949,-0.456544 0.226677,-0.82859 0.294921,-1.08789 0.03412,-0.12965 0.0609,-0.231098 0.07813,-0.302735 0.0086,-0.03582 0.01496,-0.06282 0.01953,-0.08594 0.0023,-0.01156 0.0042,-0.02141 0.0059,-0.03516 8.28e-4,-0.0069 1.5e-4,-0.01547 0,-0.03125 -7.5e-5,-0.0079 -0.0019,-0.03474 -0.002,-0.03516 -4.2e-5,-2.1e-4 -0.01361,-0.03892 -0.01367,-0.03906 -6.2e-5,-1.42e-4 -0.04484,-0.06438 -0.04492,-0.06445 -4.01e-4,-3.63e-4 -0.02092,-0.01544 -0.02734,-0.01953 -0.0064,-0.0041 -0.0114,-0.0075 -0.01563,-0.0098 -0.0085,-0.0045 -0.01355,-0.0072 -0.01953,-0.0098 -0.01196,-0.0052 -0.02426,-0.009 -0.03711,-0.01367 -0.02569,-0.0094 -0.05741,-0.02012 -0.09766,-0.0332 -0.0805,-0.02618 -0.193107,-0.06102 -0.333984,-0.103515 -0.281754,-0.08499 -0.67675,-0.199759 -1.148437,-0.335938 -0.943374,-0.272358 -2.191084,-0.62733 -3.4375,-0.976562 C 9.8414738,14.566783 8.596992,14.223202 7.6601562,13.96875 7.1917384,13.841524 6.8003691,13.7356 6.5234375,13.664062 c -0.1384658,-0.03577 -0.2481636,-0.06186 -0.3261719,-0.08008 -0.039004,-0.0091 -0.070245,-0.01672 -0.095703,-0.02148 -0.012729,-0.0024 -0.022165,-0.0043 -0.037109,-0.0059 -0.00747,-7.76e-4 -0.016898,-5.19e-4 -0.033203,0 z M 29.542969,13.75 c -0.584105,-0.05947 -1.098883,0.236835 -1.353516,0.773438 -0.284363,0.599355 -0.400587,1.802119 -0.337891,2.99414 0.06961,1.324228 0.250431,2.040867 0.714844,2.431641 0.39359,0.331187 0.989336,0.386601 1.486328,0.160156 0.386832,-0.176251 0.607832,-0.642211 0.75,-1.273437 0.142169,-0.631227 0.19384,-1.451546 0.144532,-2.394532 -0.04717,-0.902339 -0.146817,-1.529025 -0.363282,-1.96875 C 30.36752,14.032931 30.00163,13.796717 29.542969,13.75 Z m 8.701172,0.002 c -0.413312,-0.06997 -0.862032,0.0558 -1.169922,0.400391 -0.200395,0.224287 -0.339598,0.476319 -0.423828,0.83789 -0.08423,0.361571 -0.122895,0.834624 -0.154297,1.554688 -0.04149,0.951309 6.13e-4,1.72705 0.128906,2.318359 0.128293,0.59131 0.340944,1.017299 0.697266,1.210938 0.196708,0.106869 0.483578,0.159799 0.738281,0.162109 0.312516,0.003 0.598016,-0.09752 0.822265,-0.291016 0.22425,-0.193497 0.386082,-0.472248 0.488282,-0.816406 0.179048,-0.602906 0.243136,-1.52751 0.220703,-2.419922 -0.02243,-0.892411 -0.120963,-1.729731 -0.34375,-2.199218 C 39.046065,14.084117 38.6569,13.821833 38.244141,13.751953 Z M 16.59375,19.4375 a 0.18597095,0.18597095 0 0 0 -0.160156,0.134766 l -0.947266,3.314453 c -0.260535,0.91147 -0.501251,1.754775 -0.68164,2.378906 -0.0902,0.312066 -0.164927,0.568436 -0.21875,0.751953 -0.02691,0.09176 -0.04879,0.16464 -0.06445,0.216797 -0.01566,0.05216 -0.03117,0.09732 -0.02539,0.08203 -0.01381,0.03643 -0.02659,0.07516 -0.02344,0.132813 0.0031,0.05765 0.04471,0.144358 0.107422,0.18164 0.125419,0.07456 0.195925,0.03155 0.275391,0.0078 0.08911,-0.02663 0.89391,-0.255258 1.765625,-0.501953 0.436476,-0.123518 0.83722,-0.239916 1.130859,-0.326172 0.14682,-0.04313 0.266056,-0.07913 0.351563,-0.105469 0.04275,-0.01317 0.07593,-0.02272 0.101562,-0.03125 0.01281,-0.0043 0.02471,-0.0078 0.03516,-0.01172 0.0052,-0.002 0.01012,-0.0045 0.01758,-0.0078 0.0037,-0.0017 0.0069,-0.0042 0.01367,-0.0078 0.0034,-0.0018 0.01346,-0.0077 0.01367,-0.0078 2.16e-4,-1.38e-4 0.02331,-0.01551 0.02344,-0.01563 1.29e-4,-1.13e-4 0.037,-0.0467 0.03711,-0.04687 1.05e-4,-1.79e-4 0.0175,-0.03491 0.01758,-0.03516 1.62e-4,-4.88e-4 0.0069,-0.03451 0.0078,-0.04492 0.0019,-0.02083 8.84e-4,-0.03181 0,-0.04102 -0.0018,-0.0184 -0.0031,-0.02827 -0.0059,-0.04102 -0.0055,-0.02548 -0.01361,-0.05372 -0.02344,-0.08789 -0.01966,-0.06834 -0.04889,-0.160968 -0.08594,-0.273438 -0.0741,-0.224939 -0.178728,-0.528063 -0.298828,-0.859375 -0.445792,-1.229817 -0.82334,-2.645116 -1.035156,-3.880859 l -0.125,-0.720703 A 0.18597095,0.18597095 0 0 0 16.59375,19.4375 Z m 30.126953,4.201172 c -0.08809,-0.0043 -0.178333,0.008 -0.271484,0.02734 -0.186303,0.03873 -0.383574,0.118581 -0.5625,0.234375 -0.201601,0.130466 -0.345781,0.359714 -0.466797,0.640625 -0.121016,0.28091 -0.211351,0.61693 -0.251953,0.96875 l -0.06055,0.529296 a 0.18597095,0.18597095 0 0 0 0.322266,0.148438 l 0.447265,-0.480469 c 0.253626,-0.272897 0.644206,-0.745178 0.884766,-1.066406 0.185584,-0.247853 0.291615,-0.387981 0.347656,-0.525391 0.02802,-0.0687 0.04548,-0.155061 0.01367,-0.242187 -0.0318,-0.08713 -0.09773,-0.135667 -0.148438,-0.164063 a 0.18597095,0.18597095 0 0 0 -0.002,0 c -0.07977,-0.04465 -0.16386,-0.06597 -0.251953,-0.07031 z M 28.53125,23.837891 c -0.02177,6.3e-5 -0.04052,0.0017 -0.0625,0.0039 -0.04395,0.0044 -0.09766,0.01328 -0.162109,0.02344 -0.1289,0.02032 -0.29883,0.05111 -0.476563,0.08594 -0.355466,0.06965 -0.736773,0.150827 -0.921875,0.208984 -0.06193,0.01946 -0.134217,0.08022 -0.160156,0.152344 -0.02594,0.07212 -0.01629,0.133852 -0.002,0.185547 0.02867,0.10339 0.08481,0.193536 0.167968,0.310547 0.166326,0.234021 0.44736,0.553957 0.855469,0.980468 l 0.628907,0.658204 a 0.18597095,0.18597095 0 0 0 0.320312,-0.125 l 0.02734,-1.126954 c 0.0074,-0.311554 0.0096,-0.598511 0.0078,-0.8125 -9.14e-4,-0.106994 -0.0026,-0.195599 -0.0059,-0.261718 -0.0016,-0.03306 -0.003,-0.05919 -0.0059,-0.08398 -0.0014,-0.0124 -0.0024,-0.0252 -0.0059,-0.04102 -0.0017,-0.0079 -0.0046,-0.01533 -0.0098,-0.0293 -0.0026,-0.007 -0.01142,-0.02679 -0.01172,-0.02734 -3.02e-4,-5.54e-4 -0.03289,-0.04266 -0.0332,-0.04297 -2.51e-4,-2.5e-4 -0.04257,-0.03299 -0.04297,-0.0332 -3.96e-4,-2.17e-4 -0.02084,-0.01078 -0.0293,-0.01367 -0.01691,-0.0058 -0.0298,-0.0065 -0.03906,-0.0078 -0.01853,-0.0027 -0.02818,-0.0039 -0.03906,-0.0039 z m -25.0878906,1.27539 c -0.068893,-0.0014 -0.1400603,-0.0036 -0.21875,0.06445 -0.039345,0.03401 -0.066368,0.08907 -0.074219,0.132813 -0.00785,0.04374 -0.00315,0.07626 0.00195,0.101562 0.05282,0.26193 0.2449568,0.965948 0.5117187,1.908203 0.2667619,0.942256 0.6050092,2.109116 0.9414063,3.25 0.336397,1.140885 0.6702667,2.2542 0.9277343,3.089844 0.1287338,0.417822 0.2387848,0.767487 0.3203125,1.015625 0.040764,0.12407 0.073275,0.222886 0.099609,0.294922 0.013167,0.03602 0.024451,0.06499 0.035156,0.08984 0.00535,0.01243 0.01046,0.02381 0.017578,0.03711 0.00356,0.0066 0.00897,0.01364 0.015625,0.02344 0.00333,0.0049 0.00584,0.01059 0.011719,0.01758 0.00588,0.007 0.02689,0.02502 0.027344,0.02539 0.047639,0.03861 0.096352,0.072 0.1425781,0.09961 0.023113,0.0138 0.045812,0.02633 0.070312,0.03711 0.024501,0.01078 0.042684,0.02539 0.1074219,0.02539 1.165e-4,0 0.04867,-0.0058 0.048828,-0.0059 1.585e-4,-4.2e-5 0.023237,-0.0077 0.023437,-0.0078 4.006e-4,-1.69e-4 0.020045,-0.0105 0.025391,-0.01367 0.010692,-0.0063 0.014679,-0.01006 0.019531,-0.01367 0.00971,-0.0072 0.017497,-0.01278 0.025391,-0.01953 0.015787,-0.0135 0.033424,-0.02934 0.056641,-0.05078 0.046434,-0.04288 0.1116496,-0.104952 0.1933594,-0.183594 0.1634195,-0.157284 0.3941234,-0.38284 0.6777344,-0.662109 0.5672219,-0.558539 1.3418218,-1.329313 2.1875,-2.175782 0.8447531,-0.845537 1.6534141,-1.64139 2.2734371,-2.242187 0.310012,-0.300399 0.572758,-0.552219 0.769532,-0.736328 0.196774,-0.18411 0.346491,-0.312698 0.357421,-0.320313 0.155897,-0.108606 0.262289,-0.182507 0.332032,-0.30664 0.06974,-0.124134 0.05679,-0.269751 0.02344,-0.394532 -0.02104,-0.07868 -0.09398,-0.20473 -0.220703,-0.283203 -0.126727,-0.07847 -0.307665,-0.150615 -0.634766,-0.259765 -0.6542,-0.218302 -1.886057,-0.572597 -4.2695308,-1.253907 C 5.9915176,25.745339 4.7620426,25.399533 4.0976562,25.236328 3.7654631,25.154726 3.5811449,25.115989 3.4433594,25.113281 Z m 46.0605466,7.628907 c -0.07205,0.007 -0.125193,0.03029 -0.185547,0.06055 -0.120706,0.06052 -0.264961,0.159723 -0.451171,0.300782 -2.517487,1.907021 -5.72682,3.31219 -8.707032,3.816406 l -0.351562,0.06055 a 0.18597095,0.18597095 0 0 0 -0.148438,0.232422 l 0.09766,0.357421 c 0.02772,0.101211 0.05838,0.198635 0.08398,0.277344 0.0128,0.03936 0.02446,0.0747 0.03516,0.103516 0.0107,0.02882 0.01213,0.04361 0.03516,0.08203 a 0.18597095,0.18597095 0 0 0 0.0078,0.0098 c 1.24e-4,1.8e-4 0.112854,0.07608 0.113281,0.07617 4.27e-4,9.3e-5 0.03079,0.0038 0.03906,0.0039 0.01655,1.66e-4 0.0242,8.67e-4 0.03125,0 0.01409,-0.0017 0.02485,-0.0054 0.03711,-0.0078 0.02451,-0.0049 0.05508,-0.01024 0.09375,-0.01953 0.07733,-0.01859 0.185433,-0.04765 0.324219,-0.08398 0.277572,-0.07268 0.671153,-0.17786 1.142578,-0.306641 0.942851,-0.257562 2.197375,-0.606793 3.453125,-0.958984 1.25575,-0.352191 2.512524,-0.707601 3.460937,-0.980469 0.474207,-0.136434 0.872612,-0.251762 1.154297,-0.335937 0.140843,-0.04209 0.252542,-0.07618 0.332031,-0.101563 0.03974,-0.01269 0.07091,-0.02436 0.0957,-0.0332 0.01239,-0.0044 0.02169,-0.0069 0.0332,-0.01172 0.0058,-0.0024 0.01274,-0.0053 0.02148,-0.0098 0.0044,-0.0023 0.0083,-0.0051 0.01563,-0.0098 0.0073,-0.0047 0.0329,-0.02705 0.0332,-0.02734 6.7e-5,-6.6e-5 0.04096,-0.05847 0.04102,-0.05859 5.1e-5,-1.19e-4 0.0097,-0.03498 0.0098,-0.03516 7.2e-5,-3.45e-4 0.0038,-0.02743 0.0039,-0.03516 2.98e-4,-0.01545 7.23e-4,-0.02284 0,-0.0293 -0.0014,-0.01291 -0.004,-0.02174 -0.0059,-0.03125 -0.0036,-0.01902 -0.0074,-0.03971 -0.01367,-0.06641 -0.01263,-0.0534 -0.03178,-0.127117 -0.05469,-0.214844 -0.04581,-0.175455 -0.109743,-0.408581 -0.177734,-0.654297 -0.135983,-0.491432 -0.286735,-1.018424 -0.353516,-1.216797 -0.01679,-0.04987 -0.06191,-0.106355 -0.113281,-0.130859 -0.05137,-0.0245 -0.09678,-0.02499 -0.132813,-0.02148 z M 28.748047,36.28125 c -0.009,7.55e-4 -0.03856,0.0057 -0.03906,0.0059 -5e-4,1.48e-4 -0.08572,0.0525 -0.08594,0.05273 -4.29e-4,4.62e-4 -0.01533,0.01915 -0.01953,0.02539 -0.0042,0.0062 -0.0073,0.01129 -0.0098,0.01563 -0.0049,0.0087 -0.0069,0.01519 -0.0098,0.02148 -0.0058,0.0126 -0.01054,0.02385 -0.01563,0.03711 -0.01017,0.02652 -0.02154,0.059 -0.03516,0.09961 -0.02723,0.08122 -0.06216,0.193214 -0.105469,0.333985 -0.08661,0.281541 -0.204583,0.674961 -0.341796,1.144531 -0.274428,0.939141 -0.629031,2.180743 -0.978516,3.419922 -0.349486,1.239179 -0.693946,2.476103 -0.947266,3.408203 -0.126659,0.46605 -0.230045,0.856445 -0.300781,1.132813 -0.03537,0.138183 -0.06226,0.247549 -0.08008,0.326172 -0.0089,0.03931 -0.01691,0.07112 -0.02148,0.09766 -0.0023,0.01327 -0.0026,0.0247 -0.0039,0.04102 -6.32e-4,0.0082 -0.0012,0.01589 0,0.0332 6.16e-4,0.0087 0.0057,0.03657 0.0059,0.03711 1.44e-4,5.38e-4 0.04469,0.08179 0.04492,0.08203 2.46e-4,2.57e-4 0.02775,0.02252 0.03516,0.02734 0.0074,0.0048 0.01134,0.0075 0.01563,0.0098 0.0086,0.0045 0.01416,0.0075 0.01953,0.0098 0.01073,0.0046 0.02013,0.0076 0.03125,0.01172 0.02224,0.0081 0.05043,0.0176 0.08594,0.0293 0.07101,0.02339 0.171078,0.05623 0.298828,0.0957 0.255498,0.07894 0.6212,0.187294 1.068359,0.320312 0.894317,0.266037 2.119093,0.624579 3.458984,1.011719 1.33974,0.387097 2.570501,0.741311 3.47461,0.998047 0.452054,0.128368 0.822172,0.231997 1.083984,0.304687 0.130906,0.03635 0.234778,0.06428 0.308594,0.08398 0.03691,0.0099 0.06545,0.01785 0.08789,0.02344 0.01122,0.0028 0.02045,0.0059 0.0293,0.0078 0.0088,0.002 0.0094,0.0035 0.03906,0.0059 0.09359,0.0071 0.152754,-0.03744 0.191406,-0.07227 0.039,-0.03514 0.06605,-0.07337 0.0918,-0.115235 0.0515,-0.08374 0.09378,-0.184659 0.125,-0.298828 0.04984,-0.182398 0.699336,-2.454575 1.433594,-5.017578 0.585285,-2.042204 0.913146,-3.209251 1.080078,-3.880859 0.08347,-0.335805 0.12607,-0.544986 0.140625,-0.69336 0.0073,-0.07419 0.01086,-0.132654 -0.0039,-0.197265 -0.01477,-0.06461 -0.06687,-0.147804 -0.138672,-0.181641 -0.05102,-0.02404 -0.104524,-0.04019 -0.197266,-0.07031 -0.09274,-0.03012 -0.216335,-0.06808 -0.365234,-0.113281 -0.297799,-0.09041 -0.699392,-0.210662 -1.171875,-0.347656 -0.944967,-0.273988 -2.167896,-0.621164 -3.38086,-0.960937 -1.212964,-0.339774 -2.416962,-0.670305 -3.320312,-0.914063 -0.451675,-0.121879 -0.826837,-0.223252 -1.09375,-0.291016 -0.133457,-0.03388 -0.240551,-0.05917 -0.316406,-0.07617 -0.03793,-0.0085 -0.06792,-0.01517 -0.09375,-0.01953 -0.01292,-0.0022 -0.02264,-0.0027 -0.03906,-0.0039 -0.0082,-5.87e-4 -0.01712,-0.0015 -0.03516,0 z m -1.525391,0.121094 c -0.03824,0.0017 -0.07579,0.006 -0.121094,0.01367 -0.09061,0.01527 -0.203491,0.04071 -0.322265,0.07422 l -0.410156,0.117188 a 0.18597095,0.18597095 0 0 0 -0.134766,0.171875 l -0.02539,0.689453 a 0.18597095,0.18597095 0 0 0 0,0.002 c -0.0125,0.366334 -0.07322,0.896946 -0.126953,1.134766 -0.133403,0.590295 -0.676145,1.75843 -1.02539,2.214843 -0.02318,0.03029 -0.167536,0.192419 -0.378907,0.416016 -0.21137,0.223598 -0.49717,0.522049 -0.83789,0.873047 -0.681441,0.701995 -1.579543,1.615591 -2.529297,2.570313 a 0.18597095,0.18597095 0 0 0 -0.002,0 l -3.455078,3.474609 a 0.18597095,0.18597095 0 0 0 0.183593,0.310547 l 3.207032,-0.914063 c 0.882747,-0.251494 1.693162,-0.489501 2.289062,-0.667969 0.29795,-0.08923 0.543294,-0.163589 0.716797,-0.21875 0.08675,-0.02758 0.154333,-0.05064 0.205078,-0.06836 0.02537,-0.0089 0.04626,-0.01613 0.06445,-0.02344 0.0091,-0.0037 0.01715,-0.0068 0.02734,-0.01172 0.0051,-0.0025 0.0119,-0.0053 0.01953,-0.0098 0.0076,-0.0045 0.03257,-0.02481 0.0332,-0.02539 3.6e-4,-3.32e-4 0.02213,-0.0239 0.02734,-0.03125 0.0052,-0.0074 0.009,-0.01292 0.01172,-0.01758 0.0053,-0.0093 0.0089,-0.01531 0.01172,-0.02148 0.0057,-0.01234 0.0089,-0.02257 0.01367,-0.03516 0.0096,-0.02517 0.02011,-0.05669 0.0332,-0.0957 0.02618,-0.07803 0.06113,-0.187343 0.103515,-0.324219 0.08478,-0.273752 0.200127,-0.657704 0.335938,-1.117188 0.271621,-0.918967 0.624424,-2.13541 0.972656,-3.351562 0.348232,-1.216152 0.691805,-2.432689 0.945313,-3.347656 0.126753,-0.457484 0.231578,-0.838549 0.302734,-1.109375 0.03558,-0.135413 0.06395,-0.243689 0.08203,-0.320313 0.009,-0.03831 0.01479,-0.0683 0.01953,-0.09375 0.0024,-0.01273 0.0044,-0.02362 0.0059,-0.03906 7.54e-4,-0.0077 7.54e-4,-0.01631 0,-0.0332 -3.77e-4,-0.0084 -0.0038,-0.03661 -0.0039,-0.03711 -1.21e-4,-4.98e-4 -0.05058,-0.08769 -0.05078,-0.08789 -6.62e-4,-6.63e-4 -0.02981,-0.02595 -0.04297,-0.0332 -0.01316,-0.0072 -0.02535,-0.01234 -0.03516,-0.01563 -0.01961,-0.0066 -0.0344,-0.0082 -0.04687,-0.0098 -0.02496,-0.0031 -0.04338,-0.0028 -0.0625,-0.002 z m 22.742188,0.02148 c -0.014,4.09e-4 -0.021,0.0011 -0.02734,0.002 -0.01268,0.0018 -0.02153,0.0034 -0.0332,0.0059 -0.02334,0.0048 -0.05255,0.0124 -0.08984,0.02148 -0.0746,0.01817 -0.180562,0.04492 -0.314453,0.08008 -0.267782,0.07032 -0.647081,0.172957 -1.101562,0.296875 -0.908963,0.247837 -2.119101,0.581897 -3.330079,0.919922 -1.210977,0.338025 -2.423032,0.679606 -3.339843,0.941406 -0.458406,0.1309 -0.841626,0.241463 -1.115235,0.322266 -0.136804,0.0404 -0.246467,0.07332 -0.324219,0.09766 -0.03888,0.01217 -0.06958,0.02293 -0.09375,0.03125 -0.01208,0.0042 -0.02263,0.0075 -0.0332,0.01172 -0.0053,0.0021 -0.01039,0.0045 -0.01758,0.0078 -0.0036,0.0017 -0.0081,0.0028 -0.01367,0.0059 -0.0055,0.003 -0.02305,0.01533 -0.02344,0.01563 -1.71e-4,1.28e-4 -0.04857,0.05231 -0.04883,0.05273 -2.53e-4,4.2e-4 -0.0078,0.01529 -0.0098,0.01953 -0.004,0.0085 -0.0059,0.01268 -0.0078,0.01758 -0.0038,0.0098 -0.0061,0.01835 -0.0098,0.0293 -0.0074,0.02189 -0.01778,0.051 -0.0293,0.08789 -0.02304,0.07378 -0.05387,0.178864 -0.09375,0.3125 -0.07975,0.267272 -0.191936,0.647039 -0.324219,1.101563 -0.264564,0.909047 -0.611807,2.119455 -0.958984,3.332031 -0.347177,1.212576 -0.69403,2.427735 -0.953125,3.347656 -0.129547,0.45996 -0.236875,0.845694 -0.3125,1.121094 -0.03781,0.1377 -0.06735,0.247755 -0.08789,0.326172 -0.01027,0.03921 -0.01963,0.06974 -0.02539,0.09375 -0.0029,0.01201 -0.0038,0.02138 -0.0059,0.03125 -0.001,0.0049 -0.0029,0.01124 -0.0039,0.01758 -0.001,0.0063 -0.002,0.03227 -0.002,0.0332 0,0.07676 0.05075,0.15022 0.0957,0.18164 0.04495,0.03142 0.08422,0.04038 0.121094,0.04688 0.07375,0.01299 0.145502,0.0077 0.222656,-0.0078 0.07536,-0.01516 0.224604,-0.05685 0.50586,-0.134766 0.281255,-0.07792 0.667062,-0.186453 1.121093,-0.314453 0.908063,-0.255998 2.091902,-0.592271 3.267578,-0.927734 1.175677,-0.335463 2.343352,-0.670384 3.220703,-0.923828 0.438676,-0.126722 0.80421,-0.232562 1.0625,-0.308594 0.129146,-0.03802 0.231267,-0.06807 0.302735,-0.08984 0.03573,-0.01089 0.06311,-0.02058 0.08398,-0.02734 0.01044,-0.0034 0.0189,-0.0048 0.02734,-0.0078 0.0042,-0.0015 0.0094,-0.0033 0.01563,-0.0059 0.0031,-0.0013 0.0058,-0.0029 0.01172,-0.0059 0.006,-0.0029 0.03496,-0.02133 0.03516,-0.02148 2.8e-4,-2.22e-4 0.031,-0.0323 0.03711,-0.04102 0.0061,-0.0087 0.011,-0.01464 0.01367,-0.01953 0.0054,-0.0098 0.0072,-0.01559 0.0098,-0.02148 0.0051,-0.01179 0.0093,-0.0212 0.01367,-0.0332 0.0087,-0.02401 0.01892,-0.05551 0.03125,-0.09375 0.02467,-0.07647 0.05674,-0.184259 0.09766,-0.320312 0.08184,-0.272106 0.195281,-0.655661 0.328125,-1.115234 0.265689,-0.919147 0.611784,-2.139747 0.955078,-3.359375 0.343295,-1.219629 0.684271,-2.437982 0.935547,-3.355469 0.125638,-0.458744 0.227827,-0.842379 0.298828,-1.113281 0.0355,-0.135452 0.06381,-0.242417 0.08203,-0.31836 0.0091,-0.03797 0.0147,-0.06745 0.01953,-0.0918 0.0024,-0.01217 0.0061,-0.02323 0.0078,-0.03711 8.54e-4,-0.0069 3.8e-5,-0.01398 0,-0.0293 -1.9e-5,-0.0077 -0.0019,-0.03469 -0.002,-0.03516 -8.6e-5,-4.64e-4 -0.05256,-0.09749 -0.05273,-0.09766 -1.44e-4,-1.44e-4 -0.105034,-0.05267 -0.105469,-0.05273 -4.35e-4,-6.1e-5 -0.0262,-0.0022 -0.0332,-0.002 z"
     transform="matrix(3.1465978,0,0,3.1465978,13.488269,13.407698)" />
  <g
     id="g939"
     transform="matrix(0.23789727,0,0,0.35750754,4.1346082,11.748497)"
     clip-path="url(#clipPath941)">
    <image xlink:href="././flags/nonbinary.svg" ></image>
  </g>
  <text
     xml:space="preserve"
     style="font-style:normal;font-variant:normal;font-weight:normal;font-stretch:normal;font-size:2.29800248px;line-height:1.25;font-family:Courier;-inkscape-font-specification:'Courier, Normal';font-variant-ligatures:normal;font-variant-caps:normal;font-variant-numeric:normal;font-feature-settings:normal;text-align:center;letter-spacing:0px;word-spacing:0px;writing-mode:lr-tb;text-anchor:middle;fill:#000000;fill-opacity:1;stroke:none;stroke-width:0.05744986"
     x="138.97067"
     y="111.56739"
     id="text821"
     transform="rotate(45)"><tspan
       sodipodi:role="line"
       id="tspan819"
       x="138.97067"
       y="111.56739"
       style="stroke-width:0.05744986">CC-BY-SA 4.0</tspan><tspan
       sodipodi:role="line"
       id="tspan821"
       x="138.97067"
       y="114.4399"
       style="stroke-width:0.05744986">2019</tspan></text>
  <text
     xml:space="preserve"
     style="font-style:normal;font-variant:normal;font-weight:500;font-stretch:normal;font-size:6.40323544px;line-height:1.25;font-family:Inconsolata;-inkscape-font-specification:'Inconsolata, Medium';font-variant-ligatures:normal;font-variant-caps:normal;font-variant-numeric:normal;font-feature-settings:normal;text-align:center;letter-spacing:0px;word-spacing:0px;writing-mode:lr-tb;text-anchor:middle;fill:#000000;fill-opacity:1;stroke:none;stroke-width:0.16008092"
     x="-66.571487"
     y="117.95504"
     id="text817"
     transform="rotate(-45)"><tspan
       sodipodi:role="line"
       id="tspan815"
       x="-66.571487"
       y="117.95504"
       style="stroke-width:0.16008092">OpenStreetMap.org</tspan></text>
</svg>
