<?xml version="1.0" encoding="UTF-8" standalone="no"?>
<!-- Created with Inkscape (http://www.inkscape.org/) -->

<svg
   xmlns:dc="http://purl.org/dc/elements/1.1/"
   xmlns:cc="http://creativecommons.org/ns#"
   xmlns:rdf="http://www.w3.org/1999/02/22-rdf-syntax-ns#"
   xmlns:svg="http://www.w3.org/2000/svg"
   xmlns="http://www.w3.org/2000/svg"
   xmlns:sodipodi="http://sodipodi.sourceforge.net/DTD/sodipodi-0.dtd"
   xmlns:inkscape="http://www.inkscape.org/namespaces/inkscape"
   version="1.1"
   width="53.88343"
   height="53.938148"
   id="svg3953"
   sodipodi:docname="logo_nb.svg"
   inkscape:version="0.92.3 (2405546, 2018-03-11)">
  <title
     id="title823">OpenStreetMap Logo, Simple version</title>
  <sodipodi:namedview
     pagecolor="#ffffff"
     bordercolor="#666666"
     borderopacity="1"
     objecttolerance="10"
     gridtolerance="10"
     guidetolerance="10"
     inkscape:pageopacity="0"
     inkscape:pageshadow="2"
     inkscape:window-width="2493"
     inkscape:window-height="1385"
     id="namedview4575"
     showgrid="false"
     inkscape:zoom="16.697285"
     inkscape:cx="76.942875"
     inkscape:cy="25.042832"
     inkscape:window-x="67"
     inkscape:window-y="27"
     inkscape:window-maximized="1"
     inkscape:current-layer="svg3953" />
  <defs
     id="defs3955" />
  <metadata
     id="metadata3958">
    <rdf:RDF>
      <cc:Work
         rdf:about="">
        <dc:format>image/svg+xml</dc:format>
        <dc:type
           rdf:resource="http://purl.org/dc/dcmitype/StillImage" />
        <dc:title>OpenStreetMap Logo, Simple version</dc:title>
        <cc:license
           rdf:resource="http://creativecommons.org/licenses/by-sa/4.0/" />
        <dc:date>2019</dc:date>
      </cc:Work>
      <cc:License
         rdf:about="http://creativecommons.org/licenses/by-sa/4.0/">
        <cc:permits
           rdf:resource="http://creativecommons.org/ns#Reproduction" />
        <cc:permits
           rdf:resource="http://creativecommons.org/ns#Distribution" />
        <cc:requires
           rdf:resource="http://creativecommons.org/ns#Notice" />
        <cc:requires
           rdf:resource="http://creativecommons.org/ns#Attribution" />
        <cc:permits
           rdf:resource="http://creativecommons.org/ns#DerivativeWorks" />
        <cc:requires
           rdf:resource="http://creativecommons.org/ns#ShareAlike" />
      </cc:License>
    </rdf:RDF>
  </metadata>
  <path
     style="fill:#000000;fill-opacity:1;stroke:none;stroke-width:3.4499588;stroke-linecap:square;stroke-linejoin:round;stroke-miterlimit:4;stroke-dasharray:none;stroke-opacity:1;paint-order:stroke fill markers"
     d="M 96.345703 1.3300781 A 12.203125 12.3125 0 0 0 90.599609 2.7910156 C 91.047486 3.2735472 91.324219 3.8807515 91.324219 4.5371094 C 91.324219 5.4335029 90.950466 6.1925485 90.357422 6.7070312 C 89.764378 7.2215142 88.960676 7.5 88.097656 7.5 C 87.294067 7.5 86.672228 7.2720683 86.066406 7.03125 A 12.203125 12.3125 0 0 0 84.142578 13.642578 A 12.203125 12.3125 0 0 0 96.345703 25.955078 A 12.203125 12.3125 0 0 0 108.54883 13.642578 A 12.203125 12.3125 0 0 0 96.345703 1.3300781 z M 89.115234 3.7421875 A 12.203125 12.3125 0 0 0 87.154297 5.5566406 C 87.482207 5.6579195 87.818683 5.734375 88.138672 5.734375 C 88.470159 5.734375 88.820494 5.6322497 89.068359 5.4394531 C 89.316224 5.2466566 89.478516 4.9797931 89.478516 4.5507812 C 89.478516 4.1819124 89.361059 3.9377803 89.146484 3.7578125 C 89.138466 3.7510871 89.123596 3.748734 89.115234 3.7421875 z "
     id="path824" />
  <path
     d="m 89.885458,14.861064 v 1.301552 h -2.69008 l 1.317868,-1.168741 c 1.847732,-1.646861 2.527046,-2.324199 2.527046,-3.585907 0,-1.4609246 -1.222765,-2.6429466 -2.744427,-2.6429466 -0.421175,0 -1.616765,0.0664 -2.662909,1.3148326 v 1.155459 h 1.222765 c -0.01358,-0.0664 -0.02718,-0.199218 -0.02718,-0.278904 0,-0.849993 1.005384,-1.0226476 1.426559,-1.0226476 0.978211,0 1.548834,0.6507756 1.548834,1.4343626 0,0.517965 -0.135863,0.916399 -0.706486,1.474206 -1.114074,1.089054 -3.029738,2.749197 -3.722638,3.320286 v 1.089053 h 5.651888 v -2.390605 z"
     style="font-style:normal;font-variant:normal;font-weight:bold;font-stretch:normal;font-size:13.43283749px;line-height:1.25;font-family:Courier;-inkscape-font-specification:'Courier, Bold';font-variant-ligatures:normal;font-variant-caps:normal;font-variant-numeric:normal;font-feature-settings:normal;text-align:center;letter-spacing:0px;word-spacing:0px;writing-mode:lr-tb;text-anchor:middle;fill:#ffffff;fill-opacity:1;stroke:#ffffff;stroke-width:0.63599414;stroke-miterlimit:4;stroke-dasharray:none;stroke-opacity:1"
     id="path840"
     inkscape:connector-curvature="0" />
  <path
     d="m 93.792998,8.9509574 v 2.2843556 h 1.168419 v -1.155459 h 3.206359 l -2.635736,7.171815 h 1.317868 l 2.62215,-7.3975936 v -0.903118 z"
     style="font-style:normal;font-variant:normal;font-weight:bold;font-stretch:normal;font-size:13.43283749px;line-height:1.25;font-family:Courier;-inkscape-font-specification:'Courier, Bold';font-variant-ligatures:normal;font-variant-caps:normal;font-variant-numeric:normal;font-feature-settings:normal;text-align:center;letter-spacing:0px;word-spacing:0px;writing-mode:lr-tb;text-anchor:middle;fill:#ffffff;fill-opacity:1;stroke:#ffffff;stroke-width:0.63599414;stroke-miterlimit:4;stroke-dasharray:none;stroke-opacity:1"
     id="path842"
     inkscape:connector-curvature="0" />
  <path
     d="m 103.0807,13.001704 c -0.67931,0.451559 -1.0869,1.235146 -1.0869,1.965609 0,1.115616 0.95104,2.470292 2.79877,2.470292 1.86132,0 2.79877,-1.354676 2.79877,-2.483574 0,-0.610931 -0.2989,-1.421081 -1.0869,-1.952327 0.73366,-0.571089 0.93745,-1.314833 0.93745,-1.87264 0,-1.3413946 -1.19559,-2.3640426 -2.64932,-2.3640426 -1.46732,0 -2.64932,1.035928 -2.64932,2.3640426 0,0.385153 0.0815,1.195303 0.93745,1.87264 z m 1.71187,-3.1077856 c 0.76083,0 1.42656,0.4648396 1.42656,1.2484266 0,0.770306 -0.6929,1.341395 -1.42656,1.341395 -0.74725,0 -1.42656,-0.597651 -1.42656,-1.341395 0,-0.757025 0.65214,-1.2484266 1.42656,-1.2484266 z m 0,3.7452816 c 1.00538,0 1.57601,0.690618 1.57601,1.354675 0,0.717182 -0.67932,1.341396 -1.57601,1.341396 -0.8967,0 -1.57601,-0.637496 -1.57601,-1.341396 0,-0.637494 0.52987,-1.354675 1.57601,-1.354675 z"
     style="font-style:normal;font-variant:normal;font-weight:bold;font-stretch:normal;font-size:13.43283749px;line-height:1.25;font-family:Courier;-inkscape-font-specification:'Courier, Bold';font-variant-ligatures:normal;font-variant-caps:normal;font-variant-numeric:normal;font-feature-settings:normal;text-align:center;letter-spacing:0px;word-spacing:0px;writing-mode:lr-tb;text-anchor:middle;fill:#ffffff;fill-opacity:1;stroke:#ffffff;stroke-width:0.63599414;stroke-miterlimit:4;stroke-dasharray:none;stroke-opacity:1"
     id="path844"
     inkscape:connector-curvature="0" />
  <path
     d="m 99.424615,-1.4520108 c -0.285322,-0.013281 -0.679339,-0.039845 -1.032594,-0.039845 -0.502711,0 -2.10595,0 -3.152132,1.0226853 -1.222809,1.1953467 -1.413023,3.0149299 -1.413023,3.8915174 0,2.8953953 1.72552,3.7719825 2.907569,3.7719825 1.480957,0 2.581486,-1.2351912 2.581486,-2.6961705 0,-1.4875424 -1.100529,-2.7492972 -2.5679,-2.7492972 -0.163041,0 -0.855967,0 -1.562478,0.5047019 0.407603,-2.5899177 2.350511,-2.5899177 3.179304,-2.5899177 0.0951,0 0.475537,0 1.059768,0.026564 z m -4.334179,5.5384393 c 0.434776,-1.0625303 1.358676,-1.182065 1.671172,-1.182065 0.788033,0 1.30433,0.7703346 1.30433,1.5937955 0,0.9562773 -0.611404,1.540669 -1.34509,1.540669 -0.652165,0 -1.535305,-0.5312651 -1.630412,-1.9523995 z"
     style="font-style:normal;font-variant:normal;font-weight:bold;font-stretch:normal;font-size:medium;line-height:1.25;font-family:Courier;-inkscape-font-specification:'Courier, Bold';font-variant-ligatures:normal;font-variant-caps:normal;font-variant-numeric:normal;font-feature-settings:normal;text-align:center;letter-spacing:0px;word-spacing:0px;writing-mode:lr-tb;text-anchor:middle;fill:#ffffff;fill-opacity:1;stroke:#ffffff;stroke-width:0.63599414;stroke-miterlimit:4;stroke-dasharray:none;stroke-opacity:1"
     id="path852"
     inkscape:connector-curvature="0" />
  <path
     d="m 102.28612,-1.305913 v 4.303248 l 0.62499,0.3453223 c 0.36684,-0.2921958 0.89672,-0.6906447 1.72552,-0.6906447 1.04618,0 1.71193,0.7437713 1.71193,1.7000486 0,0.6906446 -0.35325,1.6734852 -1.8478,1.6734852 -0.91031,0 -1.72552,-0.358604 -2.20106,-0.5578284 -0.0136,-0.013281 -0.0951,-0.039845 -0.12228,-0.053126 l -0.42119,1.0758114 c 1.1277,0.425012 1.80704,0.690645 2.81246,0.690645 2.25541,0 3.02985,-1.686767 3.02985,-2.8688319 0,-1.5406691 -1.15487,-2.762579 -2.8668,-2.762579 -0.65217,0 -1.14129,0.1726612 -1.31792,0.2390694 v -1.9523997 h 3.79071 V -1.305913 Z"
     style="font-style:normal;font-variant:normal;font-weight:bold;font-stretch:normal;font-size:medium;line-height:1.25;font-family:Courier;-inkscape-font-specification:'Courier, Bold';font-variant-ligatures:normal;font-variant-caps:normal;font-variant-numeric:normal;font-feature-settings:normal;text-align:center;letter-spacing:0px;word-spacing:0px;writing-mode:lr-tb;text-anchor:middle;fill:#ffffff;fill-opacity:1;stroke:#ffffff;stroke-width:0.63599414;stroke-miterlimit:4;stroke-dasharray:none;stroke-opacity:1"
     id="path854"
     inkscape:connector-curvature="0" />
  <path
     d="m 85.374408,27.647997 c 0.285322,0.01328 0.679338,0.03984 1.032595,0.03984 0.50271,0 2.105948,0 3.15213,-1.022685 1.222809,-1.195347 1.413025,-3.01493 1.413025,-3.891518 0,-2.895395 -1.725521,-3.771983 -2.90757,-3.771983 -1.480958,0 -2.581486,1.235192 -2.581486,2.696171 0,1.487542 1.100528,2.749297 2.5679,2.749297 0.163041,0 0.855966,0 1.562478,-0.504702 -0.407603,2.589918 -2.350511,2.589918 -3.179304,2.589918 -0.0951,0 -0.394017,0 -0.978248,-0.02657 z m 4.33418,-5.53844 c -0.434777,1.062531 -1.358678,1.182066 -1.671173,1.182066 -0.788033,0 -1.30433,-0.770335 -1.30433,-1.593796 0,-0.956277 0.611405,-1.540669 1.34509,-1.540669 0.652165,0 1.535305,0.531266 1.630413,1.952399 z"
     style="font-style:normal;font-variant:normal;font-weight:bold;font-stretch:normal;font-size:medium;line-height:1.25;font-family:Courier;-inkscape-font-specification:'Courier, Bold';font-variant-ligatures:normal;font-variant-caps:normal;font-variant-numeric:normal;font-feature-settings:normal;text-align:center;letter-spacing:0px;word-spacing:0px;writing-mode:lr-tb;text-anchor:middle;fill:#ffffff;fill-opacity:1;stroke:#ffffff;stroke-width:0.63599414;stroke-miterlimit:4;stroke-dasharray:none;stroke-opacity:1"
     id="path862"
     inkscape:connector-curvature="0" />
  <path
     d="m 94.064633,21.910333 h 1.182049 v -0.90315 l 0.271736,-0.09297 c 0.244562,-0.09297 0.801619,-0.132816 1.073354,-0.132816 0.692926,0 1.440198,0.398448 1.440198,1.182065 0,0.98284 -1.046181,1.221909 -1.874975,1.421134 -0.108693,0.01328 -0.258148,0.05312 -0.366842,0.07969 -0.02718,0 -0.0951,0.02657 -0.108694,0.02657 v 1.620359 h 1.168462 v -0.743774 c 0.774446,-0.225788 2.391272,-0.690644 2.391272,-2.377412 0,-1.235191 -0.978248,-2.364129 -2.798875,-2.364129 -0.652165,0 -1.127702,0.106253 -1.983668,0.385167 -0.271736,0.09297 -0.29891,0.106253 -0.394017,0.132816 z m 2.173883,3.692293 c -0.679338,0 -1.168461,0.49142 -1.168461,1.049248 0,0.571111 0.50271,1.04925 1.168461,1.04925 0.652165,0 1.182049,-0.464858 1.182049,-1.04925 0,-0.584391 -0.529884,-1.049248 -1.182049,-1.049248 z"
     style="font-style:normal;font-variant:normal;font-weight:bold;font-stretch:normal;font-size:medium;line-height:1.25;font-family:Courier;-inkscape-font-specification:'Courier, Bold';font-variant-ligatures:normal;font-variant-caps:normal;font-variant-numeric:normal;font-feature-settings:normal;text-align:center;letter-spacing:0px;word-spacing:0px;writing-mode:lr-tb;text-anchor:middle;fill:#ffffff;fill-opacity:1;stroke:#ffffff;stroke-width:0.63599414;stroke-miterlimit:4;stroke-dasharray:none;stroke-opacity:1"
     id="path864"
     inkscape:connector-curvature="0" />
  <path
     d="m 106.28742,19.001656 h -1.644 l -3.288,5.232963 v 1.062529 h 3.74995 v 1.102376 h -1.76628 v 1.089093 h 4.25266 v -1.089093 h -1.30433 v -1.102376 h 1.30433 V 24.16821 h -1.30433 z m -3.73636,5.166554 2.52714,-4.117305 h 0.0272 v 4.117305 z"
     style="font-style:normal;font-variant:normal;font-weight:bold;font-stretch:normal;font-size:medium;line-height:1.25;font-family:Courier;-inkscape-font-specification:'Courier, Bold';font-variant-ligatures:normal;font-variant-caps:normal;font-variant-numeric:normal;font-feature-settings:normal;text-align:center;letter-spacing:0px;word-spacing:0px;writing-mode:lr-tb;text-anchor:middle;fill:#ffffff;fill-opacity:1;stroke:#ffffff;stroke-width:0.63599414;stroke-miterlimit:4;stroke-dasharray:none;stroke-opacity:1"
     id="path866"
     inkscape:connector-curvature="0" />
  <path
     style="display:inline;fill:#000000"
     d="M 37.197266 0.005859375 C 31.950427 -0.14174648 26.718516 2.1091312 23.224609 6.4882812 C 19.984099 10.549851 18.752111 15.904377 19.894531 20.966797 C 20.299191 22.759987 21.198657 24.934078 22.154297 26.423828 L 22.646484 27.189453 L 20.685547 29.150391 L 18.726562 31.109375 L 18.105469 30.796875 C 17.559989 30.522095 17.389351 30.484422 16.712891 30.482422 C 15.249531 30.478612 15.666435 30.124365 7.578125 38.234375 C -0.430675 46.264665 0.00790625 45.745469 0.00390625 47.199219 C -4.375e-05 48.500399 0.15927562 48.744844 2.6660156 51.246094 C 4.7729056 53.348384 5.1853394 53.674267 5.9746094 53.873047 L 5.9765625 53.873047 C 6.5493025 54.017297 7.4910294 53.912166 8.0996094 53.634766 C 8.5747494 53.418186 9.530905 52.500498 15.734375 46.304688 C 23.789785 38.259228 23.443453 38.668671 23.439453 37.207031 C 23.437693 36.530561 23.397827 36.361886 23.123047 35.816406 L 22.810547 35.193359 L 24.771484 33.234375 L 26.730469 31.273438 L 27.496094 31.765625 C 30.501004 33.693185 34.426537 34.671793 37.966797 34.376953 C 40.451457 34.170023 42.280167 33.661342 44.435547 32.576172 C 46.246017 31.664662 47.386154 30.840865 48.808594 29.421875 C 51.569644 26.667495 53.213515 23.386361 53.765625 19.525391 C 53.924015 18.415601 53.923152 15.917154 53.763672 14.865234 C 53.009252 9.8892244 50.358873 5.6573287 46.283203 2.9179688 C 43.497984 1.0459463 40.345369 0.094422891 37.197266 0.005859375 z M 36.599609 2.8984375 C 37.622808 2.8884225 38.638766 2.946025 39.291016 3.078125 C 41.174016 3.459475 43.180397 4.2743344 44.617188 5.2402344 C 50.640128 9.2892244 52.741397 16.947834 49.617188 23.464844 C 47.657617 27.552444 43.748224 30.534056 39.271484 31.353516 C 38.097794 31.568346 35.773386 31.61005 34.634766 31.4375 C 31.206206 30.91793 28.107508 29.221849 25.867188 26.636719 C 21.496738 21.593589 21.147049 14.327678 25.011719 8.8613281 C 25.709139 7.8748681 27.354936 6.2283713 28.353516 5.5195312 C 29.969386 4.3725113 31.834264 3.5661125 33.865234 3.1328125 C 34.545529 2.9876725 35.576411 2.9084525 36.599609 2.8984375 z "
     id="path5199" />
  <path
     inkscape:connector-curvature="0"
     style="display:inline;fill:#000000;fill-opacity:1"
     d="m 30.868318,47.93325 c -2.67902,-0.77406 -4.8967,-1.43431 -4.92819,-1.46724 -0.059,-0.0617 2.70974,-9.88097 2.81952,-9.99923 0.0547,-0.0589 9.53437,2.59585 9.92277,2.77886 0.1373,0.0647 -0.008,0.65019 -1.17839,4.73397 -0.73428,2.56308 -1.37936,4.82229 -1.43351,5.02046 -0.0542,0.19818 -0.15083,0.35588 -0.21485,0.35044 -0.064,-0.005 -2.30833,-0.6432 -4.98735,-1.41726 z"
     id="path5175" />
  <path
     inkscape:connector-curvature="0"
     style="display:inline;fill:#000000;stroke:none;stroke-opacity:1;stroke-linecap:square;stroke-width:0.2;stroke-miterlimit:4;stroke-dasharray:none;fill-opacity:1"
     d="m 37.420758,49.10657 c 0,-0.11986 2.75458,-9.74106 2.79829,-9.77388 0.0997,-0.0749 9.71672,-2.75978 9.7535,-2.723 0.0435,0.0435 -2.68833,9.74811 -2.76007,9.80498 -0.049,0.0388 -9.28068,2.67317 -9.57553,2.73247 -0.1189,0.0239 -0.21619,0.006 -0.21619,-0.0406 z"
     id="path5173" />
  <path
     inkscape:connector-curvature="0"
     style="display:inline;fill:#000000"
     d="m 21.441618,44.81075 c 1.90048,-1.91042 3.59414,-3.65477 3.76369,-3.87633 0.38223,-0.49952 0.91352,-1.64824 1.058,-2.28755 0.0597,-0.26424 0.11917,-0.7909 0.13212,-1.17036 l 0.0236,-0.68994 0.41112,-0.11603 c 0.22611,-0.0638 0.42844,-0.0987 0.44962,-0.0775 0.0527,0.0527 -2.71274,9.71086 -2.80487,9.79572 -0.0405,0.0373 -1.51704,0.47908 -3.28117,0.98168 l -3.2075,0.91382 3.45544,-3.47349 z"
     id="path5171" />
  <path
     inkscape:connector-curvature="0"
     style="display:inline;fill:#000000"
     d="m 40.071328,37.9382 c -0.0196,-0.0327 -0.0797,-0.22045 -0.13356,-0.41711 l -0.0979,-0.35756 0.35181,-0.0595 c 3.01446,-0.51001 6.24294,-1.92535 8.78589,-3.85166 0.36329,-0.2752 0.56917,-0.37858 0.59589,-0.29922 0.12326,0.36614 0.61414,2.13552 0.59716,2.15249 -0.0764,0.0764 -10.07113,2.87963 -10.09933,2.83258 z"
     id="path5169" />
  <path
     inkscape:connector-curvature="0"
     style="display:inline;fill:#000000;fill-opacity:1"
     d="m 6.177708,35.02011 c -0.11626,-0.0943 -2.65277,-8.69681 -2.84416,-9.6459 -0.0383,-0.19002 0.33003,-0.0993 4.88567,1.20288 4.76674,1.36256 4.92934,1.41674 4.99565,1.66465 0.0591,0.22112 0.0205,0.28971 -0.28183,0.50033 -0.1927,0.13425 -1.73374,1.62875 -3.42454,3.32112 -1.69079,1.69237 -3.09859,3.07703 -3.12843,3.07703 -0.0298,0 -0.12091,-0.0541 -0.20236,-0.12011 z"
     id="path5167" />
  <path
     inkscape:connector-curvature="0"
     style="display:inline;fill:#000000;fill-opacity:1;stroke-width:0.1;stroke-miterlimit:4;stroke-dasharray:none;stroke:none;stroke-opacity:1;stroke-linecap:square"
     d="m 8.018618,25.17385 c -2.66878,-0.76719 -4.86015,-1.40111 -4.86971,-1.40871 -0.0334,-0.0265 2.82853,-9.96454 2.88616,-10.02217 0.0502,-0.0502 9.94195,2.72123 10.04463,2.81422 0.0209,0.0189 -0.60418,2.2837 -1.389,5.03289 -1.29576,4.53899 -1.44501,4.99762 -1.62336,4.9886 -0.10802,-0.005 -2.37995,-0.63763 -5.04872,-1.40483 z"
     id="path5165" />
  <path
     inkscape:connector-curvature="0"
     style="display:inline;fill:#000000;stroke:none;stroke-opacity:1;fill-opacity:1"
     d="m 14.669178,26.38351 c 0.0273,-0.0722 0.47612,-1.62292 0.99727,-3.44614 l 0.94755,-3.31495 0.12352,0.72064 c 0.21402,1.2486 0.59353,2.67182 1.04343,3.91297 0.23915,0.65973 0.42128,1.21135 0.40474,1.22584 -0.0165,0.0145 -0.74349,0.22823 -1.61547,0.47499 -0.87198,0.24677 -1.66762,0.47323 -1.76809,0.50325 -0.1282,0.0383 -0.16785,0.0155 -0.13295,-0.0766 z"
     id="path5163" />
  <path
     inkscape:connector-curvature="0"
     style="display:inline;fill:#000000;fill-opacity:1"
     d="m 10.997258,13.73875 c -2.66877,-0.76771 -4.87539,-1.43168 -4.90361,-1.47549 -0.0917,-0.14236 -2.80125,-9.71 -2.76121,-9.75004 0.0563,-0.0563 9.68449,2.70676 9.77639,2.80557 0.10307,0.11082 2.87454,9.83845 2.79941,9.82573 -0.0323,-0.005 -2.2422,-0.63806 -4.91098,-1.40577 z"
     id="path5161" />
  <path
     inkscape:connector-curvature="0"
     style="display:inline;fill:#000000;stroke-width:0.1;stroke-miterlimit:4;stroke-dasharray:none;stroke:#000000;stroke-opacity:1;fill-opacity:1"
     d="m 15.819768,9.88846 c -0.53799,-1.88636 -1.05972,-3.71433 -1.1594,-4.06217 l -0.18123,-0.63242 3.808,-1.08569 c 2.09439,-0.59713 3.87285,-1.10995 3.95212,-1.13961 0.0793,-0.0297 -0.18308,0.3111 -0.583,0.75725 -2.1267,2.37252 -3.52096,4.91483 -4.40282,8.02812 -0.16438,0.58035 -0.29888,1.14794 -0.29888,1.26132 0,0.65763 -0.25897,-0.056 -1.13479,-3.1268 z"
     id="path3940" />
</svg>
