<?xml version="1.0" encoding="UTF-8" standalone="no"?>
<!-- Created with Inkscape (http://www.inkscape.org/) -->

<svg
   xmlns:dc="http://purl.org/dc/elements/1.1/"
   xmlns:cc="http://creativecommons.org/ns#"
   xmlns:rdf="http://www.w3.org/1999/02/22-rdf-syntax-ns#"
   xmlns:svg="http://www.w3.org/2000/svg"
   xmlns="http://www.w3.org/2000/svg"
   xmlns:sodipodi="http://sodipodi.sourceforge.net/DTD/sodipodi-0.dtd"
   xmlns:inkscape="http://www.inkscape.org/namespaces/inkscape"
   version="1.1"
   width="53.88343"
   height="53.938148"
   id="svg3953"
   sodipodi:docname="Logo_simple_grouped.svg"
   inkscape:version="0.92.3 (2405546, 2018-03-11)">
  <title
     id="title823">OpenStreetMap Logo, Simple version</title>
  <sodipodi:namedview
     pagecolor="#ffffff"
     bordercolor="#666666"
     borderopacity="1"
     objecttolerance="10"
     gridtolerance="10"
     guidetolerance="10"
     inkscape:pageopacity="0"
     inkscape:pageshadow="2"
     inkscape:window-width="1869"
     inkscape:window-height="1145"
     id="namedview4575"
     showgrid="false"
     inkscape:zoom="12.375449"
     inkscape:cx="27.242839"
     inkscape:cy="24.49689"
     inkscape:window-x="1251"
     inkscape:window-y="441"
     inkscape:window-maximized="1"
     inkscape:current-layer="svg3953" />
  <defs
     id="defs3955" />
  <metadata
     id="metadata3958">
    <rdf:RDF>
      <cc:Work
         rdf:about="">
        <dc:format>image/svg+xml</dc:format>
        <dc:type
           rdf:resource="http://purl.org/dc/dcmitype/StillImage" />
        <dc:title>OpenStreetMap Logo, Simple version</dc:title>
        <cc:license
           rdf:resource="http://creativecommons.org/licenses/by-sa/4.0/" />
        <dc:date>2019</dc:date>
      </cc:Work>
      <cc:License
         rdf:about="http://creativecommons.org/licenses/by-sa/4.0/">
        <cc:permits
           rdf:resource="http://creativecommons.org/ns#Reproduction" />
        <cc:permits
           rdf:resource="http://creativecommons.org/ns#Distribution" />
        <cc:requires
           rdf:resource="http://creativecommons.org/ns#Notice" />
        <cc:requires
           rdf:resource="http://creativecommons.org/ns#Attribution" />
        <cc:permits
           rdf:resource="http://creativecommons.org/ns#DerivativeWorks" />
        <cc:requires
           rdf:resource="http://creativecommons.org/ns#ShareAlike" />
      </cc:License>
    </rdf:RDF>
  </metadata>
  <path
     style="display:inline;fill:#000000"
     d="M 37.197266 0.005859375 C 31.950427 -0.14174648 26.718516 2.1091312 23.224609 6.4882812 C 19.984099 10.549851 18.752111 15.904377 19.894531 20.966797 C 20.299191 22.759987 21.198657 24.934078 22.154297 26.423828 L 22.646484 27.189453 L 20.685547 29.150391 L 18.726562 31.109375 L 18.105469 30.796875 C 17.559989 30.522095 17.389351 30.484422 16.712891 30.482422 C 15.249531 30.478612 15.666435 30.124365 7.578125 38.234375 C -0.430675 46.264665 0.00790625 45.745469 0.00390625 47.199219 C -4.375e-05 48.500399 0.15927562 48.744844 2.6660156 51.246094 C 4.7729056 53.348384 5.1853394 53.674267 5.9746094 53.873047 L 5.9765625 53.873047 C 6.5493025 54.017297 7.4910294 53.912166 8.0996094 53.634766 C 8.5747494 53.418186 9.530905 52.500498 15.734375 46.304688 C 23.789785 38.259228 23.443453 38.668671 23.439453 37.207031 C 23.437693 36.530561 23.397827 36.361886 23.123047 35.816406 L 22.810547 35.193359 L 24.771484 33.234375 L 26.730469 31.273438 L 27.496094 31.765625 C 30.501004 33.693185 34.426537 34.671793 37.966797 34.376953 C 40.451457 34.170023 42.280167 33.661342 44.435547 32.576172 C 46.246017 31.664662 47.386154 30.840865 48.808594 29.421875 C 51.569644 26.667495 53.213515 23.386361 53.765625 19.525391 C 53.924015 18.415601 53.923152 15.917154 53.763672 14.865234 C 53.009252 9.8892244 50.358873 5.6573287 46.283203 2.9179688 C 43.497984 1.0459463 40.345369 0.094422891 37.197266 0.005859375 z M 36.599609 2.8984375 C 37.622808 2.8884225 38.638766 2.946025 39.291016 3.078125 C 41.174016 3.459475 43.180397 4.2743344 44.617188 5.2402344 C 50.640128 9.2892244 52.741397 16.947834 49.617188 23.464844 C 47.657617 27.552444 43.748224 30.534056 39.271484 31.353516 C 38.097794 31.568346 35.773386 31.61005 34.634766 31.4375 C 31.206206 30.91793 28.107508 29.221849 25.867188 26.636719 C 21.496738 21.593589 21.147049 14.327678 25.011719 8.8613281 C 25.709139 7.8748681 27.354936 6.2283713 28.353516 5.5195312 C 29.969386 4.3725113 31.834264 3.5661125 33.865234 3.1328125 C 34.545529 2.9876725 35.576411 2.9084525 36.599609 2.8984375 z "
     id="path5199" />
  <path
     style="display:inline;fill:#000000"
     d="M 37.197266 4.96875 C 36.876156 4.96875 36.848444 4.9947881 36.777344 5.3300781 C 36.659274 5.8868981 36.694872 8.6144031 36.826172 9.0644531 C 36.961232 9.5274031 37.267637 9.94652 37.554688 10.0625 C 38.135727 10.29727 38.813041 10.033647 39.082031 9.4667969 C 39.316161 8.9733369 39.469784 7.4621394 39.396484 6.3808594 C 39.361414 5.8631794 39.311056 5.3859594 39.285156 5.3183594 C 39.237936 5.1953194 37.886776 4.96875 37.197266 4.96875 z M 34.435547 5.1914062 C 34.416721 5.186755 34.391082 5.1913219 34.357422 5.2011719 C 34.271782 5.2262019 33.926654 5.3171437 33.589844 5.4023438 C 32.937794 5.5672638 31.785796 6.0021694 31.166016 6.3183594 L 30.791016 6.5097656 L 30.791016 8.2382812 L 30.791016 9.9648438 L 31.851562 9.9648438 L 32.912109 9.9648438 L 32.884766 10.757812 L 32.857422 11.550781 L 29.708984 11.576172 L 26.5625 11.601562 L 26.560547 11.046875 C 26.557787 10.546415 26.543792 10.512161 26.419922 10.675781 C 26.134892 11.052241 25.48318 12.402846 25.21875 13.166016 C 24.72058 14.603736 24.59376 15.429463 24.59375 17.220703 C 24.59373 19.537543 24.951604 21.044224 25.958984 22.958984 L 26.419922 23.832031 L 26.447266 23.341797 C 26.468626 22.978857 26.519825 22.837534 26.640625 22.802734 C 27.551285 22.540244 28.811852 22.361328 29.732422 22.361328 L 30.791016 22.361328 L 30.791016 25.144531 L 30.791016 27.929688 L 31.390625 28.234375 C 32.452075 28.770325 33.762081 29.16169 35.306641 29.40625 C 35.438761 29.42715 35.926262 29.450031 36.388672 29.457031 L 37.228516 29.470703 L 37.228516 26.732422 C 37.228516 25.226282 37.19585 23.995094 37.15625 23.996094 C 37.11662 23.997234 36.697549 24.08295 36.224609 24.1875 C 35.751659 24.29209 35.308934 24.378906 35.240234 24.378906 C 35.148164 24.378906 35.115234 24.176774 35.115234 23.615234 C 35.115234 22.739034 34.989567 22.843398 36.398438 22.554688 C 37.008046 22.429737 37.719298 22.361328 38.392578 22.361328 L 39.4375 22.361328 L 39.4375 25.771484 C 39.4375 27.843124 39.474297 29.181641 39.529297 29.181641 C 39.781217 29.181641 41.741914 28.470611 42.302734 28.175781 L 42.945312 27.837891 L 42.957031 26.804688 C 42.978611 24.685757 43.683594 23.224618 44.996094 22.580078 C 45.498884 22.333148 45.629448 22.311688 46.736328 22.304688 L 47.935547 22.298828 L 48.101562 21.921875 L 48.267578 21.544922 L 46.011719 21.517578 L 43.753906 21.492188 L 43.783203 20.701172 L 43.810547 19.910156 L 44.84375 19.882812 L 45.876953 19.855469 L 45.876953 16.976562 C 45.876953 15.358512 45.839016 14.097656 45.791016 14.097656 C 45.743986 14.097656 45.285174 14.183363 44.771484 14.289062 C 44.257804 14.394736 43.819428 14.482422 43.798828 14.482422 C 43.778228 14.482422 43.761719 14.12467 43.761719 13.6875 L 43.761719 12.892578 L 44.84375 12.675781 C 45.58835 12.526731 46.260166 12.458937 47.003906 12.460938 L 48.083984 12.462891 L 47.873047 12.03125 L 47.664062 11.599609 L 45.712891 11.599609 L 43.761719 11.599609 L 43.761719 10.78125 L 43.761719 9.9648438 L 44.818359 9.9648438 L 45.876953 9.9648438 L 45.876953 9.4648438 C 45.876953 8.9799336 45.859079 8.9472431 45.324219 8.4394531 C 44.529129 7.6846131 43.441535 6.8990536 42.546875 6.4335938 L 41.769531 6.0292969 L 41.722656 7.3007812 C 41.669146 8.7471613 41.474815 9.4818182 40.921875 10.324219 C 40.548015 10.893799 39.812671 11.427032 39.150391 11.607422 C 38.455811 11.796612 37.268612 11.751579 36.638672 11.511719 C 35.583622 11.109999 34.806451 10.127694 34.494141 8.8027344 C 34.336441 8.1334644 34.301004 6.2520264 34.433594 5.5664062 C 34.485156 5.2999462 34.492025 5.20536 34.435547 5.1914062 z M 28.572266 8.0917969 L 27.847656 8.8613281 C 27.448896 9.2841081 27.08105 9.704375 27.03125 9.796875 L 27.029297 9.796875 C 26.946307 9.950925 27.008266 9.9648438 27.759766 9.9648438 L 28.580078 9.9648438 L 28.576172 9.0292969 L 28.572266 8.0917969 z M 29.394531 12.330078 C 29.908979 12.329343 30.422263 12.404006 30.804688 12.550781 C 31.881146 12.963921 32.671388 13.981542 32.955078 15.320312 C 33.135208 16.170665 33.133742 17.916976 32.951172 18.691406 C 32.647289 19.98043 31.897327 20.982162 30.910156 21.419922 C 30.242916 21.715042 28.916526 21.752064 28.134766 21.496094 C 27.016826 21.130054 26.135084 20.031942 25.839844 18.638672 C 25.662334 17.802402 25.663907 16.249726 25.841797 15.410156 C 26.144767 13.980226 26.901426 12.967867 27.978516 12.554688 C 28.364041 12.406852 28.880084 12.330813 29.394531 12.330078 z M 37.996094 12.337891 C 38.502899 12.327781 39.004452 12.379239 39.320312 12.496094 C 40.842403 13.059204 41.63285 14.425948 41.71875 16.642578 C 41.81973 19.246988 40.948301 20.977431 39.275391 21.494141 C 38.616101 21.697761 37.658999 21.736484 37.011719 21.583984 C 35.924269 21.327784 35.07553 20.494731 34.625 19.238281 C 34.33626 18.433051 34.257962 16.264614 34.482422 15.308594 C 34.804402 13.937224 35.567622 12.961851 36.638672 12.550781 C 36.977152 12.420866 37.489289 12.348001 37.996094 12.337891 z M 48.105469 12.511719 L 48.095703 16.1875 L 48.085938 19.861328 L 48.416016 19.861328 C 48.805326 19.861328 48.801504 19.871199 48.958984 18.574219 C 49.159614 16.921859 48.958075 15.086773 48.390625 13.376953 L 48.105469 12.511719 z M 37.943359 13.919922 C 37.673952 13.937944 37.410433 14.054302 37.212891 14.275391 C 36.843851 14.688431 36.744141 15.119584 36.681641 16.552734 C 36.599541 18.435294 36.853866 19.607846 37.410156 19.910156 C 37.548536 19.985336 37.84196 20.048781 38.0625 20.050781 C 38.6092 20.056021 39.003859 19.714312 39.193359 19.076172 C 39.527809 17.949982 39.464198 15.399314 39.080078 14.589844 C 38.861191 14.128569 38.392372 13.889885 37.943359 13.919922 z M 29.523438 13.935547 C 29.006877 13.882957 28.584132 14.125756 28.357422 14.603516 C 28.109632 15.125786 27.975509 16.336642 28.037109 17.507812 C 28.105969 18.817782 28.291827 19.475351 28.685547 19.806641 C 29.012577 20.081821 29.543623 20.136713 29.976562 19.939453 C 30.550912 19.677763 30.859019 18.311962 30.761719 16.451172 C 30.668409 14.666172 30.350098 14.019747 29.523438 13.935547 z M 46.710938 23.828125 C 46.507792 23.817442 46.226856 23.902246 45.988281 24.056641 C 45.697501 24.244821 45.430616 24.86318 45.353516 25.53125 L 45.292969 26.060547 L 45.740234 25.580078 C 45.985814 25.315838 46.378561 24.842727 46.613281 24.529297 C 46.981331 24.037757 47.017463 23.946494 46.882812 23.871094 C 46.837038 23.845476 46.778653 23.831686 46.710938 23.828125 z M 28.550781 24.027344 C 28.518691 23.995254 27.286304 24.236891 26.964844 24.337891 C 26.793844 24.391611 27.093537 24.812836 27.904297 25.660156 L 28.533203 26.318359 L 28.560547 25.191406 C 28.575247 24.571716 28.570581 24.047144 28.550781 24.027344 z "
     id="path5195" />
  <g
     id="g5210">
    <path
       id="path5175"
       d="m 30.868318,47.93325 c -2.67902,-0.77406 -4.8967,-1.43431 -4.92819,-1.46724 -0.059,-0.0617 2.70974,-9.88097 2.81952,-9.99923 0.0547,-0.0589 9.53437,2.59585 9.92277,2.77886 0.1373,0.0647 -0.008,0.65019 -1.17839,4.73397 -0.73428,2.56308 -1.37936,4.82229 -1.43351,5.02046 -0.0542,0.19818 -0.15083,0.35588 -0.21485,0.35044 -0.064,-0.005 -2.30833,-0.6432 -4.98735,-1.41726 z"
       style="display:inline;fill:#000000" />
    <path
       id="path5173"
       d="m 37.420758,49.10657 c 0,-0.11986 2.75458,-9.74106 2.79829,-9.77388 0.0997,-0.0749 9.71672,-2.75978 9.7535,-2.723 0.0435,0.0435 -2.68833,9.74811 -2.76007,9.80498 -0.049,0.0388 -9.28068,2.67317 -9.57553,2.73247 -0.1189,0.0239 -0.21619,0.006 -0.21619,-0.0406 z"
       style="display:inline;fill:#000000" />
    <path
       id="path5171"
       d="m 21.441618,44.81075 c 1.90048,-1.91042 3.59414,-3.65477 3.76369,-3.87633 0.38223,-0.49952 0.91352,-1.64824 1.058,-2.28755 0.0597,-0.26424 0.11917,-0.7909 0.13212,-1.17036 l 0.0236,-0.68994 0.41112,-0.11603 c 0.22611,-0.0638 0.42844,-0.0987 0.44962,-0.0775 0.0527,0.0527 -2.71274,9.71086 -2.80487,9.79572 -0.0405,0.0373 -1.51704,0.47908 -3.28117,0.98168 l -3.2075,0.91382 3.45544,-3.47349 z"
       style="display:inline;fill:#000000" />
    <path
       id="path5169"
       d="m 40.071328,37.9382 c -0.0196,-0.0327 -0.0797,-0.22045 -0.13356,-0.41711 l -0.0979,-0.35756 0.35181,-0.0595 c 3.01446,-0.51001 6.24294,-1.92535 8.78589,-3.85166 0.36329,-0.2752 0.56917,-0.37858 0.59589,-0.29922 0.12326,0.36614 0.61414,2.13552 0.59716,2.15249 -0.0764,0.0764 -10.07113,2.87963 -10.09933,2.83258 z"
       style="display:inline;fill:#000000" />
    <path
       id="path5167"
       d="m 6.177708,35.02011 c -0.11626,-0.0943 -2.65277,-8.69681 -2.84416,-9.6459 -0.0383,-0.19002 0.33003,-0.0993 4.88567,1.20288 4.76674,1.36256 4.92934,1.41674 4.99565,1.66465 0.0591,0.22112 0.0205,0.28971 -0.28183,0.50033 -0.1927,0.13425 -1.73374,1.62875 -3.42454,3.32112 -1.69079,1.69237 -3.09859,3.07703 -3.12843,3.07703 -0.0298,0 -0.12091,-0.0541 -0.20236,-0.12011 z"
       style="display:inline;fill:#000000" />
    <path
       id="path5165"
       d="m 8.018618,25.17385 c -2.66878,-0.76719 -4.86015,-1.40111 -4.86971,-1.40871 -0.0334,-0.0265 2.82853,-9.96454 2.88616,-10.02217 0.0502,-0.0502 9.94195,2.72123 10.04463,2.81422 0.0209,0.0189 -0.60418,2.2837 -1.389,5.03289 -1.29576,4.53899 -1.44501,4.99762 -1.62336,4.9886 -0.10802,-0.005 -2.37995,-0.63763 -5.04872,-1.40483 z"
       style="display:inline;fill:#000000" />
    <path
       id="path5163"
       d="m 14.669178,26.38351 c 0.0273,-0.0722 0.47612,-1.62292 0.99727,-3.44614 l 0.94755,-3.31495 0.12352,0.72064 c 0.21402,1.2486 0.59353,2.67182 1.04343,3.91297 0.23915,0.65973 0.42128,1.21135 0.40474,1.22584 -0.0165,0.0145 -0.74349,0.22823 -1.61547,0.47499 -0.87198,0.24677 -1.66762,0.47323 -1.76809,0.50325 -0.1282,0.0383 -0.16785,0.0155 -0.13295,-0.0766 z"
       style="display:inline;fill:#000000" />
    <path
       id="path5161"
       d="m 10.997258,13.73875 c -2.66877,-0.76771 -4.87539,-1.43168 -4.90361,-1.47549 -0.0917,-0.14236 -2.80125,-9.71 -2.76121,-9.75004 0.0563,-0.0563 9.68449,2.70676 9.77639,2.80557 0.10307,0.11082 2.87454,9.83845 2.79941,9.82573 -0.0323,-0.005 -2.2422,-0.63806 -4.91098,-1.40577 z"
       style="display:inline;fill:#000000" />
    <path
       id="path3940"
       d="m 15.819768,9.88846 c -0.53799,-1.88636 -1.05972,-3.71433 -1.1594,-4.06217 l -0.18123,-0.63242 3.808,-1.08569 c 2.09439,-0.59713 3.87285,-1.10995 3.95212,-1.13961 0.0793,-0.0297 -0.18308,0.3111 -0.583,0.75725 -2.1267,2.37252 -3.52096,4.91483 -4.40282,8.02812 -0.16438,0.58035 -0.29888,1.14794 -0.29888,1.26132 0,0.65763 -0.25897,-0.056 -1.13479,-3.1268 z"
       style="display:inline;fill:#000000" />
  </g>
</svg>
