<?xml version="1.0" encoding="UTF-8" standalone="no"?>
<!-- Created with Inkscape (http://www.inkscape.org/) -->

<svg
   xmlns:dc="http://purl.org/dc/elements/1.1/"
   xmlns:cc="http://creativecommons.org/ns#"
   xmlns:rdf="http://www.w3.org/1999/02/22-rdf-syntax-ns#"
   xmlns:svg="http://www.w3.org/2000/svg"
   xmlns="http://www.w3.org/2000/svg"
   xmlns:sodipodi="http://sodipodi.sourceforge.net/DTD/sodipodi-0.dtd"
   xmlns:inkscape="http://www.inkscape.org/namespaces/inkscape"
   version="1.1"
   width="53.88343"
   height="53.938148"
   id="svg3953"
   sodipodi:docname="nb_inner.svg"
   inkscape:version="0.92.3 (2405546, 2018-03-11)">
  <title
     id="title823">OpenStreetMap Logo, Simple version</title>
  <sodipodi:namedview
     pagecolor="#ffffff"
     bordercolor="#666666"
     borderopacity="1"
     objecttolerance="10"
     gridtolerance="10"
     guidetolerance="10"
     inkscape:pageopacity="0"
     inkscape:pageshadow="2"
     inkscape:window-width="2493"
     inkscape:window-height="1385"
     id="namedview4575"
     showgrid="false"
     inkscape:zoom="1.4758454"
     inkscape:cx="184.36402"
     inkscape:cy="-135.74331"
     inkscape:window-x="67"
     inkscape:window-y="27"
     inkscape:window-maximized="1"
     inkscape:current-layer="svg3953" />
  <defs
     id="defs3955" />
  <metadata
     id="metadata3958">
    <rdf:RDF>
      <cc:Work
         rdf:about="">
        <dc:format>image/svg+xml</dc:format>
        <dc:type
           rdf:resource="http://purl.org/dc/dcmitype/StillImage" />
        <dc:title>OpenStreetMap Logo, Simple version</dc:title>
        <cc:license
           rdf:resource="http://creativecommons.org/licenses/by-sa/4.0/" />
        <dc:date>2019</dc:date>
      </cc:Work>
      <cc:License
         rdf:about="http://creativecommons.org/licenses/by-sa/4.0/">
        <cc:permits
           rdf:resource="http://creativecommons.org/ns#Reproduction" />
        <cc:permits
           rdf:resource="http://creativecommons.org/ns#Distribution" />
        <cc:requires
           rdf:resource="http://creativecommons.org/ns#Notice" />
        <cc:requires
           rdf:resource="http://creativecommons.org/ns#Attribution" />
        <cc:permits
           rdf:resource="http://creativecommons.org/ns#DerivativeWorks" />
        <cc:requires
           rdf:resource="http://creativecommons.org/ns#ShareAlike" />
      </cc:License>
    </rdf:RDF>
  </metadata>
  <path
     style="fill:#000000;fill-opacity:1;stroke:none;stroke-width:3.4499588;stroke-linecap:square;stroke-linejoin:round;stroke-miterlimit:4;stroke-dasharray:none;stroke-opacity:1;paint-order:stroke fill markers"
     d="m 25.605164,11.78614 a 12.203125,12.3125 0 0 0 -0.49219,0.0254 c -0.0575,0.13084 -0.11389,0.26335 -0.16211,0.41602 0.41969,-0.12468 0.9581,-0.33985 1.05665,-0.33985 1.64966,0 2.88671,1.42203 2.88671,3.06641 0,1.62067 -1.24261,3.01367 -2.90039,3.01367 -0.66963,0 -1.47821,-0.24559 -2.12304,-0.89258 -0.64484,-0.64698 -1.10157,-1.68639 -1.10157,-3.19726 0,-0.43439 0.0514,-1.09219 0.23243,-1.79492 a 12.203125,12.3125 0 0 0 -3.14258,1.16406 c 0.44787,0.48253 0.72461,1.08974 0.72461,1.74609 0,0.8964 -0.37376,1.65544 -0.9668,2.16993 -0.59304,0.51448 -1.39675,0.79296 -2.25977,0.79296 -0.80358,0 -1.42542,-0.22793 -2.03125,-0.46875 a 12.203125,12.3125 0 0 0 -1.92382,6.61133 12.203125,12.3125 0 0 0 1.66406,6.18164 c 0.52161,-0.68406 1.31719,-1.14062 2.25781,-1.14062 0.66963,0 1.47821,0.24754 2.12305,0.89453 0.64483,0.64699 1.10351,1.68444 1.10351,3.19531 0,0.4652 -0.0474,1.17991 -0.26367,1.93945 a 12.203125,12.3125 0 0 0 4.05274,1.15821 c 0.19961,-0.20558 0.47424,-0.35717 0.78125,-0.44141 h -0.49805 V 33.6299 h 0.27539 c 0.0264,-0.008 0.0351,-0.0273 0.15234,-0.0273 l -0.0762,0.01 c 0.0934,-0.0228 0.23123,-0.0597 0.36719,-0.0801 0.41586,-0.1 0.86071,-0.21125 1.16602,-0.38476 0.30531,-0.17352 0.46679,-0.34993 0.46679,-0.72852 0,-0.29073 -0.12292,-0.47728 -0.33007,-0.62695 -0.20715,-0.14967 -0.50746,-0.23633 -0.79297,-0.23633 -0.24065,0 -0.83809,0.0646 -0.96094,0.11133 l -0.004,0.002 -0.0625,0.0215 v 0.99414 h -1.5 -0.31836 v -2.32617 l 0.23242,-0.0644 c 0.0838,-0.0234 0.10259,-0.0331 0.37696,-0.12696 l 0.002,-0.002 h 0.002 c 0.86633,-0.28229 1.39532,-0.40039 2.08203,-0.40039 1.95208,0 3.11718,1.27855 3.11718,2.68164 0,0.94499 -0.48034,1.59989 -1.03906,1.9961 -0.47786,0.33886 -0.96516,0.47069 -1.35156,0.58594 v 0.85742 h -0.54297 c 0.31903,0.0873 0.60608,0.24832 0.81055,0.4707 a 12.203125,12.3125 0 0 0 3.60156,-0.90039 v -0.85742 l 3.42969,-5.45899 h 1.82031 0.31836 v 1.61133 a 12.203125,12.3125 0 0 0 1.94326,-6.65238 12.203125,12.3125 0 0 0 -1.98828,-6.71679 c -0.50947,0.34408 -1.16424,0.57421 -1.99219,0.57421 -1.06143,0 -1.79758,-0.28844 -2.92383,-0.71289 l -0.30273,-0.11328 0.66601,-1.69726 0.3086,0.15234 c -0.0239,-0.0117 0.013,0.004 0.043,0.0156 0.015,0.006 0.0304,0.0121 0.0508,0.0215 0.002,9.8e-4 0.01,0.007 0.0117,0.008 0.48151,0.20173 1.25132,0.5332 2.07812,0.5332 0.44886,0 0.74623,-0.0948 0.96289,-0.23047 a 12.203125,12.3125 0 0 0 -2.22656,-1.98047 c -0.0417,0.0321 -0.0874,0.0642 -0.12695,0.0957 l -0.16602,0.13281 -0.97461,-0.53906 v -0.46484 a 12.203125,12.3125 0 0 0 -5.62305,-1.39063 z m 0.41602,1.89258 c -0.1157,0 -0.38052,0.0248 -0.64649,0.1582 -0.24594,0.12336 -0.48952,0.36799 -0.67578,0.76368 0.12225,1.20126 0.8164,1.57617 1.28125,1.57617 0.56483,0 1.02735,-0.40192 1.02735,-1.22266 0,-0.34527 -0.11229,-0.68002 -0.29102,-0.91211 -0.17873,-0.23209 -0.40491,-0.36328 -0.69531,-0.36328 z m -7.64649,0.51953 a 12.203125,12.3125 0 0 0 -1.96093,1.81445 c 0.32791,0.10128 0.66438,0.17774 0.98437,0.17774 0.33149,0 0.68182,-0.10213 0.92969,-0.29492 0.24786,-0.1928 0.41015,-0.45966 0.41015,-0.88867 0,-0.36887 -0.11745,-0.61301 -0.33203,-0.79297 -0.008,-0.007 -0.0229,-0.009 -0.0312,-0.0156 z m -0.82031,4.70508 c 1.68634,0 3.0625,1.32258 3.0625,2.96094 0,0.68792 -0.20227,1.26739 -0.63281,1.83984 -0.43054,0.57246 -1.07442,1.15746 -2,1.98242 v 0.002 l -0.68946,0.61133 h 1.53321 v -0.98247 -0.31836 h 1.77539 v 3.02735 h -6.28711 v -1.5586 l 0.11523,-0.0937 c 0.68148,-0.56167 2.60384,-2.22813 3.70313,-3.30273 0.53454,-0.52253 0.61133,-0.7857 0.61133,-1.24805 0,-0.6292 -0.3933,-1.11523 -1.23047,-1.11523 -0.16714,0 -0.49504,0.0435 -0.73242,0.16015 -0.2374,0.11668 -0.37696,0.24531 -0.37696,0.54492 0,0.0435 0.0162,0.18917 0.0215,0.21485 l 0.0781,0.38086 h -1.93164 v -1.58789 l 0.0742,-0.0899 c 1.11919,-1.33559 2.45165,-1.42773 2.90625,-1.42773 z m 16.49805,0 c 1.60286,0 2.9668,1.15129 2.9668,2.68164 0,0.55677 -0.25746,1.26298 -0.85352,1.86133 0.66709,0.58286 1.00391,1.33304 1.00391,1.96289 0,1.30494 -1.10158,2.80273 -3.11719,2.80273 -2.00316,0 -3.11719,-1.49272 -3.11719,-2.78906 0,-0.74377 0.39775,-1.46472 1.00391,-1.98633 -0.67555,-0.6935 -0.85352,-1.47097 -0.85352,-1.85156 0,-1.51679 1.34981,-2.68164 2.9668,-2.68164 z m -11.31836,0.18555 h 6.3164 v 1.27539 l -2.71679,7.66211 h -1.99805 l 2.63672,-7.17188 h -2.43359 v 1.1543 h -1.80469 v -2.60156 z m 11.31836,1.58007 c -0.31995,0 -0.60557,0.10224 -0.80078,0.26563 -0.19522,0.16339 -0.3086,0.37686 -0.3086,0.66406 0,0.55011 0.53168,1.02344 1.10938,1.02344 0.56864,0 1.10742,-0.44383 1.10742,-1.02344 0,-0.30174 -0.11502,-0.51177 -0.31055,-0.67187 -0.19552,-0.16012 -0.48122,-0.25782 -0.79687,-0.25782 z m 0,3.74414 c -0.90081,0 -1.25781,0.57583 -1.25781,1.03711 0,0.49931 0.51183,1.02344 1.25781,1.02344 0.74911,0 1.25781,-0.50706 1.25781,-1.02344 0,-0.48188 -0.39806,-1.03711 -1.25781,-1.03711 z m -16.71485,6.51758 c -0.54688,0 -0.98947,0.38539 -1.01757,1.1543 a 12.203125,12.3125 0 0 0 1.29296,1.29883 c 0.10373,-0.0238 0.216,-0.0551 0.33204,-0.11328 0.24591,-0.12335 0.48757,-0.36807 0.67382,-0.76368 -0.12227,-1.20122 -0.8164,-1.57617 -1.28125,-1.57617 z m 16.70899,0.65821 -1.66797,2.71679 h 0.0391 a 12.203125,12.3125 0 0 0 1.62891,-1.33593 z"
     id="path824"
     inkscape:connector-curvature="0" />
</svg>
