<?xml version="1.0" encoding="UTF-8" standalone="no"?>
<svg
   xmlns:dc="http://purl.org/dc/elements/1.1/"
   xmlns:cc="http://creativecommons.org/ns#"
   xmlns:rdf="http://www.w3.org/1999/02/22-rdf-syntax-ns#"
   xmlns:svg="http://www.w3.org/2000/svg"
   xmlns="http://www.w3.org/2000/svg"
   xmlns:xlink="http://www.w3.org/1999/xlink"
   version="1.1"
   width="54.483494"
   height="54.539509"
   id="svg3953">
  <defs
     id="defs3955">
    <clipPath
       id="clipPath902"
       clipPathUnits="userSpaceOnUse">
      <g
         style="stroke:none;stroke-width:1.00157475;stroke-miterlimit:4;stroke-dasharray:none;stroke-opacity:1"
         id="g906"
         transform="matrix(14.367096,0,0,8.9069673,-618.65211,-3560.1991)">
        <path
           style="display:inline;fill:#000000;stroke:none;stroke-width:1.00157475;stroke-miterlimit:4;stroke-dasharray:none;stroke-opacity:1"
           id="path904"
           d="m 49.153345,453.55265 c -0.78927,-0.19878 -1.20166,-0.52642 -3.30855,-2.62871 -2.50674,-2.50125 -2.66748,-2.74547 -2.66353,-4.04665 0.004,-1.45375 -0.43487,-0.93383 7.57393,-8.96412 8.08831,-8.11001 7.67181,-7.75655 9.13517,-7.75274 0.67646,0.002 0.84669,0.0403 1.39217,0.31508 l 0.62148,0.31306 1.96016,-1.96017 1.96017,-1.96016 -0.4911,-0.76558 c -0.95564,-1.48975 -1.85634,-3.6635 -2.261,-5.45669 -1.14242,-5.06242 0.0891,-10.41791 3.32961,-14.47948 5.59025,-7.00664 15.63301,-8.56087 23.06026,-3.56881 4.07567,2.73936 6.72473,6.97085 7.47915,11.94686 0.15948,1.05192 0.16039,3.55036 0.002,4.66015 -0.55211,3.86097 -2.19556,7.14242 -4.95661,9.8968 -1.42244,1.41899 -2.56285,2.24109 -4.37332,3.1526 -2.15538,1.08517 -3.98398,1.59438 -6.46864,1.80131 -3.54026,0.29484 -7.46535,-0.68429 -10.47026,-2.61185 l -0.76558,-0.4911 -1.96016,1.96016 -1.96017,1.96017 0.31307,0.62147 c 0.27478,0.54548 0.31331,0.71571 0.31507,1.39218 0.004,1.46164 0.35072,1.05202 -7.70469,9.09748 -6.20347,6.19581 -7.1584,7.11267 -7.63354,7.32925 -0.60858,0.2774 -1.55204,0.38374 -2.12478,0.23949 z m 33.29594,-22.52081 c 4.47674,-0.81946 8.3862,-3.80005 10.34577,-7.88765 3.12421,-6.51701 1.02301,-14.17604 -4.99993,-18.22503 -1.43679,-0.9659 -3.44315,-1.78014 -5.32615,-2.16149 -1.3045,-0.2642 -4.06475,-0.23718 -5.42534,0.0531 -2.03097,0.4333 -3.89564,1.24134 -5.51151,2.38836 -0.99858,0.70884 -2.64513,2.35472 -3.34255,3.34118 -3.86467,5.46635 -3.51502,12.73157 0.85543,17.7747 2.24032,2.58513 5.33875,4.28207 8.76731,4.80164 1.13862,0.17255 3.46328,0.13003 4.63697,-0.0848 z m -3.96437,-1.94652 c -1.54456,-0.24456 -2.85403,-0.63675 -3.91548,-1.1727 l -0.60054,-0.30322 v -2.7851 -2.78509 h -1.05861 c -0.92057,0 -2.18157,0.18074 -3.09223,0.44323 -0.1208,0.0348 -0.17081,0.17477 -0.19217,0.53771 l -0.0289,0.49065 -0.45941,-0.8732 c -1.00738,-1.91476 -1.36622,-3.42212 -1.3662,-5.73896 10e-6,-1.79124 0.12725,-2.61596 0.62542,-4.05368 0.26443,-0.76317 0.9161,-2.11479 1.20113,-2.49125 0.12387,-0.16362 0.13737,-0.12771 0.14013,0.37275 l 0.003,0.5538 3.1468,-0.0253 3.1468,-0.0253 0.0279,-0.79271 0.0279,-0.7927 h -1.06082 -1.06083 v -1.72759 -1.72758 l 0.37585,-0.19175 c 0.61978,-0.31619 1.77075,-0.75158 2.4228,-0.9165 0.33681,-0.0852 0.68246,-0.17537 0.7681,-0.2004 0.13464,-0.0394 0.14495,0.0101 0.0762,0.36538 -0.13259,0.68562 -0.0976,2.5672 0.0601,3.23647 0.31231,1.32496 1.08891,2.30563 2.14396,2.70735 0.62994,0.23986 1.81778,0.28529 2.51236,0.0961 0.66228,-0.18039 1.39696,-0.71216 1.77082,-1.28174 0.55294,-0.8424 0.74788,-1.5781 0.80139,-3.02448 l 0.0471,-1.2715 0.77672,0.40409 c 0.89466,0.46546 1.98242,1.25101 2.77751,2.00585 0.53486,0.50779 0.55249,0.54051 0.55249,1.02542 v 0.50089 h -1.05694 -1.05694 v 0.81672 0.81673 h 1.9506 1.95061 l 0.21007,0.43238 0.21006,0.43239 -1.07971,-0.002 c -0.74374,-0.002 -1.41607,0.065 -2.16067,0.21405 l -1.08096,0.21632 v 0.79485 c 0,0.43717 0.0169,0.79485 0.0375,0.79485 0.0206,0 0.45775,-0.0865 0.97143,-0.19217 0.51369,-0.1057 0.97245,-0.19217 1.01948,-0.19217 0.048,0 0.0855,1.26126 0.0855,2.87931 v 2.87931 l -1.03292,0.0273 -1.03292,0.0273 -0.0279,0.79095 -0.0279,0.79096 2.25639,0.0258 2.2564,0.0258 -0.16635,0.3769 -0.16635,0.37691 -1.1974,0.007 c -1.10688,0.007 -1.2385,0.0276 -1.74129,0.27453 -1.3125,0.64454 -2.0183,2.10655 -2.03988,4.22548 l -0.0105,1.0335 -0.64233,0.33767 c -0.56082,0.29483 -2.52229,1.00636 -2.77421,1.00636 -0.055,0 -0.0906,-1.33939 -0.0906,-3.41103 v -3.41103 h -1.04636 c -0.67328,0 -1.38416,0.0692 -1.99377,0.19415 -1.40887,0.28871 -1.28371,0.18523 -1.28371,1.06143 0,0.56154 0.0329,0.76221 0.12497,0.76221 0.0687,0 0.51193,-0.0855 0.98488,-0.19009 0.47294,-0.10455 0.89233,-0.19103 0.93196,-0.19217 0.0396,-10e-4 0.0721,1.23021 0.0721,2.73635 v 2.73844 l -0.84075,-0.0131 c -0.46241,-0.007 -0.94884,-0.0302 -1.08096,-0.0511 z m -4.39784,-7.98559 c 0.98836,-0.4372 1.73763,-1.43852 2.04176,-2.72859 0.18257,-0.77443 0.18513,-2.52175 0.005,-3.3721 -0.28369,-1.33877 -1.07428,-2.35708 -2.15074,-2.77022 -0.76485,-0.29355 -2.05469,-0.29167 -2.82574,0.004 -1.07709,0.41318 -1.83547,1.42602 -2.13844,2.85595 -0.17789,0.83957 -0.17851,2.39265 -0.001,3.22892 0.29524,1.39327 1.17694,2.49092 2.29488,2.85696 0.78176,0.25597 2.10741,0.22012 2.77465,-0.075 z m -2.2231,-1.614 c -0.39372,-0.33129 -0.57905,-0.98887 -0.64791,-2.29884 -0.0616,-1.17117 0.0717,-2.38219 0.31949,-2.90446 0.22671,-0.47776 0.64963,-0.71968 1.16619,-0.66709 0.82666,0.0842 1.14434,0.72961 1.23765,2.51461 0.0973,1.86079 -0.20969,3.2265 -0.78404,3.48819 -0.43294,0.19726 -0.96435,0.14277 -1.29138,-0.13241 z m 10.58907,1.68772 c 1.67291,-0.51671 2.54432,-2.24692 2.44334,-4.85133 -0.0859,-2.21663 -0.87676,-3.58368 -2.39885,-4.14679 -0.63172,-0.23371 -2.0046,-0.20633 -2.68156,0.0535 -1.07105,0.41107 -1.83349,1.38664 -2.15547,2.75801 -0.22446,0.95602 -0.14534,3.12425 0.1434,3.92948 0.45053,1.25645 1.29758,2.08955 2.38503,2.34575 0.64728,0.1525 1.60482,0.11502 2.26411,-0.0886 z m -1.86564,-1.58472 c -0.55629,-0.30231 -0.81055,-1.47383 -0.72845,-3.35639 0.0625,-1.43315 0.16365,-1.86584 0.53269,-2.27888 0.52678,-0.58957 1.51536,-0.4222 1.86558,0.31584 0.38412,0.80947 0.44958,3.36036 0.11513,4.48655 -0.1895,0.63814 -0.58566,0.9787 -1.13236,0.97346 -0.22054,-0.002 -0.51421,-0.0654 -0.65259,-0.14058 z m -9.5056,5.75027 c -0.81076,-0.84732 -1.11013,-1.26895 -0.93913,-1.32267 0.32146,-0.101 1.55452,-0.34135 1.58661,-0.30926 0.0198,0.0198 0.0237,0.54298 0.009,1.16267 l -0.0272,1.1267 -0.62909,-0.65744 z m 17.45004,-0.12897 c 0.0771,-0.66807 0.34281,-1.28654 0.63359,-1.47472 0.3181,-0.20586 0.71273,-0.28727 0.89583,-0.1848 0.13465,0.0754 0.0974,0.16571 -0.27065,0.65725 -0.23472,0.31343 -0.62768,0.78607 -0.87326,1.05031 l -0.44649,0.48043 0.061,-0.52847 z m 2.74175,-9.34431 0.009,-3.67527 0.28699,0.86477 c 0.56745,1.70982 0.76774,3.54564 0.56711,5.198 -0.15748,1.29698 -0.1536,1.28777 -0.54291,1.28777 h -0.32983 l 0.009,-3.67527 z m -10.54142,-6.12353 c -0.28705,-0.11598 -0.59357,-0.53639 -0.72863,-0.99934 -0.1313,-0.45005 -0.16707,-3.17797 -0.049,-3.73479 0.0711,-0.33529 0.10038,-0.36032 0.42149,-0.36032 0.68951,0 2.04064,0.22566 2.08786,0.3487 0.0259,0.0676 0.0759,0.54649 0.11097,1.06417 0.0733,1.08128 -0.081,2.59133 -0.31513,3.08479 -0.26899,0.56685 -0.94655,0.83156 -1.52759,0.59679 z m -10.52288,-0.26615 c 0.0498,-0.0925 0.41684,-0.51406 0.8156,-0.93684 l 0.72504,-0.76868 0.004,0.93683 0.004,0.93684 h -0.8201 c -0.7515,0 -0.81253,-0.0141 -0.72954,-0.16815 z m 3.83706,38.13603 c -2.67902,-0.77406 -4.8967,-1.43431 -4.92819,-1.46724 -0.059,-0.0617 2.70974,-9.88097 2.81952,-9.99923 0.0547,-0.0589 9.53437,2.59585 9.92277,2.77886 0.1373,0.0647 -0.008,0.65019 -1.17839,4.73397 -0.73428,2.56308 -1.37936,4.82229 -1.43351,5.02046 -0.0542,0.19818 -0.15083,0.35588 -0.21485,0.35044 -0.064,-0.005 -2.30833,-0.6432 -4.98735,-1.41726 z m 6.55244,1.17332 c 0,-0.11986 2.75458,-9.74106 2.79829,-9.77388 0.0997,-0.0749 9.71672,-2.75978 9.7535,-2.723 0.0435,0.0435 -2.68833,9.74811 -2.76007,9.80498 -0.049,0.0388 -9.28068,2.67317 -9.57553,2.73247 -0.1189,0.0239 -0.21619,0.006 -0.21619,-0.0406 z m -15.97914,-4.29582 c 1.90048,-1.91042 3.59414,-3.65477 3.76369,-3.87633 0.38223,-0.49952 0.91352,-1.64824 1.058,-2.28755 0.0597,-0.26424 0.11917,-0.7909 0.13212,-1.17036 l 0.0236,-0.68994 0.41112,-0.11603 c 0.22611,-0.0638 0.42844,-0.0987 0.44962,-0.0775 0.0527,0.0527 -2.71274,9.71086 -2.80487,9.79572 -0.0405,0.0373 -1.51704,0.47908 -3.28117,0.98168 l -3.2075,0.91382 3.45544,-3.47349 z m 18.62971,-6.87255 c -0.0196,-0.0327 -0.0797,-0.22045 -0.13356,-0.41711 l -0.0979,-0.35756 0.35181,-0.0595 c 3.01446,-0.51001 6.24294,-1.92535 8.78589,-3.85166 0.36329,-0.2752 0.56917,-0.37858 0.59589,-0.29922 0.12326,0.36614 0.61414,2.13552 0.59716,2.15249 -0.0764,0.0764 -10.07113,2.87963 -10.09933,2.83258 z m -33.89362,-2.91809 c -0.11626,-0.0943 -2.65277,-8.69681 -2.84416,-9.6459 -0.0383,-0.19002 0.33003,-0.0993 4.88567,1.20288 4.76674,1.36256 4.92934,1.41674 4.99565,1.66465 0.0591,0.22112 0.0205,0.28971 -0.28183,0.50033 -0.1927,0.13425 -1.73374,1.62875 -3.42454,3.32112 -1.69079,1.69237 -3.09859,3.07703 -3.12843,3.07703 -0.0298,0 -0.12091,-0.0541 -0.20236,-0.12011 z m 1.84091,-9.84626 c -2.66878,-0.76719 -4.86015,-1.40111 -4.86971,-1.40871 -0.0334,-0.0265 2.82853,-9.96454 2.88616,-10.02217 0.0502,-0.0502 9.94195,2.72123 10.04463,2.81422 0.0209,0.0189 -0.60418,2.2837 -1.389,5.03289 -1.29576,4.53899 -1.44501,4.99762 -1.62336,4.9886 -0.10802,-0.005 -2.37995,-0.63763 -5.04872,-1.40483 z m 6.65056,1.20966 c 0.0273,-0.0722 0.47612,-1.62292 0.99727,-3.44614 l 0.94755,-3.31495 0.12352,0.72064 c 0.21402,1.2486 0.59353,2.67182 1.04343,3.91297 0.23915,0.65973 0.42128,1.21135 0.40474,1.22584 -0.0165,0.0145 -0.74349,0.22823 -1.61547,0.47499 -0.87198,0.24677 -1.66762,0.47323 -1.76809,0.50325 -0.1282,0.0383 -0.16785,0.0155 -0.13295,-0.0766 z m -3.67192,-12.64476 c -2.66877,-0.76771 -4.87539,-1.43168 -4.90361,-1.47549 -0.0917,-0.14236 -2.80125,-9.71 -2.76121,-9.75004 0.0563,-0.0563 9.68449,2.70676 9.77639,2.80557 0.10307,0.11082 2.87454,9.83845 2.79941,9.82573 -0.0323,-0.005 -2.2422,-0.63806 -4.91098,-1.40577 z m 4.82251,-3.85029 c -0.53799,-1.88636 -1.05972,-3.71433 -1.1594,-4.06217 l -0.18123,-0.63242 3.808,-1.08569 c 2.09439,-0.59713 3.87285,-1.10995 3.95212,-1.13961 0.0793,-0.0297 -0.18308,0.3111 -0.583,0.75725 -2.1267,2.37252 -3.52096,4.91483 -4.40282,8.02812 -0.16438,0.58035 -0.29888,1.14794 -0.29888,1.26132 0,0.65763 -0.25897,-0.056 -1.13479,-3.1268 z" />
      </g>
    </clipPath>
  </defs>
  <metadata
     id="metadata3958">
    <rdf:RDF>
      <cc:Work
         rdf:about="">
        <dc:format>image/svg+xml</dc:format>
        <dc:type
           rdf:resource="http://purl.org/dc/dcmitype/StillImage" />
        <dc:title></dc:title>
      </cc:Work>
    </rdf:RDF>
  </metadata>
  <g
     style="stroke:none;stroke-width:1.00157475;stroke-miterlimit:4;stroke-dasharray:none;stroke-opacity:1"
     id="g1420"
     transform="translate(-29.707626,-415.28718)">
    <path
       style="display:inline;fill:#000000;stroke:none;stroke-width:1.00157475;stroke-miterlimit:4;stroke-dasharray:none;stroke-opacity:1"
       id="path1418"
       d="m 80.382812,399.38867 c -5.337349,-0.15015 -10.659625,2.13825 -14.21289,6.5918 -3.297139,4.13255 -4.551131,9.5812 -3.388672,14.73242 0.414182,1.83538 1.321965,4.02186 2.302734,5.55078 l 0.361328,0.56445 -1.792968,1.78907 -1.806641,1.80859 -0.427734,-0.2168 c -0.557993,-0.28108 -0.839982,-0.34367 -1.527344,-0.3457 -0.353861,-9.2e-4 -0.64539,-0.0301 -0.998047,0.082 -0.352657,0.11209 -0.719928,0.34901 -1.277344,0.82227 -1.11483,0.94651 -3.026441,2.88082 -7.070312,6.93554 -4.004045,4.01479 -5.891087,5.88598 -6.804688,6.9668 -0.4568,0.54041 -0.682123,0.89398 -0.785156,1.23633 -0.103033,0.34235 -0.06935,0.62218 -0.07031,0.9707 -0.002,0.66295 0.05577,1.15356 0.439453,1.73633 0.383686,0.58277 1.056004,1.26969 2.310547,2.52149 1.054843,1.05254 1.686779,1.66377 2.173828,2.05078 0.487048,0.38701 0.853131,0.55039 1.273437,0.65625 0.681656,0.17168 1.632373,0.0558 2.320313,-0.25782 0.313206,-0.14276 0.674414,-0.44403 1.751953,-1.47851 1.077539,-1.03448 2.866804,-2.81205 5.96875,-5.91016 4.027428,-4.02246 5.94944,-5.92588 6.890625,-7.03711 0.470592,-0.55561 0.706706,-0.92315 0.818359,-1.27539 0.111654,-0.35223 0.083,-0.64247 0.08203,-0.99609 -0.0018,-0.68722 -0.0677,-0.96929 -0.347656,-1.52539 v -0.002 l -0.214844,-0.42774 1.808594,-1.80859 1.789063,-1.79102 0.564453,0.36133 c 3.065533,1.96645 7.043571,2.95907 10.65625,2.6582 2.512827,-0.20927 4.395716,-0.73325 6.578125,-1.83203 1.829825,-0.92125 3.01116,-1.77246 4.449219,-3.20703 2.802903,-2.79613 4.480531,-6.14492 5.041015,-10.06445 0.16724,-1.1718 0.167973,-3.62723 -0.002,-4.74805 -0.766146,-5.05335 -3.46351,-9.36321 -7.607422,-12.14844 -2.832821,-1.90402 -6.043673,-2.8728 -9.246094,-2.96289 z m -33.888671,2.50391 c -0.01344,8.2e-4 -0.05808,0.01 -0.05859,0.01 -5.11e-4,1.4e-4 -0.136499,0.0779 -0.136719,0.0781 -1.56e-4,1.6e-4 -0.08391,0.16362 -0.08398,0.16406 -7.3e-5,4.5e-4 -0.0041,0.0414 -0.0039,0.0527 3.15e-4,0.0227 0.0027,0.0339 0.0039,0.043 0.0024,0.0182 0.0051,0.0298 0.0078,0.043 0.0054,0.0264 0.0122,0.0557 0.02148,0.0937 0.01857,0.076 0.04655,0.18064 0.08203,0.31446 0.07096,0.26763 0.173748,0.64667 0.298828,1.09961 0.25016,0.90586 0.587568,2.11053 0.929688,3.31836 0.342119,1.20782 0.688448,2.41927 0.955078,3.33789 0.133315,0.4593 0.246757,0.84404 0.330078,1.12109 0.04166,0.13852 0.07573,0.25113 0.101562,0.33203 0.01292,0.0404 0.02373,0.0726 0.0332,0.0996 0.0047,0.0135 0.0085,0.024 0.01367,0.0371 0.0052,0.0131 0.003,0.0195 0.0332,0.0664 1.11e-4,1.7e-4 0.03303,0.0408 0.0332,0.041 1.76e-4,1.9e-4 0.01643,0.0174 0.02344,0.0234 0.01402,0.0121 0.02489,0.0199 0.0332,0.0254 0.01663,0.0109 0.02627,0.0151 0.03516,0.0195 0.01776,0.009 0.02954,0.0141 0.04297,0.0195 0.02686,0.0109 0.05712,0.0224 0.09375,0.0352 0.07326,0.0256 0.173078,0.0589 0.300781,0.0996 0.255407,0.0814 0.619105,0.19206 1.064454,0.32617 0.890696,0.26823 2.109935,0.62562 3.445312,1.00976 1.334454,0.38388 2.553274,0.73521 3.443359,0.99024 0.445043,0.12751 0.808824,0.23055 1.0625,0.30273 0.126839,0.0361 0.225588,0.0645 0.294922,0.084 0.03467,0.01 0.0623,0.018 0.08203,0.0234 0.01847,0.005 0.05403,0.0123 0.06055,0.0137 2.94e-4,5e-5 0.277137,-0.10132 0.277344,-0.10157 2.07e-4,-2.4e-4 0.06238,-0.12641 0.0625,-0.12695 1.21e-4,-5.4e-4 0.0073,-0.0423 0.0078,-0.0547 5.35e-4,-0.0124 3.23e-4,-0.0218 0,-0.0293 -0.0013,-0.0298 -0.0034,-0.0418 -0.0059,-0.0566 -0.005,-0.0297 -0.01275,-0.0596 -0.02148,-0.0977 -0.01746,-0.0761 -0.04338,-0.18059 -0.07813,-0.31445 -0.06949,-0.26773 -0.171267,-0.64877 -0.296875,-1.10547 -0.251217,-0.91341 -0.595068,-2.13268 -0.94336,-3.35547 -0.348291,-1.22279 -0.701109,-2.44817 -0.974609,-3.37695 -0.13675,-0.46439 -0.253617,-0.85383 -0.339844,-1.13282 -0.04311,-0.13949 -0.07811,-0.2524 -0.105468,-0.33398 -0.01368,-0.0408 -0.02622,-0.073 -0.03711,-0.10156 -0.0054,-0.0143 -0.01035,-0.0271 -0.01758,-0.043 -0.0036,-0.008 -0.0067,-0.0168 -0.01367,-0.0293 -0.0035,-0.006 -0.0092,-0.0138 -0.01563,-0.0234 -0.0064,-0.01 -0.02889,-0.0386 -0.0293,-0.0391 -3.59e-4,-3.8e-4 -0.03583,-0.0311 -0.04687,-0.0391 -0.01104,-0.008 -0.0185,-0.0136 -0.02539,-0.0176 -0.01379,-0.008 -0.023,-0.0117 -0.03125,-0.0156 -0.0165,-0.008 -0.02884,-0.014 -0.04297,-0.0195 -0.02826,-0.011 -0.06155,-0.0216 -0.101563,-0.0351 -0.08002,-0.0272 -0.188828,-0.0626 -0.326171,-0.10547 -0.274687,-0.0857 -0.660161,-0.2016 -1.119141,-0.33789 -0.917959,-0.27258 -2.13214,-0.62625 -3.345703,-0.97461 -1.213563,-0.34836 -2.426297,-0.69214 -3.339844,-0.94531 -0.456773,-0.12659 -0.837859,-0.2297 -1.109375,-0.30078 -0.135758,-0.0355 -0.243537,-0.0637 -0.322266,-0.082 -0.03936,-0.009 -0.07015,-0.0162 -0.09961,-0.0215 -0.01473,-0.003 -0.02845,-0.004 -0.05078,-0.006 -0.01117,-9.7e-4 -0.02391,-0.004 -0.05078,-0.002 z m 18.960937,0.45508 c -7.44e-4,-7e-5 -0.04662,-1.3e-4 -0.06445,0.002 -0.03567,0.004 -0.05811,0.0108 -0.07617,0.0176 0.02916,-0.0109 -0.02859,0.01 -0.08789,0.0273 -0.0593,0.0178 -0.143019,0.0415 -0.248046,0.0723 -0.210055,0.0615 -0.505211,0.14861 -0.863282,0.25195 -0.71614,0.20668 -1.6855,0.48276 -2.732422,0.78125 l -3.808593,1.08594 a 0.29767119,0.29767119 0 0 0 -0.203125,0.36914 l 0.18164,0.63281 c 0.09955,0.34739 0.620256,2.17434 1.158204,4.06055 0.438363,1.53699 0.720699,2.4799 0.902343,2.98047 0.04541,0.12514 0.0849,0.22326 0.123047,0.30273 0.03814,0.0795 0.02518,0.14011 0.191406,0.23828 0.04156,0.0245 0.107416,0.0514 0.1875,0.0449 0.08008,-0.006 0.155766,-0.0507 0.197266,-0.0918 0.083,-0.0823 0.08738,-0.13791 0.09766,-0.18164 0.02055,-0.0875 0.01953,-0.15608 0.01953,-0.24805 0,0.0305 0.0056,-0.0336 0.01953,-0.10547 0.01396,-0.0718 0.0341,-0.16982 0.06055,-0.28125 0.05289,-0.22286 0.12791,-0.50478 0.208984,-0.79102 0.871033,-3.07506 2.236667,-5.57018 4.335938,-7.9121 0.203468,-0.22699 0.372639,-0.42675 0.486328,-0.57422 0.05684,-0.0737 0.09927,-0.13094 0.134765,-0.19336 0.01775,-0.0312 0.04565,-0.0353 0.05273,-0.16797 8.85e-4,-0.0166 -0.0018,-0.0598 -0.002,-0.0606 -1.06e-4,-7.5e-4 -0.02317,-0.0814 -0.02344,-0.082 -2.63e-4,-5.9e-4 -0.06403,-0.0914 -0.06445,-0.0918 -4.22e-4,-4.1e-4 -0.09317,-0.0623 -0.09375,-0.0625 -5.82e-4,-2.4e-4 -0.0891,-0.0234 -0.08984,-0.0234 z m 14.326172,0.5332 c 1.013088,-0.01 2.018601,0.0444 2.628906,0.16797 1.84247,0.37314 3.82411,1.17962 5.21875,2.11719 5.905322,3.96992 7.960865,11.46147 4.898438,17.8496 -1.917237,3.9993 -5.749631,6.92068 -10.13086,7.72266 -1.112255,0.20359 -3.467127,0.24643 -4.539062,0.084 -3.359844,-0.50916 -6.394283,-2.1719 -8.587891,-4.70313 -4.282958,-4.94217 -4.625921,-12.0483 -0.83789,-17.40625 0.660122,-0.9337 2.324431,-2.59922 3.271484,-3.27148 1.58155,-1.12266 3.408888,-1.91455 5.402344,-2.33985 0.641938,-0.13695 1.662693,-0.21101 2.675781,-0.2207 z m 0.595703,1.4707 c -0.167995,0 -0.335033,-0.0154 -0.498047,0.12305 -0.163014,0.13843 -0.177851,0.29625 -0.214844,0.4707 -0.04037,0.19041 -0.05498,0.46124 -0.06641,0.8086 -0.01142,0.34735 -0.01509,0.75634 -0.0098,1.16406 0.0053,0.40772 0.01869,0.81197 0.03906,1.14648 0.02037,0.33451 0.03735,0.57508 0.0918,0.76172 0.155367,0.53256 0.451504,1.00925 0.902344,1.19141 0.727822,0.29408 1.571686,-0.0369 1.908203,-0.7461 0.156633,-0.33012 0.238726,-0.82819 0.298828,-1.41796 0.0601,-0.58978 0.0812,-1.24854 0.04297,-1.8125 -0.01774,-0.26188 -0.03839,-0.51333 -0.05859,-0.71094 -0.0101,-0.0988 -0.01974,-0.18544 -0.0293,-0.25391 -0.0096,-0.0685 -0.0036,-0.0898 -0.04102,-0.1875 -0.04277,-0.11144 -0.09917,-0.13913 -0.136719,-0.16406 -0.03755,-0.0249 -0.0693,-0.0392 -0.101563,-0.0527 -0.06453,-0.027 -0.131271,-0.0491 -0.210937,-0.0703 -0.159332,-0.0424 -0.360724,-0.0823 -0.582031,-0.11914 -0.442615,-0.0736 -0.956911,-0.13086 -1.333985,-0.13086 z m -2.691406,0.23047 c -0.12189,-0.03 -0.183661,-0.001 -0.234375,0.0137 -0.0613,0.0179 -0.419954,0.11034 -0.75586,0.19532 -0.692392,0.17512 -1.832412,0.6078 -2.486328,0.9414 l -0.375,0.19141 a 0.29767119,0.29767119 0 0 0 -0.162109,0.26562 v 1.72657 1.72851 a 0.29767119,0.29767119 0 0 0 0.296875,0.29688 h 1.060547 0.753906 l -0.01758,0.48632 -0.01758,0.50782 -2.861328,0.0234 -2.851563,0.0215 v -0.25586 c -6.97e-4,-0.12648 -0.0017,-0.22372 -0.0059,-0.30469 -0.0041,-0.081 4.48e-4,-0.13497 -0.03711,-0.23437 -0.01878,-0.0497 -0.05732,-0.13959 -0.179688,-0.19141 -0.122364,-0.0518 -0.246853,-0.007 -0.298828,0.0254 -0.103292,0.0649 -0.117068,0.10741 -0.152344,0.1543 -0.180166,0.23796 -0.405251,0.66394 -0.640625,1.15234 -0.235374,0.4884 -0.466297,1.02021 -0.605469,1.42188 -0.504569,1.45618 -0.640615,2.3451 -0.640625,4.15039 -2e-5,2.34749 0.374626,3.93096 1.398438,5.87695 l 0.460937,0.875 a 0.29767119,0.29767119 0 0 0 0.560547,-0.12305 l 0.02734,-0.49023 v -0.002 c 0.0092,-0.15297 0.02742,-0.2389 0.03906,-0.2793 0.872344,-0.24434 2.085357,-0.41992 2.949218,-0.41992 h 0.761719 v 2.48828 2.78516 a 0.29767119,0.29767119 0 0 0 0.162109,0.26562 l 0.601563,0.30273 c 1.096974,0.55389 2.434343,0.95492 4.001953,1.20313 0.105307,0.0167 0.249322,0.0238 0.449219,0.0332 0.199896,0.009 0.441251,0.016 0.675781,0.0195 l 0.839844,0.0137 a 0.29767119,0.29767119 0 0 0 0.300781,-0.29688 v -2.74023 c 0,-0.75523 -0.0083,-1.4415 -0.02148,-1.94141 -0.0066,-0.24995 -0.01439,-0.45217 -0.02344,-0.59766 -0.0045,-0.0727 -0.0074,-0.13051 -0.01367,-0.17968 -0.0032,-0.0246 -0.0071,-0.0453 -0.01563,-0.0781 -0.0042,-0.0164 -0.0071,-0.0353 -0.02734,-0.0742 -0.0051,-0.01 -0.01214,-0.0198 -0.02148,-0.0332 -0.0093,-0.0134 -0.03875,-0.0466 -0.03906,-0.0469 -3.08e-4,-2.9e-4 -0.08172,-0.0545 -0.08203,-0.0547 -3.08e-4,-1.5e-4 -0.132503,-0.0273 -0.132812,-0.0273 -0.05222,0.002 -0.05417,0.004 -0.07422,0.008 -0.02005,0.003 -0.04284,0.008 -0.07031,0.0137 -0.05495,0.0105 -0.125605,0.0233 -0.210938,0.041 -0.170666,0.0355 -0.395372,0.0842 -0.632812,0.13672 -0.233928,0.0517 -0.459919,0.0992 -0.634766,0.13281 -0.03785,0.007 -0.06132,0.0117 -0.09375,0.0176 -0.0096,-0.0991 -0.01953,-0.21308 -0.01953,-0.43164 0,-0.22616 -0.0052,-0.38639 0.002,-0.46875 0.0071,-0.0824 1.93e-4,-0.0516 0.0039,-0.0547 0.0074,-0.006 0.331505,-0.10265 1.041016,-0.24804 0.585933,-0.1201 1.280475,-0.1875 1.933593,-0.1875 h 0.75 v 3.11523 c 0,1.03749 0.0077,1.89208 0.02344,2.49024 0.0079,0.29907 0.01772,0.53305 0.0293,0.69921 0.0058,0.0831 0.01089,0.14859 0.01953,0.20508 0.0043,0.0282 0.0092,0.0513 0.02148,0.0898 0.0061,0.0193 0.01045,0.0428 0.03711,0.084 0.0067,0.0103 0.01607,0.0221 0.02734,0.0352 0.01127,0.013 0.0445,0.0407 0.04492,0.041 4.24e-4,3.3e-4 0.07574,0.0428 0.07617,0.043 4.28e-4,1.6e-4 0.106993,0.0195 0.107422,0.0195 0.101497,0 0.15496,-0.0169 0.242188,-0.0391 0.08723,-0.0222 0.189374,-0.0532 0.30664,-0.0898 0.234533,-0.0733 0.525153,-0.17279 0.824219,-0.28125 0.598133,-0.21692 1.219427,-0.46087 1.539063,-0.62891 l 0.642578,-0.33789 a 0.29767119,0.29767119 0 0 0 0.158203,-0.25977 l 0.01172,-1.0332 c 0.02092,-2.05433 0.682662,-3.37832 1.873047,-3.96289 0.24489,-0.12027 0.360337,-0.16989 0.560546,-0.20117 0.20021,-0.0313 0.500967,-0.0395 1.052735,-0.043 l 1.197265,-0.008 a 0.29767119,0.29767119 0 0 0 0.269532,-0.17774 l 0.166015,-0.37695 0.166016,-0.37695 a 0.29767119,0.29767119 0 0 0 -0.267578,-0.41602 l -2.25586,-0.0254 -1.953125,-0.0215 0.01758,-0.48633 a 0.29767119,0.29767119 0 0 0 0,-0.002 l 0.01758,-0.50976 0.753906,-0.0215 1.033203,-0.0274 a 0.29767119,0.29767119 0 0 0 0.289062,-0.29687 v -2.87891 c 0,-0.81135 -0.0078,-1.53407 -0.02344,-2.05664 -0.0078,-0.26128 -0.01843,-0.47155 -0.0293,-0.62305 -0.0054,-0.0758 -0.0097,-0.13506 -0.01758,-0.1875 -0.0039,-0.0262 -0.0086,-0.0498 -0.01953,-0.0859 -0.0055,-0.0181 -0.0088,-0.038 -0.0332,-0.0781 -0.0061,-0.01 -0.01482,-0.0221 -0.02539,-0.0352 -0.01057,-0.013 -0.0426,-0.0427 -0.04297,-0.043 -3.72e-4,-3.1e-4 -0.0758,-0.0467 -0.07617,-0.0469 -3.73e-4,-1.5e-4 -0.114859,-0.0215 -0.115234,-0.0215 -0.05211,0 -0.05575,0.003 -0.07813,0.006 -0.02238,0.003 -0.04775,0.008 -0.07813,0.0137 -0.06075,0.0104 -0.140897,0.0232 -0.234375,0.041 -0.186955,0.0355 -0.431383,0.0856 -0.689453,0.13867 -0.246318,0.0507 -0.469994,0.0948 -0.642578,0.12891 -0.0047,-0.12747 -0.0098,-0.26836 -0.0098,-0.44141 v -0.55078 l 0.84375,-0.16797 c 0.727847,-0.14569 1.376393,-0.21093 2.101563,-0.20898 l 0.804687,0.002 -0.0098,3.42578 -0.0098,3.67579 a 0.29767119,0.29767119 0 0 0 0.296875,0.29687 h 0.330078 c 0.09607,0 0.190283,0.0117 0.322266,-0.0332 0.131982,-0.0449 0.256868,-0.17753 0.310546,-0.30469 0.107357,-0.25433 0.126362,-0.56264 0.205079,-1.21094 0.206658,-1.70201 0.0028,-3.57762 -0.578125,-5.32812 l -0.28711,-0.86328 a 0.29767119,0.29767119 0 0 0 -0.02344,-0.0508 0.29767119,0.29767119 0 0 0 -0.002,-0.004 0.29767119,0.29767119 0 0 0 -0.01172,-0.0312 l -0.210938,-0.43164 -0.208984,-0.43164 a 0.29767119,0.29767119 0 0 0 -0.267578,-0.16797 h -1.951172 -1.654297 v -0.51953 -0.51953 h 0.761719 1.056641 a 0.29767119,0.29767119 0 0 0 0.296874,-0.29688 v -0.50195 c 10e-7,-0.24611 -0.004,-0.44546 -0.111328,-0.64453 -0.107359,-0.19908 -0.264661,-0.34271 -0.533203,-0.59766 -0.8186,-0.77716 -1.91702,-1.56957 -2.845703,-2.05273 l -0.777344,-0.40235 a 0.29767119,0.29767119 0 0 0 -0.433593,0.25196 l -0.04687,1.27148 c -0.05266,1.4235 -0.22502,2.06831 -0.751954,2.87109 -0.322205,0.49089 -1.028356,1.00208 -1.601562,1.15821 -0.600046,0.16344 -1.802827,0.11408 -2.328125,-0.0859 -0.949983,-0.36172 -1.666403,-1.2485 -1.960937,-2.49805 -0.131424,-0.55775 -0.168081,-2.53507 -0.05664,-3.11133 0.03539,-0.18288 0.07467,-0.26716 0.03711,-0.44726 -0.01878,-0.0901 -0.13397,-0.24341 -0.255859,-0.27344 z m -5.945313,2.89258 a 0.29767119,0.29767119 0 0 0 -0.207031,0.0918 l -0.724609,0.76757 c -0.201969,0.21414 -0.395502,0.42777 -0.546875,0.60157 -0.07569,0.0869 -0.139957,0.16469 -0.191407,0.22851 -0.05145,0.0638 -0.0829,0.0973 -0.123046,0.17188 -0.02874,0.0533 -0.09799,0.12817 -0.05469,0.30273 0.02165,0.0873 0.08981,0.16846 0.148438,0.20703 0.05863,0.0386 0.107532,0.0522 0.152343,0.0625 0.179247,0.0413 0.366553,0.0332 0.744141,0.0332 h 0.820312 a 0.29767119,0.29767119 0 0 0 0.296876,-0.29883 l -0.0039,-0.9375 -0.0039,-0.93555 a 0.29767119,0.29767119 0 0 0 -0.306641,-0.29492 z m 9.439454,4.83984 c 0.482729,-0.009 0.968242,0.0494 1.214843,0.14063 0.703276,0.26018 1.217681,0.68896 1.583985,1.32226 0.366303,0.6333 0.57942,1.48126 0.621093,2.55664 0.04911,1.26654 -0.141602,2.30044 -0.52539,3.0625 -0.383789,0.76207 -0.948121,1.25718 -1.708985,1.49219 -0.59134,0.18264 -1.534282,0.21902 -2.107422,0.084 -0.980843,-0.23109 -1.749185,-0.972 -2.173828,-2.15625 -0.118674,-0.33096 -0.218616,-1.0749 -0.246093,-1.82032 -0.02748,-0.74542 0.01235,-1.51983 0.111328,-1.9414 0.305235,-1.30005 1.006442,-2.17725 1.974609,-2.54883 0.27881,-0.10701 0.77313,-0.18196 1.25586,-0.19141 z m -8.607422,0.002 c 0.486747,-6.4e-4 0.972689,0.0628 1.302734,0.18945 0.969131,0.37195 1.702001,1.29782 1.96875,2.55664 0.162852,0.76878 0.155924,2.56226 -0.0039,3.24023 -0.286995,1.21739 -0.987592,2.13371 -1.873047,2.52539 -0.541769,0.23963 -1.882998,0.28499 -2.5625,0.0625 -0.994925,-0.32576 -1.818814,-1.32809 -2.095703,-2.63476 -0.161879,-0.76263 -0.160567,-2.33844 0.002,-3.10547 0.287992,-1.35924 0.986147,-2.26894 1.955078,-2.64062 0.333967,-0.12807 0.819893,-0.19273 1.306641,-0.19336 z m -23.365235,0.80664 c -0.01257,4e-4 -0.0581,0.008 -0.05859,0.008 -4.96e-4,1.1e-4 -0.146289,0.0799 -0.146485,0.0801 -2.25e-4,2.2e-4 -0.04003,0.0489 -0.04687,0.0605 -0.0068,0.0116 -0.0089,0.0194 -0.01172,0.0254 -0.0057,0.0119 -0.0091,0.0188 -0.01172,0.0254 -0.0052,0.0132 -0.0093,0.0226 -0.01367,0.0351 -0.0087,0.0251 -0.01877,0.0564 -0.03125,0.0957 -0.02495,0.0786 -0.05949,0.18878 -0.101563,0.32813 -0.08415,0.2787 -0.199804,0.67211 -0.33789,1.14258 -0.276173,0.94093 -0.638617,2.18971 -0.998047,3.4375 -0.35943,1.24779 -0.715679,2.49458 -0.980469,3.43164 -0.132395,0.46853 -0.242768,0.86087 -0.318359,1.13672 -0.0378,0.13792 -0.06605,0.24514 -0.08594,0.32226 -0.0099,0.0386 -0.01773,0.0686 -0.02344,0.0937 -0.0029,0.0126 -0.0051,0.0232 -0.0078,0.0391 -0.0013,0.008 -0.0026,0.0166 -0.0039,0.0371 -6.53e-4,0.0102 -4.3e-5,0.0504 0,0.0508 4.2e-5,4e-4 0.111198,0.20302 0.111328,0.20312 3.7e-5,3e-5 0.05849,0.0371 0.05859,0.0371 1.04e-4,5e-5 0.01396,0.006 0.01758,0.008 0.0072,0.003 0.01079,0.003 0.01367,0.004 0.0058,0.002 0.0081,0.003 0.01172,0.004 0.0072,0.002 0.0141,0.005 0.02344,0.008 0.01868,0.006 0.0447,0.0135 0.07813,0.0234 0.06685,0.0198 0.164551,0.0476 0.289062,0.084 0.249024,0.0727 0.607208,0.17876 1.048829,0.30664 0.883241,0.25577 2.099038,0.60464 3.433593,0.98828 1.33508,0.3838 2.570011,0.73535 3.486328,0.99024 0.458159,0.12744 0.837617,0.23028 1.109376,0.30273 0.135879,0.0362 0.243484,0.064 0.324218,0.084 0.04037,0.01 0.07379,0.0193 0.101563,0.0254 0.02777,0.006 0.02865,0.0106 0.0957,0.0137 0.08671,0.004 0.207982,-0.0375 0.277344,-0.0977 0.0698,-0.0605 0.107662,-0.12352 0.146484,-0.19726 0.07764,-0.14749 0.15303,-0.35314 0.265625,-0.69922 0.22519,-0.69217 0.586395,-1.93914 1.234375,-4.20899 0.39261,-1.37529 0.744063,-2.6294 0.996094,-3.54297 0.126015,-0.45678 0.226466,-0.82779 0.294922,-1.08789 0.03423,-0.13005 0.06054,-0.23349 0.07813,-0.30664 0.0088,-0.0366 0.01634,-0.0638 0.02148,-0.0898 0.0026,-0.013 0.0036,-0.0259 0.0059,-0.0449 0.0011,-0.01 0.0041,-0.0185 0.0039,-0.043 -1.16e-4,-0.0122 -0.0058,-0.0582 -0.0059,-0.0586 -4.2e-5,-2.1e-4 -0.01947,-0.0604 -0.01953,-0.0605 -6.2e-5,-1.4e-4 -0.07414,-0.10149 -0.07422,-0.10157 -4.01e-4,-3.6e-4 -0.03115,-0.025 -0.04102,-0.0312 -0.0099,-0.006 -0.01727,-0.0104 -0.02344,-0.0137 -0.01234,-0.007 -0.01967,-0.0103 -0.02734,-0.0137 -0.01535,-0.007 -0.02894,-0.0105 -0.04297,-0.0156 -0.02807,-0.0103 -0.06059,-0.0218 -0.101563,-0.0352 -0.08194,-0.0266 -0.194657,-0.0629 -0.335937,-0.10547 -0.282562,-0.0852 -0.678472,-0.19969 -1.150391,-0.33594 -0.943837,-0.27249 -2.190869,-0.62727 -3.4375,-0.97656 -1.246631,-0.34929 -2.492375,-0.69268 -3.429687,-0.94726 -0.468657,-0.12729 -0.860875,-0.23293 -1.138672,-0.30469 -0.138899,-0.0359 -0.24845,-0.0634 -0.328125,-0.082 -0.03984,-0.009 -0.07099,-0.0161 -0.09961,-0.0215 -0.01431,-0.003 -0.02626,-0.006 -0.04687,-0.008 -0.01031,-0.001 -0.02173,-0.003 -0.04687,-0.002 z m 23.523438,0.19531 c -0.624675,-0.0636 -1.193441,0.26594 -1.464844,0.83789 -0.30659,0.6462 -0.409041,1.84266 -0.345703,3.04687 0.07004,1.3325 0.244707,2.08491 0.751953,2.51172 0.434546,0.36565 1.072323,0.41764 1.607422,0.17383 0.44655,-0.20346 0.665579,-0.70416 0.810547,-1.34961 0.144967,-0.64544 0.196182,-1.47339 0.146484,-2.42383 -0.04748,-0.90825 -0.143434,-1.54528 -0.373047,-2.01171 -0.229612,-0.46644 -0.646923,-0.73567 -1.132812,-0.78516 z m 8.708984,0.002 c -0.447095,-0.0757 -0.935398,0.0596 -1.269531,0.4336 -0.209909,0.23494 -0.361241,0.51279 -0.449219,0.88867 -0.08798,0.37587 -0.126704,0.85388 -0.158203,1.57617 -0.04175,0.95733 -7.16e-4,1.74174 0.130859,2.34766 0.131576,0.60591 0.348913,1.06417 0.751953,1.2832 0.231737,0.1259 0.517742,0.17328 0.792969,0.17578 0.33569,0.003 0.651443,-0.10613 0.896485,-0.31641 0.245041,-0.21027 0.41666,-0.50956 0.523437,-0.86914 0.186194,-0.62697 0.247735,-1.55303 0.224609,-2.45312 -0.02313,-0.9001 -0.114309,-1.73594 -0.355468,-2.24414 -0.217947,-0.4593 -0.640461,-0.74652 -1.087891,-0.82227 z m -21.675781,5.6836 a 0.29767119,0.29767119 0 0 0 -0.257813,0.21484 l -0.949218,3.31445 c -0.260519,0.91142 -0.501294,1.75444 -0.681641,2.37891 -0.09017,0.31224 -0.165,0.57046 -0.21875,0.75391 -0.02687,0.0917 -0.04892,0.165 -0.06445,0.21679 -0.01554,0.0518 -0.03482,0.10431 -0.02344,0.0742 -0.01673,0.0442 -0.03396,0.0935 -0.0293,0.17774 0.0047,0.0843 0.071,0.2191 0.166016,0.27343 0.190022,0.10866 0.273964,0.0417 0.361328,0.0156 0.08228,-0.0246 0.890163,-0.2553 1.761719,-0.50195 0.436769,-0.12361 0.838639,-0.23976 1.132813,-0.32618 0.147086,-0.0432 0.26715,-0.0789 0.353515,-0.10547 0.04318,-0.0133 0.0764,-0.0242 0.103516,-0.0332 0.01356,-0.005 0.02621,-0.009 0.03906,-0.0137 0.0064,-0.002 0.01264,-0.005 0.02344,-0.01 0.0054,-0.002 0.01098,-0.004 0.02148,-0.01 0.0052,-0.003 0.02127,-0.0116 0.02148,-0.0117 2.02e-4,-1.3e-4 0.03129,-0.0244 0.03516,-0.0273 l 0.002,-0.002 c 0.0034,-0.004 0.05849,-0.0721 0.05859,-0.0723 1.05e-4,-1.8e-4 0.02726,-0.0564 0.02734,-0.0566 1.63e-4,-4.9e-4 0.01221,-0.0541 0.01367,-0.0703 0.0029,-0.0325 0.0013,-0.0473 0,-0.0605 -0.0026,-0.0265 -0.0065,-0.0416 -0.0098,-0.0566 -0.0065,-0.0301 -0.01324,-0.0584 -0.02344,-0.0937 -0.02039,-0.0707 -0.05059,-0.16241 -0.08789,-0.27539 -0.0746,-0.22596 -0.180398,-0.53119 -0.300781,-0.86329 -0.44329,-1.22291 -0.818795,-2.63521 -1.029297,-3.86328 L 60.085938,419.25 a 0.29767119,0.29767119 0 0 0 -0.322266,-0.24609 z m 29.839844,4.23242 c -0.201643,0.0413 -0.408385,0.12429 -0.59961,0.24805 -0.235764,0.15256 -0.383808,0.39847 -0.509765,0.6914 -0.125958,0.29293 -0.215981,0.63949 -0.257813,1.00195 l -0.06055,0.52735 a 0.29767119,0.29767119 0 0 0 0.513672,0.23633 l 0.447266,-0.48047 c 0.258459,-0.2781 0.64851,-0.75026 0.892578,-1.07617 0.186408,-0.24896 0.294417,-0.38563 0.361328,-0.54883 0.03346,-0.0816 0.06103,-0.19872 0.01563,-0.32227 -0.04541,-0.12355 -0.140703,-0.18879 -0.201172,-0.22265 -0.199692,-0.11176 -0.39992,-0.096 -0.601562,-0.0547 z m -17.894532,0.16992 c -0.0283,5e-5 -0.05028,0.002 -0.07422,0.004 -0.04788,0.005 -0.102367,0.0132 -0.167969,0.0234 -0.131204,0.0205 -0.301767,0.0512 -0.480469,0.0859 -0.357404,0.0695 -0.73334,0.14998 -0.933594,0.21289 -0.08653,0.0272 -0.195002,0.11636 -0.232422,0.2207 -0.03742,0.10435 -0.02178,0.1873 -0.0039,0.25196 0.03575,0.12931 0.09894,0.22553 0.185547,0.34765 0.173206,0.24425 0.455408,0.56388 0.865235,0.99219 l 0.628906,0.65625 a 0.29767119,0.29767119 0 0 0 0.511718,-0.19726 l 0.02734,-1.12696 c 0.0074,-0.31257 0.01161,-0.60114 0.0098,-0.8164 -9.22e-4,-0.10763 -0.0045,-0.19698 -0.0078,-0.26563 -0.0017,-0.0343 -0.0025,-0.0626 -0.0059,-0.0918 -0.0017,-0.0146 -0.0029,-0.0285 -0.0078,-0.0508 -0.0025,-0.0111 -0.0057,-0.0235 -0.01367,-0.0449 -0.004,-0.0107 -0.01923,-0.0405 -0.01953,-0.041 -3.02e-4,-5.6e-4 -0.05047,-0.07 -0.05078,-0.0703 -2.51e-4,-2.5e-4 -0.06796,-0.0506 -0.06836,-0.0508 -3.96e-4,-2.2e-4 -0.03565,-0.017 -0.04883,-0.0215 -0.02637,-0.009 -0.04282,-0.0116 -0.05664,-0.0137 -0.02765,-0.004 -0.04249,-0.004 -0.05664,-0.004 z M 46.625,424.67969 c -0.08007,-0.002 -0.177759,-0.009 -0.294922,0.0918 -0.05858,0.0504 -0.101702,0.13286 -0.113281,0.19727 -0.01158,0.0644 -0.0028,0.10924 0.0039,0.14258 0.0558,0.27672 0.246747,0.973 0.513672,1.91601 0.266925,0.94302 0.604915,2.11246 0.941406,3.25391 0.336491,1.14145 0.671999,2.25525 0.929688,3.0918 0.128844,0.41827 0.238376,0.76619 0.320312,1.01562 0.04097,0.12472 0.07443,0.2246 0.101563,0.29883 0.01356,0.0371 0.02491,0.0674 0.03711,0.0957 0.0061,0.0142 0.01188,0.0289 0.02148,0.0469 0.0048,0.009 0.0096,0.0186 0.01953,0.0332 0.005,0.007 0.01239,0.0146 0.02148,0.0254 0.0091,0.0108 0.04056,0.0407 0.04102,0.041 0.05291,0.0429 0.105801,0.0807 0.158203,0.11133 0.0262,0.0153 0.05131,0.0279 0.08203,0.041 0.03072,0.0131 0.0545,0.0332 0.150391,0.0332 1.16e-4,0 0.07601,-0.01 0.07617,-0.01 1.58e-4,-4e-5 0.04082,-0.0136 0.04102,-0.0137 4.01e-4,-1.7e-4 0.0289,-0.0127 0.03711,-0.0176 0.01641,-0.01 0.02261,-0.0165 0.0293,-0.0215 0.01338,-0.01 0.02232,-0.0158 0.03125,-0.0234 0.01787,-0.0152 0.03675,-0.0328 0.06055,-0.0547 0.04759,-0.0438 0.113213,-0.10476 0.195313,-0.18359 0.164199,-0.15767 0.39564,-0.38485 0.679687,-0.66407 0.568095,-0.55842 1.343524,-1.32711 2.189454,-2.17383 0.844444,-0.84522 1.65055,-1.64144 2.269531,-2.24218 0.30949,-0.30038 0.571784,-0.55279 0.767578,-0.73633 0.195794,-0.18354 0.357614,-0.31885 0.345703,-0.31055 0.158738,-0.11058 0.277572,-0.18772 0.365234,-0.34375 0.08766,-0.15603 0.06884,-0.34324 0.0332,-0.47656 -0.02375,-0.0888 -0.126195,-0.26112 -0.269532,-0.34961 -0.143337,-0.0885 -0.328361,-0.16167 -0.658203,-0.27148 -0.659684,-0.21963 -1.889938,-0.57259 -4.273437,-1.25391 -2.278092,-0.65117 -3.506798,-0.99728 -4.175782,-1.16211 -0.334491,-0.0824 -0.51759,-0.12351 -0.677734,-0.12695 z m 46.044922,7.63086 c -0.09808,0.01 -0.156137,0.0389 -0.222656,0.0723 -0.133038,0.0667 -0.281752,0.16937 -0.470704,0.3125 -2.502192,1.89544 -5.696609,3.29419 -8.65625,3.79492 l -0.351562,0.0586 a 0.29767119,0.29767119 0 0 0 -0.238281,0.37109 l 0.09766,0.35742 c 0.02813,0.1027 0.05777,0.2021 0.08398,0.28321 0.01311,0.0405 0.02562,0.0762 0.03711,0.10742 0.01149,0.0312 0.01033,0.0438 0.04492,0.10156 1.1e-4,1.9e-4 0.18904,0.13858 0.189453,0.13867 4.13e-4,10e-5 0.05119,0.008 0.06445,0.008 0.02653,4.1e-4 0.03705,-0.003 0.04687,-0.004 0.01964,-0.002 0.03127,-0.003 0.04492,-0.006 0.02731,-0.005 0.05834,-0.014 0.09766,-0.0234 0.07864,-0.0189 0.187109,-0.0456 0.326172,-0.082 0.278126,-0.0728 0.672895,-0.17978 1.144531,-0.30859 0.943271,-0.25763 2.196727,-0.60668 3.453125,-0.95899 1.256398,-0.3523 2.515573,-0.7074 3.464844,-0.98047 0.474635,-0.13653 0.871768,-0.25152 1.154297,-0.33593 0.141264,-0.0422 0.253182,-0.0777 0.333984,-0.10352 0.0404,-0.0129 0.07262,-0.0236 0.09961,-0.0332 0.0135,-0.005 0.02421,-0.009 0.03906,-0.0156 0.0074,-0.003 0.01638,-0.005 0.0293,-0.0117 0.0065,-0.003 0.01402,-0.008 0.02539,-0.0156 0.01137,-0.007 0.05244,-0.0407 0.05273,-0.041 6.6e-5,-6e-5 0.06245,-0.0936 0.0625,-0.0937 5.1e-5,-1.2e-4 0.01754,-0.0584 0.01758,-0.0586 7.1e-5,-3.4e-4 0.0076,-0.0426 0.0078,-0.0547 4.43e-4,-0.0241 -0.0029,-0.0338 -0.0039,-0.043 -0.0021,-0.0184 -0.0037,-0.03 -0.0059,-0.041 -0.0043,-0.0221 -0.0091,-0.0428 -0.01563,-0.0703 -0.01307,-0.055 -0.03158,-0.12863 -0.05469,-0.2168 -0.04623,-0.17634 -0.109398,-0.41213 -0.177734,-0.6582 -0.136673,-0.49216 -0.287698,-1.01555 -0.357422,-1.22266 -0.02487,-0.0739 -0.09499,-0.15669 -0.171875,-0.19336 -0.07688,-0.0367 -0.142364,-0.038 -0.191406,-0.0332 z m -20.753906,3.53906 c -0.01396,0.001 -0.062,0.0116 -0.0625,0.0117 -5.01e-4,1.5e-4 -0.134552,0.0818 -0.134766,0.082 -4.29e-4,4.6e-4 -0.02288,0.0295 -0.0293,0.0391 -0.0064,0.01 -0.01013,0.0171 -0.01367,0.0234 -0.0071,0.0126 -0.01189,0.0212 -0.01563,0.0293 -0.0075,0.0163 -0.01198,0.0284 -0.01758,0.043 -0.0112,0.0292 -0.02322,0.064 -0.03711,0.10547 -0.02778,0.0829 -0.064,0.19472 -0.107422,0.33594 -0.08685,0.28244 -0.204594,0.67673 -0.341797,1.14649 -0.274406,0.93951 -0.629202,2.18073 -0.978516,3.41992 -0.349313,1.23919 -0.692022,2.47571 -0.945312,3.4082 -0.126645,0.46624 -0.231788,0.85742 -0.302734,1.13477 -0.03547,0.13867 -0.06183,0.24754 -0.08008,0.32812 -0.0091,0.0403 -0.01628,0.0733 -0.02148,0.10352 -0.0026,0.0151 -0.0041,0.0281 -0.0059,0.0508 -8.79e-4,0.0114 -0.0019,0.0241 0,0.0508 9.51e-4,0.0134 0.0096,0.0581 0.0098,0.0586 1.45e-4,5.4e-4 0.07203,0.12867 0.07227,0.12891 2.46e-4,2.6e-4 0.0412,0.0374 0.05273,0.0449 0.01154,0.008 0.01901,0.0123 0.02539,0.0156 0.01277,0.007 0.02227,0.009 0.0293,0.0117 0.01405,0.006 0.02296,0.0111 0.03516,0.0156 0.02439,0.009 0.05374,0.0193 0.08984,0.0312 0.07222,0.0238 0.172772,0.0542 0.300781,0.0937 0.256018,0.0792 0.621226,0.18918 1.068359,0.32227 0.894266,0.26616 2.118845,0.6245 3.458985,1.01171 1.339814,0.38712 2.570292,0.74077 3.474609,0.99805 0.452158,0.12864 0.821798,0.23366 1.083985,0.30664 0.131093,0.0365 0.23606,0.066 0.310546,0.0859 0.03724,0.01 0.06629,0.0176 0.08984,0.0234 0.01178,0.003 0.02276,0.005 0.0332,0.008 0.01044,0.002 0.0062,0.004 0.05273,0.008 0.14093,0.0111 0.224644,-0.0539 0.27539,-0.0996 0.05106,-0.046 0.08376,-0.0926 0.113282,-0.14062 0.05904,-0.096 0.103017,-0.2049 0.136718,-0.32813 0.04738,-0.1734 0.697407,-2.45466 1.431641,-5.01758 0.585327,-2.04235 0.915602,-3.20931 1.083984,-3.88476 0.08419,-0.33773 0.128546,-0.54837 0.144531,-0.70899 0.008,-0.0803 0.01154,-0.14903 -0.0078,-0.23437 -0.01935,-0.0853 -0.09447,-0.20845 -0.199219,-0.25781 -0.06715,-0.0316 -0.115041,-0.0457 -0.208984,-0.0762 -0.09394,-0.0305 -0.217859,-0.068 -0.367188,-0.11328 -0.298656,-0.0906 -0.700994,-0.20872 -1.173828,-0.3457 -0.945667,-0.27395 -2.169349,-0.62134 -3.382812,-0.96094 -1.213463,-0.3396 -2.418159,-0.67228 -3.322266,-0.91601 -0.452053,-0.12187 -0.827695,-0.22109 -1.095703,-0.28907 -0.134004,-0.034 -0.240491,-0.0607 -0.318359,-0.0781 -0.03893,-0.009 -0.07,-0.0145 -0.09961,-0.0195 -0.0148,-0.002 -0.02773,-0.004 -0.05078,-0.006 -0.01153,-8.2e-4 -0.02482,-0.002 -0.05273,0 z m -1.521485,0.11914 c -0.04589,0.002 -0.08885,0.009 -0.136719,0.0176 -0.09573,0.0167 -0.208633,0.0419 -0.330078,0.0762 l -0.410156,0.11523 a 0.29767119,0.29767119 0 0 0 -0.216797,0.27735 l -0.02344,0.6914 c -0.0122,0.35743 -0.0765,0.88997 -0.126953,1.11329 -0.12675,0.56085 -0.674473,1.74135 -1.003907,2.17187 -0.01164,0.0152 -0.162244,0.18521 -0.373046,0.4082 -0.210803,0.223 -0.497388,0.52032 -0.837891,0.8711 -0.681006,0.70154 -1.577882,1.61588 -2.527344,2.57031 l -3.455078,3.47266 a 0.29767119,0.29767119 0 0 0 0.292969,0.49609 l 3.207031,-0.91406 c 0.88306,-0.25159 1.694466,-0.48785 2.291016,-0.66602 0.298275,-0.0891 0.542219,-0.16343 0.716797,-0.21875 0.08729,-0.0277 0.156403,-0.052 0.208984,-0.0703 0.02629,-0.009 0.0473,-0.017 0.06836,-0.0254 0.01053,-0.004 0.02123,-0.007 0.03516,-0.0137 0.007,-0.003 0.01394,-0.007 0.02539,-0.0137 0.01145,-0.007 0.05406,-0.0404 0.05469,-0.041 3.6e-4,-3.3e-4 0.03489,-0.0374 0.04297,-0.0488 0.0081,-0.0114 0.01362,-0.0185 0.01758,-0.0254 0.0079,-0.0138 0.0119,-0.0232 0.01563,-0.0312 0.0074,-0.0162 0.01226,-0.0291 0.01758,-0.043 0.01063,-0.0278 0.0218,-0.0598 0.03516,-0.0996 0.02671,-0.0796 0.06099,-0.18883 0.103516,-0.32617 0.08505,-0.27468 0.200052,-0.65931 0.335937,-1.11914 0.271769,-0.91965 0.624359,-2.13689 0.972656,-3.35352 0.348298,-1.21662 0.693616,-2.43199 0.947266,-3.34765 0.126825,-0.45783 0.229381,-0.84147 0.300781,-1.11328 0.0357,-0.13591 0.06353,-0.24384 0.08203,-0.32227 0.0093,-0.0392 0.01612,-0.0688 0.02148,-0.0976 0.0027,-0.0144 0.0057,-0.0274 0.0078,-0.0488 0.001,-0.0107 0.0031,-0.0227 0.002,-0.0488 -5.82e-4,-0.013 -0.0096,-0.0581 -0.0098,-0.0586 -1.2e-4,-4.9e-4 -0.07792,-0.14237 -0.07813,-0.14257 -6.62e-4,-6.7e-4 -0.04961,-0.0414 -0.07031,-0.0527 -0.02071,-0.0113 -0.03769,-0.0165 -0.05273,-0.0215 -0.03009,-0.01 -0.05263,-0.0136 -0.07031,-0.0156 -0.03536,-0.004 -0.05713,-0.003 -0.08008,-0.002 z m 22.744141,0.0215 c -0.02153,6.3e-4 -0.03047,0.003 -0.03906,0.004 -0.01719,0.002 -0.02812,0.005 -0.04102,0.008 -0.02578,0.005 -0.05582,0.0122 -0.09375,0.0215 -0.07587,0.0185 -0.182188,0.0468 -0.316406,0.082 -0.268438,0.0705 -0.646902,0.17095 -1.101563,0.29492 -0.909322,0.24794 -2.118939,0.58381 -3.330078,0.92188 -1.211139,0.33807 -2.424635,0.6795 -3.341797,0.9414 -0.458581,0.13095 -0.842967,0.24128 -1.117188,0.32227 -0.13711,0.0405 -0.245371,0.073 -0.324218,0.0976 -0.03942,0.0123 -0.07165,0.0223 -0.09766,0.0312 -0.013,0.004 -0.02387,0.0104 -0.03711,0.0156 -0.0066,0.003 -0.01309,0.005 -0.02344,0.01 -0.0052,0.002 -0.01108,0.005 -0.01953,0.01 -0.0085,0.005 -0.03867,0.0231 -0.03906,0.0234 -1.71e-4,1.3e-4 -0.07592,0.0855 -0.07617,0.0859 -2.53e-4,4.1e-4 -0.01262,0.021 -0.01563,0.0273 -0.006,0.0127 -0.0073,0.0191 -0.0098,0.0254 -0.0049,0.0126 -0.0077,0.0234 -0.01172,0.0352 -0.008,0.0235 -0.01765,0.0525 -0.0293,0.0898 -0.0233,0.0747 -0.05579,0.18061 -0.0957,0.31445 -0.07984,0.26769 -0.191991,0.647 -0.324219,1.10156 -0.264457,0.90913 -0.612018,2.11763 -0.958985,3.33008 -0.346966,1.21245 -0.692188,2.42767 -0.951171,3.34766 -0.129492,0.46 -0.236806,0.84725 -0.3125,1.12305 -0.03785,0.13789 -0.0691,0.24696 -0.08984,0.32617 -0.01037,0.0396 -0.01735,0.0723 -0.02344,0.0976 -0.003,0.0127 -0.0054,0.0232 -0.0078,0.0352 -0.0012,0.006 -0.0025,0.0126 -0.0039,0.0215 -0.0014,0.009 -0.0039,0.0498 -0.0039,0.0508 0,0.11378 0.07447,0.22281 0.138672,0.26953 0.0642,0.0467 0.118396,0.0612 0.166016,0.0703 0.09524,0.0182 0.176614,0.0101 0.265625,-0.008 0.09849,-0.0198 0.234073,-0.0587 0.515625,-0.13672 0.281552,-0.078 0.666971,-0.18643 1.121094,-0.31445 0.908245,-0.25605 2.091814,-0.59225 3.267578,-0.92774 1.175764,-0.33549 2.343157,-0.67033 3.220703,-0.92383 0.438773,-0.12675 0.803861,-0.23246 1.0625,-0.30859 0.129319,-0.0381 0.232568,-0.0698 0.304687,-0.0918 0.03606,-0.011 0.06388,-0.0183 0.08594,-0.0254 0.01103,-0.004 0.02084,-0.008 0.03125,-0.0117 0.0052,-0.002 0.0105,-0.002 0.01953,-0.006 0.0045,-0.002 0.01026,-0.005 0.01953,-0.01 0.0093,-0.005 0.0545,-0.035 0.05469,-0.0352 2.8e-4,-2.2e-4 0.04904,-0.0489 0.05859,-0.0625 0.0096,-0.0136 0.01551,-0.022 0.01953,-0.0293 0.008,-0.0147 0.01029,-0.0235 0.01367,-0.0313 0.0068,-0.0156 0.01279,-0.0278 0.01758,-0.041 0.0096,-0.0264 0.0187,-0.0568 0.03125,-0.0957 0.0251,-0.0778 0.05858,-0.18585 0.09961,-0.32227 0.08206,-0.27284 0.195221,-0.65741 0.328125,-1.11719 0.265809,-0.91956 0.61173,-2.13955 0.955078,-3.35937 0.343348,-1.21982 0.684156,-2.43952 0.935547,-3.35742 0.125696,-0.45896 0.229579,-0.84162 0.300782,-1.11328 0.0356,-0.13584 0.0615,-0.24485 0.08008,-0.32227 0.0093,-0.0387 0.0161,-0.0685 0.02148,-0.0957 0.0027,-0.0136 0.0055,-0.0259 0.0078,-0.0449 0.0012,-0.01 0.004,-0.0193 0.0039,-0.043 -2.9e-5,-0.0118 -0.0058,-0.0542 -0.0059,-0.0547 -8.5e-5,-4.7e-4 -0.08186,-0.15804 -0.08203,-0.15821 -1.44e-4,-1.4e-4 -0.169487,-0.0839 -0.169922,-0.084 -4.35e-4,-6e-5 -0.04197,-0.004 -0.05273,-0.004 z"
       transform="translate(-13.172621,15.905447)" />
  </g>
  <g
     clip-path="url(#clipPath902)"
     transform="matrix(0.06960349,0,0,0.11227166,0.18285662,0.33219311)"
     id="g900">
    <image xlink:href="./FLAGFLAGFLAG" ></image>
  </g>
</svg>
