<?xml version="1.0" encoding="UTF-8" standalone="no"?>
<!-- Created with Inkscape (http://www.inkscape.org/) -->

<svg
   xmlns:dc="http://purl.org/dc/elements/1.1/"
   xmlns:cc="http://creativecommons.org/ns#"
   xmlns:rdf="http://www.w3.org/1999/02/22-rdf-syntax-ns#"
   xmlns:svg="http://www.w3.org/2000/svg"
   xmlns="http://www.w3.org/2000/svg"
   xmlns:sodipodi="http://sodipodi.sourceforge.net/DTD/sodipodi-0.dtd"
   xmlns:inkscape="http://www.inkscape.org/namespaces/inkscape"
   version="1.1"
   width="53.88343"
   height="53.938148"
   id="svg3953"
   sodipodi:docname="OSM_Logo_cutout_white_bg.svg"
   inkscape:version="0.92.3 (2405546, 2018-03-11)">
  <sodipodi:namedview
     pagecolor="#ffffff"
     bordercolor="#666666"
     borderopacity="1"
     objecttolerance="10"
     gridtolerance="10"
     guidetolerance="10"
     inkscape:pageopacity="0"
     inkscape:pageshadow="2"
     inkscape:window-width="1869"
     inkscape:window-height="1145"
     id="namedview870"
     showgrid="false"
     inkscape:zoom="11.313709"
     inkscape:cx="21.736761"
     inkscape:cy="38.349949"
     inkscape:window-x="1251"
     inkscape:window-y="441"
     inkscape:window-maximized="1"
     inkscape:current-layer="svg3953"
     inkscape:pagecheckerboard="true" />
  <defs
     id="defs3955" />
  <metadata
     id="metadata3958">
    <rdf:RDF>
      <cc:Work
         rdf:about="">
        <dc:format>image/svg+xml</dc:format>
        <dc:type
           rdf:resource="http://purl.org/dc/dcmitype/StillImage" />
        <dc:title></dc:title>
      </cc:Work>
    </rdf:RDF>
  </metadata>
  <g
     id="g1219"
     transform="translate(23.0976,-400.7473)">
    <path
       style="display:inline;fill:#ffffff;fill-opacity:1"
       d="m 36.271484,-1.5742188 c -4.81686,0.1238973 -9.49138,2.1851563 -13.009765,5.8203126 0.144192,-0.1484998 0.251634,-0.3461795 0.33789,-0.4648438 0.05138,-0.09036 0.183008,-0.061179 0.21875,-0.7304688 0.0045,-0.08366 -0.01356,-0.3058906 -0.01367,-0.3066406 -1.07e-4,-7.6e-4 -0.122783,-0.4252012 -0.123047,-0.4257812 -2.63e-4,-5.9e-4 -0.329656,-0.4761425 -0.330079,-0.4765625 -4.22e-4,-4.1e-4 -0.497463,-0.3317813 -0.498046,-0.3320313 -5.82e-4,-2.4e-4 -0.462147,-0.1151644 -0.462891,-0.1152344 -7.44e-4,-6.99e-5 -0.241713,-0.00661 -0.332031,0.00391 -0.180637,0.02105 -0.290177,0.058074 -0.375,0.089844 0.196466,-0.07351 0.04901,-0.01642 -0.0059,0 -0.05487,0.01642 -0.138535,0.039972 -0.242187,0.070313 -0.207306,0.06068 -0.500279,0.1469299 -0.857422,0.25 -0.714286,0.2061499 -1.682767,0.4830999 -2.728516,0.78125 l -3.808593,1.0859374 c -0.132387,0.038572 -0.259125,0.094389 -0.376954,0.1660157 -0.0071,-0.0028 -0.0207,-0.00914 -0.02734,-0.011719 -0.05973,-0.0232 -0.102831,-0.037878 -0.152344,-0.054687 -0.09903,-0.03362 -0.214758,-0.070724 -0.357422,-0.1152344 -0.285327,-0.08902 -0.672736,-0.20655 -1.134765,-0.34375 C 11.068131,3.0420262 9.8511466,2.6890137 8.6347656,2.3398438 7.4183856,1.9906737 6.2049602,1.645525 5.2851562,1.390625 4.8252543,1.263175 4.439121,1.1599975 4.15625,1.0859375 4.014814,1.0489175 3.9012972,1.0195437 3.8007812,0.99609375 3.7505233,0.98437375 3.7091769,0.9736475 3.6386719,0.9609375 3.6034189,0.9545875 3.5671609,0.9476731 3.4726562,0.9394531 3.4254032,0.9353431 3.3675189,0.9272569 3.2324219,0.9355471 c -0.067549,0.00415 -0.3041765,0.0486981 -0.3046875,0.0488281 -5.11e-4,1.4e-4 -0.7126716,0.4099362 -0.7128906,0.4101562 -1.571e-4,1.5e-4 -0.4413333,0.858935 -0.4414063,0.859375 -7.3e-5,4.501e-4 -0.02032,0.2203938 -0.019531,0.2773438 0.00158,0.11388 0.00874,0.1545662 0.013672,0.1914062 0.00986,0.07369 0.017626,0.1025294 0.023437,0.1308594 0.011626,0.05666 0.020032,0.094725 0.03125,0.140625 0.022437,0.0918 0.051329,0.2019438 0.087891,0.3398438 0.073124,0.27581 0.1770354,0.6561481 0.3027344,1.1113281 0.251399,0.91035 0.5889516,2.1163419 0.9316406,3.3261719 0.3426891,1.20983 0.6891493,2.4227724 0.9570313,3.3457034 0.133942,0.46147 0.2484364,0.848362 0.3339844,1.132812 0.042773,0.14222 0.077489,0.257823 0.1074219,0.351562 0.014967,0.04687 0.028329,0.08747 0.044922,0.134766 0.0083,0.02364 0.01717,0.04764 0.033203,0.08789 0.00621,0.01559 0.049886,0.08885 0.056641,0.109375 -5.47e-4,8.9e-4 -0.00342,0.0031 -0.00391,0.0039 -0.034837,0.05897 -0.05105,0.09315 -0.064453,0.121094 -0.026807,0.05589 -0.035892,0.08278 -0.044922,0.105468 -0.018059,0.04537 -0.025383,0.06924 -0.033203,0.0918 -0.01564,0.04511 -0.028711,0.08206 -0.042969,0.126953 -0.028516,0.08979 -0.062483,0.203334 -0.1054687,0.345704 -0.085971,0.28474 -0.2032119,0.680173 -0.3417969,1.152343 -0.277168,0.94432 -0.640123,2.19402 -1,3.44336 -0.359876,1.24934 -0.7166578,2.49699 -0.9824218,3.4375 -0.132883,0.47025 -0.2429925,0.862371 -0.3203126,1.144531 -0.03866,0.14107 -0.068738,0.252367 -0.091797,0.341797 -0.011529,0.04472 -0.02009,0.08163 -0.03125,0.130859 -0.00558,0.02462 -0.013064,0.04765 -0.023437,0.109375 -0.00519,0.03086 -0.013013,0.06393 -0.019531,0.166016 -0.00326,0.05105 0.00582,0.267178 0.00586,0.267578 3e-5,2.9e-4 0.2443526,0.445272 0.4160156,0.757813 -0.065243,0.13576 -0.1931847,0.256463 -0.2148437,0.376953 -0.05389,0.29978 -0.017434,0.495843 0.00781,0.621093 0.08987,0.44566 0.2683243,1.062129 0.5371094,2.011719 0.2687859,0.94959 0.6077505,2.120545 0.9453124,3.265625 0.337562,1.14509 0.6733788,2.262672 0.9335938,3.107422 0.130107,0.42237 0.241522,0.775422 0.328125,1.039062 0.043301,0.131821 0.079015,0.238791 0.1152344,0.337891 0.01811,0.04955 0.033225,0.09414 0.0625,0.162109 0.014637,0.03399 0.032347,0.07361 0.070312,0.144532 0.018983,0.03546 0.042517,0.0788 0.089844,0.148437 0.023664,0.03482 0.05188,0.07646 0.097656,0.13086 0.045775,0.05439 0.2143897,0.208614 0.2148437,0.208984 0.105081,0.08516 0.1994604,0.151273 0.3183594,0.220703 0.059449,0.03472 0.1225904,0.07167 0.2246094,0.115234 0.9886094,0.42301 1.488461,-0.18225 0.734375,0.548829 -4.002524,4.01326 -5.87065015,5.852468 -6.87695315,7.042968 -0.503151,0.59524 -0.84920195,1.086507 -1.03125005,1.691407 -0.182048,0.6049 -0.124217,1.049344 -0.125,1.333984 -0.00217,0.71584 0.1359997,1.660116 0.65039068,2.441406 0.51438999,0.7813 1.21504437,1.465847 2.47460932,2.722656 1.0608311,1.058511 1.700326,1.684885 2.28125,2.146485 0.5809241,0.46161 1.2236603,0.760991 1.7539063,0.894531 1.148095,0.28916 2.1343074,0.134506 3.1621094,-0.333984 0.637123,-0.29042 1.0101057,-0.66716 2.105469,-1.71875 1.033592,-0.99229 2.858583,-2.80837 5.648437,-5.59375 -0.431559,1.204503 0.679404,2.39271 1.910156,2.042968 L 21.619141,48.875 c 0.887319,-0.2528 1.70036,-0.489422 2.304687,-0.669922 0.302163,-0.09024 0.55135,-0.165379 0.738281,-0.224609 0.09347,-0.02962 0.168695,-0.05451 0.242188,-0.08008 0.03675,-0.01279 0.07146,-0.02542 0.125,-0.04687 0.02449,-0.0098 0.05595,-0.02241 0.103515,-0.04492 0.02472,0.01449 0.05489,0.03381 0.07227,0.04297 0.0608,0.03206 0.09316,0.04546 0.119141,0.05664 0.05196,0.02236 0.07703,0.03202 0.101562,0.04102 0.04906,0.01799 0.08564,0.02871 0.128907,0.04297 0.08654,0.02853 0.190262,0.06271 0.322265,0.103515 0.264006,0.08163 0.632444,0.192362 1.082031,0.326172 0.899175,0.26763 2.125913,0.625682 3.46875,1.013672 1.341116,0.3875 2.571577,0.74197 3.478516,1 0.453469,0.12902 0.825256,0.234404 1.091797,0.308594 0.13327,0.03709 0.24012,0.0659 0.322265,0.08789 0.04107,0.01099 0.07515,0.02026 0.111329,0.0293 0.01809,0.0045 0.03585,0.0093 0.06445,0.01563 0.02738,0.0061 0.0153,0.01614 0.220703,0.0332 0.802599,0.09723 1.314587,0.04596 2.224609,-0.228515 0.362422,-0.07289 0.318571,-0.07925 0.603516,-0.158203 0.284945,-0.07894 0.671789,-0.188087 1.126953,-0.316407 0.910326,-0.25664 2.094723,-0.591954 3.271484,-0.927734 1.176761,-0.33577 2.344848,-0.671641 3.22461,-0.925781 0.439882,-0.12707 0.807704,-0.233247 1.070312,-0.310547 0.131304,-0.03866 0.2349,-0.06952 0.314453,-0.09375 0.03978,-0.01212 0.07191,-0.0217 0.107422,-0.0332 0.01775,-0.0057 0.03555,-0.01169 0.06836,-0.02344 0.01641,-0.0059 0.03484,-0.01223 0.07617,-0.0293 0.02066,-0.0085 0.04681,-0.01998 0.09375,-0.04297 0.04694,-0.02299 0.284964,-0.179537 0.285156,-0.179687 2.8e-4,-2.2e-4 0.263561,-0.262171 0.3125,-0.332031 0.04894,-0.06986 0.07245,-0.113088 0.0918,-0.148438 0.03869,-0.07069 0.0537,-0.105505 0.06641,-0.134765 0.02541,-0.05852 0.03518,-0.08644 0.04492,-0.113282 0.01949,-0.05369 0.03182,-0.09394 0.04687,-0.140625 0.03011,-0.09335 0.06513,-0.205083 0.107422,-0.345703 0.08459,-0.28125 0.198442,-0.668709 0.332031,-1.130859 0.267176,-0.9243 0.615026,-2.145198 0.958984,-3.367188 0.343958,-1.22198 0.682839,-2.444467 0.935547,-3.367187 0.126354,-0.46135 0.231194,-0.846533 0.304688,-1.126953 0.03675,-0.14021 0.06526,-0.251403 0.08789,-0.345703 0.01132,-0.04716 0.02142,-0.08704 0.0332,-0.146485 0.0059,-0.02971 0.01193,-0.05904 0.02148,-0.136718 0.0048,-0.03883 0.01201,-0.08486 0.01172,-0.203126 -1.44e-4,-0.05914 -0.02531,-0.282743 -0.02539,-0.283203 -2.7e-5,-1.5e-4 -0.07723,-0.146349 -0.134766,-0.255859 0.09865,-0.14609 0.234339,-0.347576 0.234375,-0.347656 5.1e-5,-1.2e-4 0.09371,-0.298658 0.09375,-0.298828 7.1e-5,-3.4e-4 0.03012,-0.227833 0.03125,-0.289063 0.0023,-0.12247 -0.0052,-0.170697 -0.0098,-0.210937 -0.0091,-0.08048 -0.01603,-0.108419 -0.02148,-0.136719 -0.01091,-0.05658 -0.01863,-0.08832 -0.02734,-0.125 -0.01743,-0.07335 -0.03806,-0.152854 -0.0625,-0.246094 -0.04888,-0.18648 -0.11214,-0.423558 -0.181641,-0.673828 -0.139003,-0.50054 -0.272565,-0.978982 -0.376953,-1.289063 -0.117081,-0.347739 -0.463976,-0.76193 -0.832032,-0.9375 -0.391992,-0.516512 -0.576668,-0.507551 -0.3125,-0.978515 2.982142,-2.97493 4.805994,-6.61676 5.402344,-10.787109 C 55.52151,18.30486 55.527127,16.03895 55.312472,14.62306 54.496135,9.2384669 51.592414,4.5890819 47.15625,1.6074219 c -3.036682,-2.04105003 -6.484884,-3.0830575 -9.919922,-3.1796875 -0.32209,-0.00906 -0.64372,-0.010213 -0.964844,-0.00195 z"
       transform="translate(-23.113224,400.73949)"
       id="path1217"
       inkscape:connector-curvature="0"
       sodipodi:nodetypes="cccccccccccccccccccscsscccsccccccccccssccccccccccccsccccccccccscccccscccccccsccscccccccccccccccccccccccccccscsccscccccccccccccccccccccccccccccccccccsc" />
  </g>
  <g
     id="g1018"
     transform="translate(-43.178037,-399.67882)">
    <path
       inkscape:connector-curvature="0"
       style="display:inline;fill:#000000"
       id="path1016"
       d="m 49.153345,453.55265 c -0.78927,-0.19878 -1.20166,-0.52642 -3.30855,-2.62871 -2.50674,-2.50125 -2.66748,-2.74547 -2.66353,-4.04665 0.004,-1.45375 -0.43487,-0.93383 7.57393,-8.96412 8.08831,-8.11001 7.67181,-7.75655 9.13517,-7.75274 0.67646,0.002 0.84669,0.0403 1.39217,0.31508 l 0.62148,0.31306 1.96016,-1.96017 1.96017,-1.96016 -0.4911,-0.76558 c -0.95564,-1.48975 -1.85634,-3.6635 -2.261,-5.45669 -1.14242,-5.06242 0.0891,-10.41791 3.32961,-14.47948 5.59025,-7.00664 15.63301,-8.56087 23.06026,-3.56881 4.07567,2.73936 6.72473,6.97085 7.47915,11.94686 0.15948,1.05192 0.16039,3.55036 0.002,4.66015 -0.55211,3.86097 -2.19556,7.14242 -4.95661,9.8968 -1.42244,1.41899 -2.56285,2.24109 -4.37332,3.1526 -2.15538,1.08517 -3.98398,1.59438 -6.46864,1.80131 -3.54026,0.29484 -7.46535,-0.68429 -10.47026,-2.61185 l -0.76558,-0.4911 -1.96016,1.96016 -1.96017,1.96017 0.31307,0.62147 c 0.27478,0.54548 0.31331,0.71571 0.31507,1.39218 0.004,1.46164 0.35072,1.05202 -7.70469,9.09748 -6.20347,6.19581 -7.1584,7.11267 -7.63354,7.32925 -0.60858,0.2774 -1.55204,0.38374 -2.12478,0.23949 z m 33.29594,-22.52081 c 4.47674,-0.81946 8.3862,-3.80005 10.34577,-7.88765 3.12421,-6.51701 1.02301,-14.17604 -4.99993,-18.22503 -1.43679,-0.9659 -3.44315,-1.78014 -5.32615,-2.16149 -1.3045,-0.2642 -4.06475,-0.23718 -5.42534,0.0531 -2.03097,0.4333 -3.89564,1.24134 -5.51151,2.38836 -0.99858,0.70884 -2.64513,2.35472 -3.34255,3.34118 -3.86467,5.46635 -3.51502,12.73157 0.85543,17.7747 2.24032,2.58513 5.33875,4.28207 8.76731,4.80164 1.13862,0.17255 3.46328,0.13003 4.63697,-0.0848 z m -3.96437,-1.94652 c -1.54456,-0.24456 -2.85403,-0.63675 -3.91548,-1.1727 l -0.60054,-0.30322 v -2.7851 -2.78509 h -1.05861 c -0.92057,0 -2.18157,0.18074 -3.09223,0.44323 -0.1208,0.0348 -0.17081,0.17477 -0.19217,0.53771 l -0.0289,0.49065 -0.45941,-0.8732 c -1.00738,-1.91476 -1.36622,-3.42212 -1.3662,-5.73896 10e-6,-1.79124 0.12725,-2.61596 0.62542,-4.05368 0.26443,-0.76317 0.9161,-2.11479 1.20113,-2.49125 0.12387,-0.16362 0.13737,-0.12771 0.14013,0.37275 l 0.003,0.5538 3.1468,-0.0253 3.1468,-0.0253 0.0279,-0.79271 0.0279,-0.7927 h -1.06082 -1.06083 v -1.72759 -1.72758 l 0.37585,-0.19175 c 0.61978,-0.31619 1.77075,-0.75158 2.4228,-0.9165 0.33681,-0.0852 0.68246,-0.17537 0.7681,-0.2004 0.13464,-0.0394 0.14495,0.0101 0.0762,0.36538 -0.13259,0.68562 -0.0976,2.5672 0.0601,3.23647 0.31231,1.32496 1.08891,2.30563 2.14396,2.70735 0.62994,0.23986 1.81778,0.28529 2.51236,0.0961 0.66228,-0.18039 1.39696,-0.71216 1.77082,-1.28174 0.55294,-0.8424 0.74788,-1.5781 0.80139,-3.02448 l 0.0471,-1.2715 0.77672,0.40409 c 0.89466,0.46546 1.98242,1.25101 2.77751,2.00585 0.53486,0.50779 0.55249,0.54051 0.55249,1.02542 v 0.50089 h -1.05694 -1.05694 v 0.81672 0.81673 h 1.9506 1.95061 l 0.21007,0.43238 0.21006,0.43239 -1.07971,-0.002 c -0.74374,-0.002 -1.41607,0.065 -2.16067,0.21405 l -1.08096,0.21632 v 0.79485 c 0,0.43717 0.0169,0.79485 0.0375,0.79485 0.0206,0 0.45775,-0.0865 0.97143,-0.19217 0.51369,-0.1057 0.97245,-0.19217 1.01948,-0.19217 0.048,0 0.0855,1.26126 0.0855,2.87931 v 2.87931 l -1.03292,0.0273 -1.03292,0.0273 -0.0279,0.79095 -0.0279,0.79096 2.25639,0.0258 2.2564,0.0258 -0.16635,0.3769 -0.16635,0.37691 -1.1974,0.007 c -1.10688,0.007 -1.2385,0.0276 -1.74129,0.27453 -1.3125,0.64454 -2.0183,2.10655 -2.03988,4.22548 l -0.0105,1.0335 -0.64233,0.33767 c -0.56082,0.29483 -2.52229,1.00636 -2.77421,1.00636 -0.055,0 -0.0906,-1.33939 -0.0906,-3.41103 v -3.41103 h -1.04636 c -0.67328,0 -1.38416,0.0692 -1.99377,0.19415 -1.40887,0.28871 -1.28371,0.18523 -1.28371,1.06143 0,0.56154 0.0329,0.76221 0.12497,0.76221 0.0687,0 0.51193,-0.0855 0.98488,-0.19009 0.47294,-0.10455 0.89233,-0.19103 0.93196,-0.19217 0.0396,-10e-4 0.0721,1.23021 0.0721,2.73635 v 2.73844 l -0.84075,-0.0131 c -0.46241,-0.007 -0.94884,-0.0302 -1.08096,-0.0511 z m -4.39784,-7.98559 c 0.98836,-0.4372 1.73763,-1.43852 2.04176,-2.72859 0.18257,-0.77443 0.18513,-2.52175 0.005,-3.3721 -0.28369,-1.33877 -1.07428,-2.35708 -2.15074,-2.77022 -0.76485,-0.29355 -2.05469,-0.29167 -2.82574,0.004 -1.07709,0.41318 -1.83547,1.42602 -2.13844,2.85595 -0.17789,0.83957 -0.17851,2.39265 -0.001,3.22892 0.29524,1.39327 1.17694,2.49092 2.29488,2.85696 0.78176,0.25597 2.10741,0.22012 2.77465,-0.075 z m -2.2231,-1.614 c -0.39372,-0.33129 -0.57905,-0.98887 -0.64791,-2.29884 -0.0616,-1.17117 0.0717,-2.38219 0.31949,-2.90446 0.22671,-0.47776 0.64963,-0.71968 1.16619,-0.66709 0.82666,0.0842 1.14434,0.72961 1.23765,2.51461 0.0973,1.86079 -0.20969,3.2265 -0.78404,3.48819 -0.43294,0.19726 -0.96435,0.14277 -1.29138,-0.13241 z m 10.58907,1.68772 c 1.67291,-0.51671 2.54432,-2.24692 2.44334,-4.85133 -0.0859,-2.21663 -0.87676,-3.58368 -2.39885,-4.14679 -0.63172,-0.23371 -2.0046,-0.20633 -2.68156,0.0535 -1.07105,0.41107 -1.83349,1.38664 -2.15547,2.75801 -0.22446,0.95602 -0.14534,3.12425 0.1434,3.92948 0.45053,1.25645 1.29758,2.08955 2.38503,2.34575 0.64728,0.1525 1.60482,0.11502 2.26411,-0.0886 z m -1.86564,-1.58472 c -0.55629,-0.30231 -0.81055,-1.47383 -0.72845,-3.35639 0.0625,-1.43315 0.16365,-1.86584 0.53269,-2.27888 0.52678,-0.58957 1.51536,-0.4222 1.86558,0.31584 0.38412,0.80947 0.44958,3.36036 0.11513,4.48655 -0.1895,0.63814 -0.58566,0.9787 -1.13236,0.97346 -0.22054,-0.002 -0.51421,-0.0654 -0.65259,-0.14058 z m -9.5056,5.75027 c -0.81076,-0.84732 -1.11013,-1.26895 -0.93913,-1.32267 0.32146,-0.101 1.55452,-0.34135 1.58661,-0.30926 0.0198,0.0198 0.0237,0.54298 0.009,1.16267 l -0.0272,1.1267 -0.62909,-0.65744 z m 17.45004,-0.12897 c 0.0771,-0.66807 0.34281,-1.28654 0.63359,-1.47472 0.3181,-0.20586 0.71273,-0.28727 0.89583,-0.1848 0.13465,0.0754 0.0974,0.16571 -0.27065,0.65725 -0.23472,0.31343 -0.62768,0.78607 -0.87326,1.05031 l -0.44649,0.48043 0.061,-0.52847 z m 2.74175,-9.34431 0.009,-3.67527 0.28699,0.86477 c 0.56745,1.70982 0.76774,3.54564 0.56711,5.198 -0.15748,1.29698 -0.1536,1.28777 -0.54291,1.28777 h -0.32983 l 0.009,-3.67527 z m -10.54142,-6.12353 c -0.28705,-0.11598 -0.59357,-0.53639 -0.72863,-0.99934 -0.1313,-0.45005 -0.16707,-3.17797 -0.049,-3.73479 0.0711,-0.33529 0.10038,-0.36032 0.42149,-0.36032 0.68951,0 2.04064,0.22566 2.08786,0.3487 0.0259,0.0676 0.0759,0.54649 0.11097,1.06417 0.0733,1.08128 -0.081,2.59133 -0.31513,3.08479 -0.26899,0.56685 -0.94655,0.83156 -1.52759,0.59679 z m -10.52288,-0.26615 c 0.0498,-0.0925 0.41684,-0.51406 0.8156,-0.93684 l 0.72504,-0.76868 0.004,0.93683 0.004,0.93684 h -0.8201 c -0.7515,0 -0.81253,-0.0141 -0.72954,-0.16815 z m 3.83706,38.13603 c -2.67902,-0.77406 -4.8967,-1.43431 -4.92819,-1.46724 -0.059,-0.0617 2.70974,-9.88097 2.81952,-9.99923 0.0547,-0.0589 9.53437,2.59585 9.92277,2.77886 0.1373,0.0647 -0.008,0.65019 -1.17839,4.73397 -0.73428,2.56308 -1.37936,4.82229 -1.43351,5.02046 -0.0542,0.19818 -0.15083,0.35588 -0.21485,0.35044 -0.064,-0.005 -2.30833,-0.6432 -4.98735,-1.41726 z m 6.55244,1.17332 c 0,-0.11986 2.75458,-9.74106 2.79829,-9.77388 0.0997,-0.0749 9.71672,-2.75978 9.7535,-2.723 0.0435,0.0435 -2.68833,9.74811 -2.76007,9.80498 -0.049,0.0388 -9.28068,2.67317 -9.57553,2.73247 -0.1189,0.0239 -0.21619,0.006 -0.21619,-0.0406 z m -15.97914,-4.29582 c 1.90048,-1.91042 3.59414,-3.65477 3.76369,-3.87633 0.38223,-0.49952 0.91352,-1.64824 1.058,-2.28755 0.0597,-0.26424 0.11917,-0.7909 0.13212,-1.17036 l 0.0236,-0.68994 0.41112,-0.11603 c 0.22611,-0.0638 0.42844,-0.0987 0.44962,-0.0775 0.0527,0.0527 -2.71274,9.71086 -2.80487,9.79572 -0.0405,0.0373 -1.51704,0.47908 -3.28117,0.98168 l -3.2075,0.91382 3.45544,-3.47349 z m 18.62971,-6.87255 c -0.0196,-0.0327 -0.0797,-0.22045 -0.13356,-0.41711 l -0.0979,-0.35756 0.35181,-0.0595 c 3.01446,-0.51001 6.24294,-1.92535 8.78589,-3.85166 0.36329,-0.2752 0.56917,-0.37858 0.59589,-0.29922 0.12326,0.36614 0.61414,2.13552 0.59716,2.15249 -0.0764,0.0764 -10.07113,2.87963 -10.09933,2.83258 z m -33.89362,-2.91809 c -0.11626,-0.0943 -2.65277,-8.69681 -2.84416,-9.6459 -0.0383,-0.19002 0.33003,-0.0993 4.88567,1.20288 4.76674,1.36256 4.92934,1.41674 4.99565,1.66465 0.0591,0.22112 0.0205,0.28971 -0.28183,0.50033 -0.1927,0.13425 -1.73374,1.62875 -3.42454,3.32112 -1.69079,1.69237 -3.09859,3.07703 -3.12843,3.07703 -0.0298,0 -0.12091,-0.0541 -0.20236,-0.12011 z m 1.84091,-9.84626 c -2.66878,-0.76719 -4.86015,-1.40111 -4.86971,-1.40871 -0.0334,-0.0265 2.82853,-9.96454 2.88616,-10.02217 0.0502,-0.0502 9.94195,2.72123 10.04463,2.81422 0.0209,0.0189 -0.60418,2.2837 -1.389,5.03289 -1.29576,4.53899 -1.44501,4.99762 -1.62336,4.9886 -0.10802,-0.005 -2.37995,-0.63763 -5.04872,-1.40483 z m 6.65056,1.20966 c 0.0273,-0.0722 0.47612,-1.62292 0.99727,-3.44614 l 0.94755,-3.31495 0.12352,0.72064 c 0.21402,1.2486 0.59353,2.67182 1.04343,3.91297 0.23915,0.65973 0.42128,1.21135 0.40474,1.22584 -0.0165,0.0145 -0.74349,0.22823 -1.61547,0.47499 -0.87198,0.24677 -1.66762,0.47323 -1.76809,0.50325 -0.1282,0.0383 -0.16785,0.0155 -0.13295,-0.0766 z m -3.67192,-12.64476 c -2.66877,-0.76771 -4.87539,-1.43168 -4.90361,-1.47549 -0.0917,-0.14236 -2.80125,-9.71 -2.76121,-9.75004 0.0563,-0.0563 9.68449,2.70676 9.77639,2.80557 0.10307,0.11082 2.87454,9.83845 2.79941,9.82573 -0.0323,-0.005 -2.2422,-0.63806 -4.91098,-1.40577 z m 4.82251,-3.85029 c -0.53799,-1.88636 -1.05972,-3.71433 -1.1594,-4.06217 l -0.18123,-0.63242 3.808,-1.08569 c 2.09439,-0.59713 3.87285,-1.10995 3.95212,-1.13961 0.0793,-0.0297 -0.18308,0.3111 -0.583,0.75725 -2.1267,2.37252 -3.52096,4.91483 -4.40282,8.02812 -0.16438,0.58035 -0.29888,1.14794 -0.29888,1.26132 0,0.65763 -0.25897,-0.056 -1.13479,-3.1268 z" />
  </g>
</svg>
